<svg id="Capa_1" data-name="Capa 1" xmlns="http://www.w3.org/2000/svg" xmlns:xlink="http://www.w3.org/1999/xlink" viewBox="0 0 321.9 321.9"><defs><style>.cls-1{fill:none;}.cls-2{clip-path:url(#clip-path);}.cls-3{clip-path:url(#clip-path-2);}.cls-4{fill:#110c2b;}.cls-5{fill:#f6f9e4;}.cls-6{fill:#d7bbb5;}.cls-7{fill:#f43f66;}.cls-8{fill:#ede9d8;}.cls-9{fill:#f4914d;}.cls-10{fill:#46c6d7;}.cls-11{fill:#071e38;}.cls-12{fill:#6e8f9c;}.cls-13{fill:#c0305a;}.cls-14{fill:#4cb8ca;}.cls-15{fill:#395a79;}.cls-16{fill:#e4456a;}.cls-17{fill:#af5739;}.cls-18{fill:#120f2d;}.cls-19{fill:#e3d1c4;}</style><clipPath id="clip-path" transform="translate(-143.2 -193.7)"><rect class="cls-1" x="125" y="316.6" width="349.4" height="76.3"/></clipPath><clipPath id="clip-path-2" transform="translate(-143.2 -193.7)"><rect class="cls-1" x="143.2" y="193.7" width="321.9" height="321.91"/></clipPath></defs><g class="cls-2"><g class="cls-3"><path class="cls-4" d="M143.2,515.3V193.7H464.8V515.3H143.2ZM370.3,271.1l-2.2.2h-.7l-.2.8v1.9l-3.3.5v2.6l-.3.2h-3.1v3l-3.3.3-.3,2.9-3.2.2c-.1,1.1-.1,2.1-.2,3.1l-3,.3c-.2,1.4-.3,2.7-.5,4v.4l-.2,1-3.1.7-.2.9-.3,1.6-1.5.2h-1.6v2l-.3.8-1.5.3h-1.5c0,1,.1,1.8.1,2.6l-.7.5h-1.9c-.3.2-.8.4-.8.7-.1,1.8,0,3.7,0,5.6a26.2,26.2,0,0,1,.1,2.8h-.3a.1.1,0,0,1-.1-.1l.7,1.2,2.5-.2c.1-1.1.1-2.1.2-3.1l1.1-.4h5.1l.2-3.3,3.3-.2v-2.7l3.1-.2c.2-1.2.3-2.2.4-3.2l3.1-.2c.1-1,.1-1.9.2-2.8l2.7-.2V293h0l1.6-.3.3-2.8h2.7c.1-1.2.2-2.1.3-3.2h2.9l.3-3.1h3.2a30.3,30.3,0,0,1,.2-3.1l3.2-.2c.1-1.1.1-2,.2-2.9l3.1-.2.3-2.9,3-.2c.1-1.1.2-2.1.3-2.9l3.6.2.3,2.7,3.2.4.2,2.8h2.5c.2,1,.5,2,.7,3h3c.1-1.1.2-2,.2-2.9l3.2-.2v-5.7l-3.3-.5v-2.8h-3.3l-.3-3.2-2.9.2-.3-.2c.1-1.1.1-2.1.2-3.1h3.1v-6.4h3.2v-2.9l-3.1-.2c-.1-1.2-.2-2.2-.3-3.3h-6.1c-.1,1.1-.1,2-.2,3l-3.5.2v3.6h-3.1l-3.6-.4v-2.9h-3.4v-3.3h-9.8v3.4H364v3.2h3.2l.3,2.9h3.2l.2,3.1h3c.1,1.2.1,2.2.2,3.2s-.1,1.9-.2,2.8l-1.3.3h-1.3c-1.4.2-.6,1.3-.7,2ZM184.6,346.8h-2.4l-3.2-.3v3.6l-3.6.2v13.2l3.8.2v5.4h5.3v4.5l4,.2v4.9h3.8v4.6l1.4.3c1.6.1,3.1,0,4.8,0v3.7H204l.3-3.8h4.5l.3-4.8,3.5-.2v-4.9h3.5v-4.5h5.6l.2-5.5,3.4-.2V350.6l-3.6-.5v-3.2h-8.9V344h-8.6v6.1h-7.2v-.6h.1c0-.1-.1-.1-.1-.2l-.2-1.8v-3.5h-8.8v2.4Zm87.7-107.2-.5-.3-.2.2h.6l-.5,1.7.8,2.1V254a4.4,4.4,0,0,0-.5,1.5c-.1,3.5-.1,7.1-.1,10.6s0,8.2.1,12.4a4.9,4.9,0,0,0,.5,1.6v4.1a3.9,3.9,0,0,0-.5,1.4c-.1,2.3-.1,4.5-.1,6.7l-.3.3.2.2v-.5h.7l5,.2.3,1.7v8.2l.2.5v0h49.5V293l2.2-.7h2.9l.5-1.8v-.4a12.5,12.5,0,0,0,.3-1.9V244.9a9.5,9.5,0,0,1,.2-2.9c.6-1.3,0-2.1-.8-3.1l-4.3.2h-2.4v.2l-1.6-.5v1.2H295a10.9,10.9,0,0,0-.1,1.8v56.2h-3.5l-3.6-.2-5.9-.6v-.7a64.7,64.7,0,0,0,11.7-.3V285.7h0a14.9,14.9,0,0,0,.2-2.1c0-.4-.2-.7-.2-1.1s0-.2.1-.2v-9.8a.3.3,0,0,1,.1-.2c.1-1.9.9-3.9-.7-5.7l.6-.7h0V252.4c0-.1,0-.2.1-.2v-9.3h-9.2l-1.8,1.1-.9-.9v-1.4l-.2-1.7h-9Zm-31.7,87.9V334l2.8.2v7l1.3.5v3.2H249v6.3h8.4v-6.4h4v-3.1l1.5-.4v-7.2H266v-5.8l.2-.8h3.2v-9.1h-7.6v4.3h-3.2v10.6h-2.4v4.9h-5.9v-4.8l-2.6-.2V322.6H244a24.2,24.2,0,0,0,0-2.7,4.3,4.3,0,0,0-.5-1.6h-6.4v9.1h3.5Zm65.9,142.9c-1-.4-2-.7-2.8.3h-.1l-1.3,1.2-.8-1.2-2.8-.4v4.8l.2,1.3H304c1.4,1.1,2.5.7,3.3-1.3s-.1-2.1-.2-3.2a16.6,16.6,0,0,0-.6-1.6ZM353.2,425h.1v-6.8l-3.5-.7v-6.5l-3.5-.2c-.1-.9-.2-1.6-.3-2.3l-.3-3.4-3.4-.6a17.6,17.6,0,0,0,0-2.3c0-.4-.5-.6-.7-.9h-6.1v20.2H339l.3,2.9a5,5,0,0,0,1.3.4h2.5v3.6h3.4v3.7l3.9.2v15h3.2v3.8h5.1v3.2h15V451h3.4v5.6a27,27,0,0,0,.4,2.8c0,.1.1.1.2.1h2.9c.2-.4.6-.8.6-1.2V438.8a16.8,16.8,0,0,1,.2-2l6.4-.6c.7-.1,1.5.1,2.2,0a8.6,8.6,0,0,0,1.5-.5v-6.4h1.7v5.3h.4c.2-2.7.5-5.4.8-8.1l.5.3c.5-.7,1.1-1.3,1.7-2h.9a7.7,7.7,0,0,0,.7-1.6c.1-2.2.1-4.5.1-6.7l.5-.2-1.2-.8v-.6c-.3-1.8-2.1-.9-3-1.7v-2.5l-1.2-.9-1.3.6-.7-.4h-3.8c-2.1,2.2-.5,5-1.4,7.3l-2.4.5-1.7,2.6a20.9,20.9,0,0,1-.1,2.4c0,.8.6,1.9-1,2.2l-.5-1.7-.6,1.7c-.1,0-.2,0-.2.1H379q-.7-1.5-1.5,0H353.2ZM259,247h-1.7l.9,3.5h.6l1.9.2v-1.9c-.1-.7.9-1.7-.7-1.7l-.5-.2h0Zm160.5,99.7H381.8l-.5.2v53.5h41.5V361.9c0-4.1-.1-8.3-.2-12.5v-2.7ZM225.4,299.2v-3.1l7-.5v3.6h2.9l.6,3.6h13.5v-6.6h.2c1.2-.7,3,.5,3.8-1s-.3-2.4-.5-3.6l-2.6-.2-.9-3v-2l.5-.5h7.2V268h-4.2l-3.6-.2v-9.7l-1.6-.3h-5.3l-.3-3.1h-6.4l-.2,3.1-3.1.3c0,1.7.1,3.2,0,4.8a12.7,12.7,0,0,1-.6,1.8h-.1l-2.7-.3c-.1-1.1-.3-1.9-.4-2.8h-2.7c-1-2.1,0-4.5-.6-6.8H212.7v6.8l-3,.3v6.1h-9.9V286h10l.2,2.4-.3,7.3h9.6c0,2.1,0,4,.1,5.8a3.7,3.7,0,0,0,.4,1.4h5.6ZM198.3,330c0,.6-.1,1.2-.1,1.7v13.5c0,1.1.1,2.2.1,3.4l1.8.6H202l1.4.2-.9-1.3V329.8H200Zm82.1,130.1h0l-3.8.5v13.4h10.2v-3.6h3.9v-3.8h3.6v-4.3h16.6v4.3h3.7v3.7h3.5v3.7h10.5v-3.5c0-2,0-4,.1-6v-4.1h-3.6l-.3-3.6h-3.5v-5.9h-3.7v-41H288v40.8l-3.8.6v4.9l-3.7.7Zm-67.5-60.4v6.9h3.8a3.5,3.5,0,0,0,1.4.6h16.6a8.3,8.3,0,0,0,1.5-.4l.4,4.1h2.9v-4.4h46.2v-2.5H254.4l-4.4-.2-8.9.2h-.5l-.9-.4-.3-3.9v-1.8h-1.6l-1.2.3c-.1,2.1-.3,4.2-.4,6.3h-20l-.6-6.6h-2.7v2.1Zm193.8-95.1v6.9h3.1a10.7,10.7,0,0,1,0-1.8,5.8,5.8,0,0,1,.5-1.4h5.4v-3.7h-2.1l-3.8-.2.2-3.1h-3.3Zm-71.4,43.7V342l-.5-.3H322.6V337h9.6v-6.8h-9.6v-2.6h12.6v-9.2H315.6v32.9h19.8Zm10.2,1.2v1.3c.4.1.8.5,1.2.5h14.2a30.5,30.5,0,0,0-.2-3.2c.1-1,.1-2,.2-3h4.3V322.5h-4.5v-4.1H345.3v4.2h-4.7v22.3h4.8v4.6ZM197.1,332v-2.5h-5.2v3.1a8.3,8.3,0,0,1-1.5.4c-1.9.1-3.7,0-5.6,0v2.8h3.3v3.3h3.5l.2-3.6h5.3Zm136,121.8,3.2.7v5.3h3.1a30.3,30.3,0,0,0,.2,3.1h37.6c-.1-1-.2-1.8-.3-2.6a.4.4,0,0,0-.1-.3,9.4,9.4,0,0,0-1.6-.4H339.7v-5.7l-3.1-.4.3-.3-1.5-2.6-1.8-1-.2-1.9-.9-.8-2.3-.2c-.1-2.1-.5-4.3-.4-6.4,0-4.5.3-9,.6-13.5.1-2-1.2-3.9-.1-5.9.1-.2-.1-.6-.1-.9a13.3,13.3,0,0,1-.5-1.9V410l-1.2.3-2.4-.7-.4-4.8h0l-.7-1.2-2.7-.2-.2-2.2-.7-.7-2.9-.2-.2-2.3-1.4-1.4a4.7,4.7,0,0,0-1.7.2,10,10,0,0,1-6.4,0c-1.1-.4-2.2-.4-2.9.8l-.2,2.8-2.3-.3v5h-5.2v3.1h3.7l4.6-.2c.2-.5.6-.9.6-1.4s0-3.5,0-5.3h7.3l3.2-.3c-.1,1.8-.3,3.3-.5,4.8l1.4,1.4c2-.8,2.5-.5,3.6,1.3l-.6,2.3,1.8.9,2.6-.6v36l.8,1,2.4.3-.4,1.5.7,1.4h2.4l1,1.2Zm66.3-155.5c-.6-.3-1.4-1-1.8-.8-2.6,1-5.2.2-7.8.5l-2.9.3h-5a4.5,4.5,0,0,0-1.1-.3l-11-.2c-.2,0-.3.3-.5.4l-1.7.3,1.1,1.9-.9,1.3c-1.2,1.6-1.4,3-.3,4.5h30c1.6.6,2.8,0,3.7-1.5l-.3-1.1,1.6-1.1c.1-.1,0-.3-.1-.5v-.2l.8-.4-.7-.3v-2.8Zm-72.2,6.2H280.5l-2.6.3v2.7H328C327.7,306.2,327.4,305.3,327.2,304.5ZM199.4,450.3l3.4.4.2.6V454l1.1.2H261l11.9-.2c.2-.2.5-.4.5-.6a19.3,19.3,0,0,0,.1-2.4l1.6-.4H277V436.1c-.1-5.8-.1-11.7-.2-17.5V414h0l-2.1-.2H200.7l-1.3.2v4.6c0,3.8-.1,7.6-.1,11.4C199.3,436.8,199.4,443.5,199.4,450.3ZM422.7,335.1l1.4-.3c-.3-1.2-.6-2.2-.8-3.2-.3-3.2-.3-3.2-3.3-3.5l-.4-.3c0-.8-.1-1.7-.2-2.8l-2.9-.2-.3-1.4-1.8-.3c-7.9,0-15.7-.1-23.5.1-1.9,0-3.6.5-5.6.1s-5.3-.2-8-.2l-.5,1.3v7.1l4.1.2v3.4H384v4h35.1l.3-4Zm-148.6-11c-.1,1.3-.2,2.7-.2,4,.1,5.6.1,11.1.2,16.7v6.4h7.2V318.7l-.2-.3h-7v5.7Zm59.4,42H345c-.1-1.2-.1-2.2-.2-3.1v-6.5H326.6v34H345a32.5,32.5,0,0,0-.2-3.3v-6.7H333.5v-5.4h8.7v-6.4h-8.7Zm33.3,21v-.6h.1V384l3.2-.2V372.7H367v-4.2H356.8v-2.4h13.3v-6.3h-3.4v-3.3H353.6v3.4H350v12h3.9v5.8h8a4.3,4.3,0,0,1,1.6.5v1.3l-.2,1.1H349.9v9.8H367C366.9,389.3,366.8,388.2,366.8,387.1Zm-126,0v3.4h17.9V372.9H248.4v5.5h4.2l-.2,2.1H244V366.2h14.6v-5.8c-.3-.2-.7-.6-1.1-.6a26.1,26.1,0,0,0-2.8,0c0-1.2-.1-2.2-.1-3.3H240.9v3.4H237v22.4h0v4.5l3.8.2Zm41.1-.2v3.7h6.7V372.8h-2.5v-9.1h-2.9v-3.7h-2.7v-3.5h-6.6v3.5h-3.1v3.7h-3.1v9.2h-3.2v17.7h6.3v-3.3l.2-4.1h11Zm4.9-38.9v3.1h18.7v-6.2h4.3V322.5h-4.3v-4.2H286.8ZM315,387.2v3.3h6.2v-34H315c-.1,1.3-.1,2.5-.2,3.8h-4v8.1l-2.5.2v4h-2v-4.1H304v-8.1h-3.8v-3.8h-6.1v9.2c0,7.1.1,14.3.2,21.5v3.3h5.9V379.8h4.3v3.5h5.7v-3.5H315ZM208.6,321.5V309.9h-4.3l-.2-4.2h-5.3l-.2,4.2h-4.8v3.2h5V310h5.7v11.5l-2.9.2v3.4l-3.3.2v3.3h3.2l.3-3.3,3-.3.2-3.3Zm159.3-10.3h31.7v-2.5H367.9ZM357.1,411.8H380v-2.6H357.1ZM216,333h-6.8l-.2-3.5h-4.7v6h4.8V339h3.4l.2-3.3H216Zm186.4-17.8v-3.1l-2.4-.3-.4,1.9H367.8l.2,1.5Zm-18.6-25H406v-2.5H383.8ZM235.2,394.3H216v2.5h19.2Zm-46.5,5.8h20v-2.5h-20Zm39.9-73.3v-5.5h-2.7l-.2,3.1h-9.5v2.4Zm187.5,92.5H401.4v2.4h14.7ZM353,271H342.6v2.4H353Zm57.9,167h-9.7v2.5h9.7Zm-186-54.5h-8.8v2.6h8.8Zm58.4-141.3h10.2v-1.9H283.3ZM192.7,421.5h-5.9v2.6h5.9Zm54.9,46H258v-3H247.6Zm158.5-59.6h-4.4v2.8h4.4Zm-212.4-.1v2.7h4.4v-2.7Zm180.7-5.4v-3h-3.8v3Zm-35.5,36.8h3.7v-2.8h-3.7Zm5.9-180.9h4.4v-2.7h-4.4Zm-160.5,132h3.3v-2.7h-3.3Zm80.8,78.8v2.5h3.4v-2.5Zm-2.5-161.3V311h3.8v-3.2ZM391.1,447.5v3h2.7v-3ZM335.8,472v3.2h2.3V472ZM183.1,326.8v-4.2h-2.7v4.2ZM274.3,293v.2h1.6V293Zm2.7,1.1.2-.3c0-.1-.1-.1-.1-.2Z" transform="translate(-143.2 -193.7)"/><path class="cls-5" d="M143.2,515.3H464.8V193.7l.3.2V515.6H144.6A5.8,5.8,0,0,1,143.2,515.3Z" transform="translate(-143.2 -193.7)"/><path class="cls-6" d="M272.5,284.2V242.7l9.1-.3v25.5c0,2.8-.1,5.6-.1,8.4v4.8c0,2-.1,3.9-.1,5.9v3.5c.1,2.1.1,4.2.1,6.2v1.5h13V242a10.9,10.9,0,0,1,.1-1.8c.1.1.2,0,.2-.1h29.5c0,.1.1.2.2.1s.1.9.1,1.3v.4l-3.3.2H296.8v32.3c-.1.1-.1.1,0,.2v9.4h29.3V267.2c.1-6.7.1-13.4.1-20.2,0-1.5.1-3.1.2-4.6l6.6-.3c0,7.5,0,15,.1,22.5v25.5c0,.2-.1.3-.1.4a21.1,21.1,0,0,1-.2-2.5c-.1-14.2,0-28.4,0-42.7v-1.5h-.3v48.4h-.7c-.7-.8-1.4-1-2.2,0l-2.2.7c-.1.4-.4.8-.4,1.1v8.3H299.9a37.8,37.8,0,0,1-4.7-.6l-.3.3c-.2-1-.2-2.1-1.8-2.1s-4.4.2-6.5.2-3.1,0-4.8,0l.2,2.6h-4l-.2-.5v-8.2l-.3-1.7-5-.2Zm31.4,10.9V289h-2.7v6.1Z" transform="translate(-143.2 -193.7)"/><path class="cls-7" d="M245.6,302.8h-9.7V299l-3.1-.2v-2.7h5.7v-3.6h-6l-.3,3h-6.7c-.4,1-.7,2-1.1,3.1l-1.3-.4-.5,1h0l-.8,3.2-1.9-.2v-6.7l-3-2.3V293l2.2.3,1.2-2-.9-2.1-3.3-.9v-1.7l3.3-.6h1.8l4.1-.2v-2.3c-.2-.2-.4-.6-.6-.6h-9.1v5.3l-2.2.9h-.8V283l-.4-.4h0l-2.4-.7c0-1.7,0-3.5-.1-5.2a5.5,5.5,0,0,0-.5-1.7l-2.1-.3a10.1,10.1,0,0,1-.4-6.4l6-.7.2-2.2h6.3v8.3H216l-.3.2v3.1h0v2.4c1.3.9,8.3.8,9.7-.1l.2-2.2,2.9-.5v-3h-3v-8.9l-1.9-.2H223c-.5-.9-.9-.9-1.3,0h-1a.2.2,0,0,1-.3,0v-.6l-.6-2.5V261l-2.4-1.1-.8-2.6-2.9-.3-.2-1.7h11.3v6.3l3.7.9.2,2.3c1.1,0,2,1.3,3-.1h.1l1.1-.2.2-3h5.7v-3.1l-2.8-.3.2-3h5.4l.4,3.2,2.6.2.9.8v.7a.1.1,0,0,1-.1.1c.1.1.1.1.1.2v1H242l-.2,3.4h-5.9l-.3,2-.3,4.3-3.1.5v5.6h3.2l.2,2.7h10l-.4-2.6c.1-1.1.2-2.1.4-3.3h-3.8v-9.2h7.5v3.1l3.6.2a22.6,22.6,0,0,1-.1,2.6l1.1,1.5v10.2h-2l-2.5.4c0,.1.1.2.1.3v3.2h-3.7l-.3-.6-.2-2.4h-9.4l.2,3h6.2c.3,2.2-.9,4.5.1,6.6h2.7l.7,3.2Zm-3.6-6.5h-2.9v2.8H242Z" transform="translate(-143.2 -193.7)"/><path class="cls-7" d="M192.2,383.4v-4.6h-3.8v-4.9c-.2-2.2-2.3,0-3.2-1.8v-3.8h-4.9l-.8-4.9-3.6-.2V351.4l2.2-.7c.1,1.4.2,2.5.2,3.5s0,3.4.1,5.2c0,.2.4.5.6.7h9.1l-.2-3h-2.7l-.8-.7-1.8-1v-.6l1.7-.8v.2L186,353v-5.4l2,.2-1.3.7,1.4,2.1,3.2.4,1.4-.2H210a3.3,3.3,0,0,0,1.6-.7c2-.5,1-2.1,1.3-3.2h8.8v13.4h-9.3v2.8l-3.2.4-.5,3.5-2,.3-.2,2.8-3.1.3v9.7l-2.3.3-.3,3Zm-.3-23.4h16.7v-2.9H191.9Z" transform="translate(-143.2 -193.7)"/><path class="cls-5" d="M300.3,379.8c0,2.5-.1,4.9-.1,7.4h-5.9c-.1-7.2-.2-14.4-.2-21.5v-9.2h6.1v3.8H304v8.1h2.3v4.1h2v-4l2.5-.2v-8.1h4c.1-1.3.1-2.5.2-3.8h6.2V387l-6.2.2v-7.4h-4.7v3.5h-5.7v-3.5Z" transform="translate(-143.2 -193.7)"/><path class="cls-8" d="M291.7,409.9h22v5l-9.6.2-11.1.2-.5.3v16.8l1.1.7,1.4-3.2h-1.5v-9.6h.2l.5,1.5.8-1.7.3.9v1.9h0v2.3h.1c-.3.1-.2.1-.1,0h.1l-1.5.7.4,2.3h1v4.8h.2v1l-1.7,2a6.3,6.3,0,0,0,1.4,0c1.9-.8,3.7.1,5.5.2a1,1,0,0,1,.1.4h-5.3v4.9l.3,1.4H301V444h-.3v1.4h-4.3a4.1,4.1,0,0,0-1.1.7h-.1a.4.4,0,0,0,.1.3v.6c0,.7-.1,1.4-.1,2.2v1.8h5.6v-3.7l.4,2.5,2.4,1.3h5.7v-1.6c.1-1.4.1-2.8.2-4.2h.3v4.5h2.5c0-1.5.1-2.8.2-4h.3c.2,1.4.3,2.7.4,4.1v.7h2.8c.3.4.7.7.8,1.1a19,19,0,0,1,.3,2.5h3.6c0,.8.1,1.5.1,2.3v3.5h3.4c.1,1.2.2,2.3.2,3.5l3.6.2.2.5c-.1,2-.1,4-.1,6h-7c0-1.4-.1-2.7-.1-3.9l-3.3-.3c-.1-1.3-.2-2.6-.2-3.8l-3.3-.3-.2-4h-3.8l-.3-3H294.7l-.3,3.2-3.5.3-.2,3.6-3.5.2-.3,4.1-3.2.3-.3,3.3-6.8.3v-6.6h3.8V460h3.5c.1-1.5.1-2.7.2-3.9v-1.8h3.7l.3-3.4,3.5-.3Zm4.1,34.8,4.2.3v-.7l-4.1-.5c0,.2-.1.5-.1.9h0Zm-1.7-.4c.2-1.7.3-3,.4-4.2h-.7c-1,.7-.4,2-.5,3.1S293.8,443.7,294.1,444.3Zm.3-20.5.5-.2-.4-1.2H294Zm-.3,5.1h0v.2h.1Zm0,5.6h0Zm.6,10.6v-.2h-.1Z" transform="translate(-143.2 -193.7)"/><path class="cls-9" d="M358.7,451.1h-5.1v-3.8h-3.2v-15l-3.9-.2v-3.7h-3.4v-3.6h-2.5a5,5,0,0,1-1.3-.4c.2-1.3.7-2.7-.3-3.5s.3-1.8.5-2.6l3.1-.3v3.7h7.1l.2-3.4,2.3.9.3-.3c1,2,.3,4.1.4,6.1h-2.4v3.7h13.4a6.3,6.3,0,0,1-.2,1.6c0,.7-.1,1.4-.1,2.2h-6.7V436h3.6c0,1.1,0,2.2-.1,3.3l-2.7.5-.4.2a15.5,15.5,0,0,0-.5,2.3c0,1.6.1,3.3.1,5.2,2.6-.3,4.9.3,7.2-.4l.2-3.2,1.9-.4h.6a14.8,14.8,0,0,0,.1,2.1,9.4,9.4,0,0,0,.6,1.5.1.1,0,0,0,.1.1h2.3l.3-.2h0V444l-3.1-.9a1.3,1.3,0,0,1,.1-.6l.6-2.7h2.7v3.6l3.1.2V432.4h-3.7c.2-1.2.4-2.3.6-3.6h6.3c.1,1.2.2,2.2.3,3.2h3.2v-6.7l3.5-.2v3.7l3-.2V425h-3.1c.1-1.2.1-2.4.1-3.6l6.5.3c.1,1.2.2,2.3.4,3.5h0v3.1h0c-.1,1.8-.1,3.6-.3,5.4a5.5,5.5,0,0,1-.6,1.8H384c-1.2,0-2.4.2-3.5.3l-.3,4-3,.2v7.6h-3.3V451H358.7Z" transform="translate(-143.2 -193.7)"/><path class="cls-10" d="M414.2,400.3H382.5a10.2,10.2,0,0,1-.6-2.5c-.1-16-.1-32.1-.1-48.1l2.7-.2v19.1h4.6V352.7h3.4v15.8h5.1V352.8h1.3v2.5l1,.6v9.9h2.3v-5.9c-.1,2.3-.1,4.5-.1,6.7a9.5,9.5,0,0,0,.5,2.3h2.5l.6.7v-2.2l3.1.4.6.7h0c.7,1.2,1.6.7,2.5.4h.1l.2-.4h0a7.6,7.6,0,0,0,.3-1.6V352.4l.3-1.8h2.3c0,3.9-.1,7.9,0,11.9,0,2.4.2,4.8.2,7.2s-.2,3.4-.1,5c.1,3.3.3,6.6.4,10v3.8c-.1,2.2-.3,4.3-.4,6.5s.1,3,.2,4.3Zm-1.9-27.6-1.6-.2h-26v24.7h27.6a7.6,7.6,0,0,0,.3-1.6V374.4A10.1,10.1,0,0,0,412.3,372.7Z" transform="translate(-143.2 -193.7)"/><path class="cls-5" d="M286.8,348V318.3h18.7v4.2h4.3v22.4h-4.3v2.8a44,44,0,0,1-5.1.5c-3.9.1-7.7,0-11.6,0Zm7.1-20.5v14.1h9.3V327.2h-3.6v-2.7h-5.7Z" transform="translate(-143.2 -193.7)"/><path class="cls-9" d="M374.1,265l-.2-3.2h-3l-.2-3.1h-3.2l-.3-2.9H364v-3.2h-3.4v-3.4h6.9v3.3h2.6l.3-.9c0,.3.1.6.1.9a5.7,5.7,0,0,1,.1,1.3v1.9l3.3.3c0,1,.1,1.7.1,2.4h3.5l3.1.8v2.7c-.2,1-.3,2-.5,3.2h7.1l.3.2c.1,1.1.1,2.1.2,3.1l2.7.3.3,2.6c1.2.2,2.3.9,3.3-.2l3.3.5v5.7l-3.2.2c0,.9-.1,1.8-.2,2.9h-3c0-.9.1-1.9.1-2.9l2.9-.2v-2.7h-3.1l-.6,2.8h-2.5a24.6,24.6,0,0,1-.2-2.8l-3.2-.4-.3-2.7-3.6-.2c-.1.8-.2,1.8-.3,2.9l-3,.2-.3,2.9-3.1.2c-.1.9-.1,1.8-.2,2.9l-3.2.2a30.3,30.3,0,0,0-.2,3.1H367l-.3,3.1h-2.9c-.1,1.1-.2,2-.3,3.2h-2.7l-.3,2.8-1.6.3h0l-5.6-.3c.1,1.1.2,1.9.3,2.6l2,.3-.2,2.9-3,.2-.2,2.7-2.9,1.1v2.7l-3.3.2-.2,3.3h-6.1v-3.4h3.2v-3.3H346V299h3.8v-3.4l.9-2.3,1.8-.8h.4c.3-.9.5-1.8.8-2.7l2.8-.4.6-2.6h3c.1-1.1.3-2.2.4-3.3l3-.2.2-2.7,3.2-.2.3-2.9,3.2-.3-.5-2.3v-.5l.6-.2h3v-5.7l3.6-.3v-3Z" transform="translate(-143.2 -193.7)"/><path class="cls-5" d="M345.4,348.2v-3.3h-4.8V322.6h4.7v-4.2h15.3v4.1h4.5v22.4h-4.3c-.1,1-.1,2-.2,3l-1.4.3H345.4Zm12.8-20.6-.2-3.1h-9.9l-.5,2.9v14.2h10.6Z" transform="translate(-143.2 -193.7)"/><path class="cls-5" d="M237.1,324.4v-6.1h6.4a4.3,4.3,0,0,1,.5,1.6,24.2,24.2,0,0,1,0,2.7h3.7v10.7l2.6.2v4.8h5.9v-4.9h2.4V322.7h3.2v-4.3h7.6v5.9h-3.2v3.2c-.1.3-.1.6-.2.8v5.8h-3.1v7.2l-1.5.4v3.1h-4v3.4H249v-3.3h-4.2v-3.2l-1.3-.5v-7l-2.8-.2v-5.5a3.8,3.8,0,0,0-.1-1h0v-3h-3.4Z" transform="translate(-143.2 -193.7)"/><path class="cls-5" d="M264.4,387.2V372.8h3.2v-9.2h3.1v-3.7h3.1v-3.5h6.6v3.5h2.7v3.7h2.9v9.1h2.5v14.3l-6.7-.2v-3.8h-11c-.1,1.4-.1,2.7-.2,4.1Zm14.5-21.1.3-3H274l.2,3V371h-3v5.6h10.4v-5.6l-2.7-.2Z" transform="translate(-143.2 -193.7)"/><path class="cls-5" d="M258.6,361.9v.8a5.6,5.6,0,0,1-1.2.4l-9.1-.2h-4.5c.1,1.3.1,2.3.2,3.3v14.3h8.4l.2-2.1h-4.2v-5.5h10.3v14.3H240.8v-3.2a9.5,9.5,0,0,1-2.3.1,8.3,8.3,0,0,1-1.5-.4v-1.2h0V359.9h3.9v-3.4h13.6c0,1.1.1,2.1.1,3.3a26.1,26.1,0,0,1,2.8,0c.4,0,.8.4,1.1.6S258.6,361.4,258.6,361.9Z" transform="translate(-143.2 -193.7)"/><path class="cls-5" d="M315.6,348.2V318.3h19.6v6H322.6v5.9h9.6V337h-9.6v4.6l.3.3,11.2-.2h.7l.5.3v4.7a.1.1,0,0,0-.1.1.3.3,0,0,1,.1.2v.6l-.9.3c-1.7.2-3.4.2-5.1.3Z" transform="translate(-143.2 -193.7)"/><path class="cls-5" d="M199.4,418.6V414l1.3-.2h74.1l2.1.2h0c0,1.5,0,3-.1,4.6H248.4v3.1H228.9l-.3-3.1H199.4Z" transform="translate(-143.2 -193.7)"/><path class="cls-5" d="M353.9,374.5v-2.6H350v-12h3.6v-3.4h13.1v3.3h3.4V363H356.8v5.5H367v4.2h3.2v11.1l-3.2.2v2.4h-.1c0,.2-.1.4-.1.6H351.6a5.9,5.9,0,0,1-1.7-.4v-6h13.4c.1-.5.1-.8.2-1.1v-4.4h-1.7c-2.2,0-4.4.1-6.7,0C354.7,375.2,354.3,374.8,353.9,374.5Z" transform="translate(-143.2 -193.7)"/><path class="cls-5" d="M326.6,387.2V356.5h18.2V363H333.5v5.7h8.7v6.4h-8.7v5.4h11.3v6.7Z" transform="translate(-143.2 -193.7)"/><path class="cls-11" d="M281.9,266.9v-9.1l.7-.6V257h-.6V250l1-.6-1.1-.4v-1.3l1.1-.9-.3-.4h-.9v-3.4l.9.9,1.8-1.1h9.2v9.3a6.9,6.9,0,0,0-.2-1.3H283.3v1.5h10.3V254H283.2v1.7h10.4v8.4H283.2v1.6h10.4l-.6.7c1.6,1.8.8,3.8.7,5.7V271H283.3v1.5h10.3c0,3.3.1,6.5.1,9.8V281H283.2v1.5h10.3c0,.4.2.7.2,1.1a14.9,14.9,0,0,1-.2,2.1v-1.4H283.2v1.4h10.4v10.7a64.7,64.7,0,0,1-11.7.3c0-2,0-4.1-.1-6.2l.4,2.6a6.1,6.1,0,0,0,.4-2.6c0-.4-.5-.7-.7-1v-1.8h.8v-.3l-.8-.4c0-2,.1-3.9.1-5.9l.3,1.9.6-.2-.9-2.4v-2.5l.8-.5-.9-1.1c0-2.8.1-5.6.1-8.4a4.1,4.1,0,0,1,1.1-.7v-.3Zm5.5-9.2h-3.2c-.3.1-.6.5-1,.7s.4.7.6.7h9.7v-1.5h-6.1Zm5.3-13.6h-9.5v1.5h10.3v-1.6Zm-8.8,4.9h9.6v-1.4H284l-.8.7Zm-.8,26.8h10.5v-1.5H283.1Zm10.4,16.6v-1.5H283.2v1.5Zm-10.3-30h10.4V261H283.2Zm.1,33.3h10.4l-.2-1.5H283.3Zm-.1-16.6h10.3v-1.4H283.3Zm10.5-11.3H283.2v1.3h10.2ZM283.2,289h10.3v-1.4H283.2Zm-.6-17.7h-.3v.8h.2Zm.1-17.6.3.2h.1l-.2-.2Z" transform="translate(-143.2 -193.7)"/><path class="cls-12" d="M415.7,388.5v-3.8c0-10.3,0-20.5.1-30.7,0-1,.4-2,.4-3.1a4.4,4.4,0,0,0-.5-1.5v-.6h3.9l2.9.5c.1,4.2.2,8.4.2,12.5v38.4h-6.5a8.7,8.7,0,0,1-.5-2.2C415.7,394.9,415.7,391.7,415.7,388.5Z" transform="translate(-143.2 -193.7)"/><path class="cls-13" d="M192.2,383.4h8.6l.3-3,2.3-.3v-9.7l3.1-.3.2-2.8,2-.3.5-3.5,3.2-.4v-2.8h9.3V350.1l3.6.5v12.9l-3.4.2-.2,5.5h-5.6v4.5h-3.5v4.9l-3.5.2-.3,4.8h-4.5l-.3,3.8h-5.6v-3.7c-1.7,0-3.2.1-4.8,0Z" transform="translate(-143.2 -193.7)"/><path class="cls-6" d="M276.6,470.4l6.8-.3.3-3.3,3.2-.3.3-4.1,3.5-.2.2-3.6,3.5-.3.3-3.2h15.7l.3,3h3.8l.2,4,3.3.3c0,1.2.1,2.5.2,3.8l3.3.3c0,1.2.1,2.5.1,3.9h7v3.5H318.1v-3.7h-3.5v-3.7h-3.7v-4.3h-3.7c-.1-1.1-.2-2.2-.2-3.4h-9v3.5h-3.7v4.3h-3.6v3.8h-3.9v3.6H276.6Z" transform="translate(-143.2 -193.7)"/><path class="cls-10" d="M203.1,454a24.4,24.4,0,0,0-.1-2.7,6,6,0,0,1,2.2-.6h66.7a4.7,4.7,0,0,1,1.6.4,19.3,19.3,0,0,1-.1,2.4c0,.2-.3.4-.5.6s-.4-.3-.6-.3h-67a9.8,9.8,0,0,1-2.2-.5Z" transform="translate(-143.2 -193.7)"/><path class="cls-5" d="M274.1,318.4h7l.2.3v28.8l-7.2.4v-3.1c0-3.1.1-6.1.1-9.1s-.1-7.8-.1-11.6v-5.7Z" transform="translate(-143.2 -193.7)"/><path class="cls-7" d="M380.9,331.7l-4.1-.2v-7.1H381v3.2h3v-3.3h4.2l-.3,3.4,3.2-.3v-3.1h24.3v7.3H412c.1-1.2.2-2.4.2-3.7h-.4c-.1,0-.1-.1-.2-.2h-.2c-.2-.1-.4-.3-.6-.3H399.1l-.8,1,.6,2.8h-9a5.3,5.3,0,0,0-1.7.4c-.1,1-.1,2-.2,3.1h-3.7v-3.4Z" transform="translate(-143.2 -193.7)"/><path class="cls-13" d="M415.4,331.8v-7.3c.7,1.7,2.4.8,3.7,1.3l.3,3.4,3.3.2v5.7h-3.3l-.3,4H384v-4l.3-.2H388l.8.2h26.6Z" transform="translate(-143.2 -193.7)"/><path class="cls-10" d="M248.4,421.7v-3.1h28.4c.1,5.8.1,11.7.2,17.5v14.5h-1.9l-1.2-.2-.2-2.1V421.8H248.4Z" transform="translate(-143.2 -193.7)"/><path class="cls-13" d="M231.7,264.7c-1,1.4-1.9.1-3,.1l-.2-2.3-3.7-.9v-6.3l-1.5-.3H215l-1.5.3h0c-1.2.8-.5,1.8-.4,2.7l2.8.2.3,2.8h3.6v3.7h-.3c0-1.1-.1-2.3-.1-3.5l-3.7.3h-3V265l3-.4,3.8.2v9.1h-.3v-8.3h-6.3l-.2,2.2-6,.7a10.1,10.1,0,0,0,.4,6.4,4.6,4.6,0,0,0-.7.7l-.4-.7v8.7a22.7,22.7,0,0,1-.6,2.5h-5.6V267.9h9.9v-6.1l3-.3v-6.8h12.6c.6,2.3-.4,4.7.6,6.8h2.7c.1.9.3,1.7.4,2.8Z" transform="translate(-143.2 -193.7)"/><path class="cls-10" d="M203.4,418.7h25.2c.1,1,.1,2.1.1,3.1H202.6c0,.6-.1,1-.1,1.4v24.1a2.9,2.9,0,0,0,.2.9v.2c-.8.7-.8,1.4,0,2v.4l-3.4-.4.3-.5V421c0-.7.1-1.3.1-1.9Z" transform="translate(-143.2 -193.7)"/><path class="cls-14" d="M291.7,409.9v40.8l-3.5.3-.3,3.4h-1.5l-1.2-.8c-.6-.6.8-2.2-1-2.3l3.8-.6V409.9Z" transform="translate(-143.2 -193.7)"/><path class="cls-12" d="M313.7,414.8v-5h3.8v41h3.7v3.6h-3.6a19,19,0,0,0-.3-2.5c-.1-.4-.5-.7-.8-1.1h-2.8a1.7,1.7,0,0,0-.1-.7C313.6,438.3,313.7,426.5,313.7,414.8Zm7.2,36.3-3,.2v2.4h3Z" transform="translate(-143.2 -193.7)"/><path class="cls-15" d="M280.5,304.3h46.7c.2.8.5,1.7.8,2.8H277.9v-2.7Z" transform="translate(-143.2 -193.7)"/><path class="cls-5" d="M380.3,425.2v6.7h-3.2c-.1-1-.2-2-.3-3.2h-6.3c-.2,1.3-.4,2.4-.6,3.6H364l-.3-2.1.2-1.6H350.5v-3.7h29l.8.2Z" transform="translate(-143.2 -193.7)"/><path class="cls-16" d="M208.6,321.5l-3.6.2-.2,3.3-3,.3-.3,3.3h-3.2v-3.3l3.3-.2v-3.4l2.9-.2V310h-5.7v3.1h-5v-3.2h4.8l.2-4.2h5.3l.2,4.2h4.3Zm-5.7,3.4h.6l.8-2.4H202Z" transform="translate(-143.2 -193.7)"/><path class="cls-10" d="M238.4,397.6h.8c0,.1,0,.1.1.2s.1,1.2.1,1.8V404h27.8v2.5H239.5V411h-2.9c-.2-1.4-.3-2.7-.4-4.1v-2.7c.1-2.1.3-4.2.4-6.3l1.2-.3h.7Z" transform="translate(-143.2 -193.7)"/><path class="cls-11" d="M402.4,302c.1.2.2.4.1.5l-1.6,1.1.3,1.1c-.9,1.5-2.1,2.1-3.7,1.5h-30c-1.1-1.5-.9-2.9.3-4.5l.9-1.3,7.3-.2h23.6l.5,1.7Zm-2.7.7H367.9v2.8h31.8Z" transform="translate(-143.2 -193.7)"/><path class="cls-17" d="M346.4,421.6h-3.8v-6.7h3.7v-3l-3.4.8c-.4-.8-.7-1.6-1-2.3h-6.1v3.9l3.4.7.3,3.3c-.2.8-.3,1.6-.5,2.6s.5,2.2.3,3.5l-.3-2.9h-3.5V404.7l3.5-.2.2.2v4.5l6.5-.3V405l.3,3.4c.1.7.2,1.4.3,2.3l3.5.2v5.8c-.1-.6-.3-1.2-.5-2l-2.9.5v6.4Z" transform="translate(-143.2 -193.7)"/><path class="cls-18" d="M383.8,421.5c0,1.1,0,2.3-.1,3.5h.1l-3.5.2h0l-.6-.3.6-1.7.5,1.7c1.6-.3,1-1.4,1-2.2a20.9,20.9,0,0,0,.1-2.4l1.7-2.6,2.4-.5c.9-2.3-.7-5.1,1.4-7.3h3.8l.7.4,1.3-.6,1.2.9v2.5c.9.8,2.7-.1,3,1.7h-3.3v9.9h2.4c-.6.7-1.2,1.3-1.7,2l-.5-.3c-.3,2.7-.6,5.4-.8,8.1h-.4v-5.3h-1.7v6.4a8.6,8.6,0,0,1-1.5.5c-.7.1-1.5-.1-2.2,0l-6.4.6a16.8,16.8,0,0,0-.2,2v19.4c0,.4-.4.8-.6,1.2,0-3.1-.1-6.3-.1-9.4V435.9c1.1-.1,2.3-.3,3.5-.3h5.7c1,.3.9-.5.9-1.1v-6.1h3.1v-3.1h-3c-.1-1.6-.1-3.1-.1-4.7v-1.9l.2-4,3.3-.3c0-1.1-.1-2.1-.2-3.3h-3.5l-.4-.2h-2.9v7.3h-3.3Zm-1.1,1.5h.3l.3-3.1h-.6Z" transform="translate(-143.2 -193.7)"/><path class="cls-18" d="M325.7,404.8l.4,4.8,2.4.7,1.2-.3v8.1a13.3,13.3,0,0,0,.5,1.9c0,.3.2.7.1.9-1.1,2,.2,3.9.1,5.9-.3,4.5-.6,9-.6,13.5-.1,2.1.3,4.3.4,6.4l2.3.2.9.8.2,1.9,1.8,1-2,.3h-.3l-.2.7v.9l-1-1.2h-2.4l-.7-1.4.4-1.5-2.4-.3-.8-1V411l-2.6.6-1.8-.9.6-2.3c-1.1-1.8-1.6-2.1-3.6-1.3l-1.4-1.4c.2-1.5.4-3,.5-4.8l-3.2.3h-7.3c0,1.8.1,3.6,0,5.3s-.4.9-.6,1.4v-7l-3.1.2v-1l2.3.3.2-2.8c.7-1.2,1.8-1.2,2.9-.8a10,10,0,0,0,6.4,0,4.7,4.7,0,0,1,1.7-.2l1.4,1.4.2,2.3,2.9.2.7.7.2,2.2,2.7.2.7,1.2-4.1-.2-.3-3.6h-3.1v5.2h4.1l.3,4.6,3.1-.3Zm3.7,42.4v3.4h3.5l-.3-3.3h-3.2v-35a5.9,5.9,0,0,0-.2-1.3h-2.6v36.3Zm-22.9-46.7h11.2a24.6,24.6,0,0,0-.2-2.8h-11Z" transform="translate(-143.2 -193.7)"/><path class="cls-5" d="M415.8,348.8v.6H384.5l-2.7.2-.5-.2v-2.7l.5-.2h34.3Z" transform="translate(-143.2 -193.7)"/><path class="cls-7" d="M376.8,460a.4.4,0,0,1,.1.3l-.7,2.1H339.9V460Z" transform="translate(-143.2 -193.7)"/><path class="cls-10" d="M367.9,311.2v-2.5h31.7v2.5Z" transform="translate(-143.2 -193.7)"/><path class="cls-9" d="M390.4,249.1l.3,3.3,3.1.2v2.9h-3.2v6.4h-3.1l-3.8-.4v-2.4c.1-.1.1-.1.1-.2s.3-2.1.5-3.4H381v-3.2h3.1l.4,3.1h2.4l.6-3.3h2.9Z" transform="translate(-143.2 -193.7)"/><path class="cls-15" d="M402.4,302h-2.3l-.5-1.7H376l-7.3.2a10.6,10.6,0,0,1-1.1-1.9l1.7-.3h33.3v2.8a1.5,1.5,0,0,0-.1.7Z" transform="translate(-143.2 -193.7)"/><path class="cls-10" d="M357.1,411.8v-2.6H380v2.6Z" transform="translate(-143.2 -193.7)"/><path class="cls-14" d="M216,333v2.7h-3.3l-.2,3.3h-3.4v-3.5h-4.8v-6H209l.2,3.5Z" transform="translate(-143.2 -193.7)"/><path class="cls-10" d="M240.8,387.1h17.9v3.3H240.8Z" transform="translate(-143.2 -193.7)"/><path class="cls-13" d="M376.8,460H339.9v2.4h36.3l.7-2.1c.1.8.2,1.6.3,2.6H339.6a30.3,30.3,0,0,1-.2-3.1h-3.1v-5.3l-3.2-.7a.1.1,0,0,0,.1-.1H336v-2.6l-2.5-.2,2-.3,1.5,2.6-.3.3,3.1.4v5.7h35.5A9.4,9.4,0,0,1,376.8,460Zm-40-5.9v5.2h2.7l-.3-5.2Z" transform="translate(-143.2 -193.7)"/><path class="cls-18" d="M422.7,335.1v-5.7l-3.3-.2-.3-3.4c-1.3-.5-3,.4-3.7-1.3H376.8c.2-.4.3-.8.5-1.3,2.7,0,5.5-.4,8,.2s3.7-.1,5.6-.1c7.8-.2,15.6-.1,23.5-.1l1.8.3.3,1.4,2.9.2c.1,1.1.2,2,.2,2.8l.4.3c3,.3,3,.3,3.3,3.5.2,1,.5,2,.8,3.2Z" transform="translate(-143.2 -193.7)"/><path class="cls-15" d="M402.4,315.2H368l-.2-1.5h31.8l.4-1.9,2.4.3Z" transform="translate(-143.2 -193.7)"/><path class="cls-10" d="M349.9,386.7a5.9,5.9,0,0,0,1.7.4h15.2c0,1.1.1,2.2.2,3.4H349.9Z" transform="translate(-143.2 -193.7)"/><path class="cls-5" d="M185.2,360.1H179v-9.7h3.1v-3.4h2.3l.7.2-.3,6.1-2.6.2v3.7h2.9Z" transform="translate(-143.2 -193.7)"/><path class="cls-5" d="M383.8,290.2v-2.5H406v2.5Z" transform="translate(-143.2 -193.7)"/><path class="cls-8" d="M235.2,394.3v2.5H216v-2.5Z" transform="translate(-143.2 -193.7)"/><path class="cls-5" d="M188.7,400.1v-2.5h20v2.5Z" transform="translate(-143.2 -193.7)"/><path class="cls-17" d="M358.7,451.1h15v3.3h-15Z" transform="translate(-143.2 -193.7)"/><path class="cls-13" d="M249.4,282.7l2.5-.4h2V272.1l-1.1-1.5h4.3V286h-3.4v-3.1Z" transform="translate(-143.2 -193.7)"/><path class="cls-8" d="M236.1,404.2v2.5h-20v-2.4Z" transform="translate(-143.2 -193.7)"/><path class="cls-14" d="M197.1,332v3.5h-5.3l-.2,3.6h-3.5v-3.3h-3.3V333c1.9,0,3.7.1,5.6,0a8.3,8.3,0,0,0,1.5-.4h2.9Z" transform="translate(-143.2 -193.7)"/><path class="cls-16" d="M182.2,346.9v3.4H179v9.7c-.2-.2-.6-.5-.6-.7-.1-1.8,0-3.5-.1-5.2s-.1-2.1-.2-3.5l-2.2.7v11.8l3.6.2.8,4.9h4.9v3.8c.9,1.8,3-.4,3.2,1.8l-4-.2v-4.5h-5.3v-5.4l-3.8-.2V350.4l3.6-.2v-3.6Z" transform="translate(-143.2 -193.7)"/><path class="cls-15" d="M267.2,406.6v-2.5h18.5v2.5Z" transform="translate(-143.2 -193.7)"/><path class="cls-5" d="M206.4,275.6a2.7,2.7,0,0,1,.7-.8l2.1.3v7.6h3l.4.4v2.7l-.4.3h-5.6l-.3-1.7v-8.7Z" transform="translate(-143.2 -193.7)"/><path class="cls-17" d="M200,329.8h2.5v18.4l-.5,1.1h-1.9a10.8,10.8,0,0,0,.3-1.9c0-3.6,0-7.2-.1-10.9,0-2.1-.1-4.2-.1-6.4Z" transform="translate(-143.2 -193.7)"/><path class="cls-14" d="M356.8,366.1V363h13.3v3.1Z" transform="translate(-143.2 -193.7)"/><path class="cls-14" d="M322.6,327.6v-3.3h12.6v3.2H322.6Z" transform="translate(-143.2 -193.7)"/><path class="cls-10" d="M228.6,326.8H216.2v-2.4h9.5l.2-3.1h2.7Z" transform="translate(-143.2 -193.7)"/><path class="cls-16" d="M303.4,401.1l3.1-.2v7l-4.6.2h-3.7v-3.1h5.2Z" transform="translate(-143.2 -193.7)"/><path class="cls-10" d="M298.7,475.1v-4.8l2.8.4v3.2l2.1-.2v-3h.1l2.8-.3h0v5.9l-2.5.2h-5.1A5.9,5.9,0,0,1,298.7,475.1Z" transform="translate(-143.2 -193.7)"/><path class="cls-13" d="M212.2,286l.4-.3c0,1.2,0,2.4.1,3.5v3.4l2.9-.3.4.2v2.8l3.5.3a19.3,19.3,0,0,0,.1,2.4c0,1.6.1,3.3.2,5a3.7,3.7,0,0,1-.4-1.4c-.1-1.8-.1-3.7-.1-5.8h-9.6c.1-2.6.2-4.9.3-7.3C210.7,287.6,212.5,287.7,212.2,286Z" transform="translate(-143.2 -193.7)"/><path class="cls-5" d="M416.1,419.3v2.4H401.4v-2.4Z" transform="translate(-143.2 -193.7)"/><path class="cls-19" d="M370,274.7l.5,2.3-3.2.3-.3,2.9-3.2.2-.2,2.7-3,.2c-.1,1.1-.3,2.2-.4,3.3h-3l-.6,2.6h-.5v-2.5l3.5-.8.9-5.4v-.6h3.4l-.8-1.2.8-.2-.3-1,.3-.2a2.2,2.2,0,0,0,2.7-.7l.8-1.7H369l.8,1.2Z" transform="translate(-143.2 -193.7)"/><path class="cls-10" d="M345.7,348.3h13.5l1.5,1.2-1.2,1.4H345.4v-.7l.7-.3-.6-.3v-.9Z" transform="translate(-143.2 -193.7)"/><path class="cls-12" d="M282,302.8l-.2-2.6c1.7,0,3.2.1,4.8,0s4.3,0,6.5-.2,1.6,1.1,1.8,2.1-.1.4-.1.6Z" transform="translate(-143.2 -193.7)"/><path class="cls-14" d="M333.5,366.1V363h11.3c.1.9.1,1.9.2,3.1Z" transform="translate(-143.2 -193.7)"/><path class="cls-18" d="M326.5,242.4c-.1,1.5-.2,3.1-.2,4.6,0,6.8,0,13.5-.1,20.2a8.8,8.8,0,0,1-.2-1.6c-.1-2.9,0-5.8,0-8.6V244.4l-1-1.2v-3c-.1.1-.2,0-.2-.1v-1.2l1.6.5v-.2h2.4l4.3-.2c.8,1,1.4,1.8.8,3.1a9.5,9.5,0,0,0-.2,2.9v43.3a12.5,12.5,0,0,1-.3,1.9V264.6c-.1-7.5-.1-15-.1-22.5a12.1,12.1,0,0,0-.1-1.9h-6.5Z" transform="translate(-143.2 -193.7)"/><path class="cls-13" d="M245.5,259.3l-.9-.8-2.6-.2-.4-3.2h-5.4l-.2,3,2.8.3v3.1h-5.7l-.2,3-1.1.2a12.7,12.7,0,0,0,.6-1.8c.1-1.6,0-3.1,0-4.8l3.1-.3.2-3.1h6.4l.3,3.1h5.3l1.6.3-3.7.3Z" transform="translate(-143.2 -193.7)"/><path class="cls-12" d="M298,462.2v-3.5h9c0,1.2.1,2.3.2,3.4Z" transform="translate(-143.2 -193.7)"/><path class="cls-16" d="M185.2,357.1h-2.9v-3.7l2.6-.2.3-6.1,3.1-.2h0l.2,3.2h23.1a3.3,3.3,0,0,1-1.6.7H192.7l-1.4.2-3.2-.4-1.4-2.1,1.3-.7-2-.2V353l-1.5,1.2V354l-1.7.8v.6l1.8,1Z" transform="translate(-143.2 -193.7)"/><path class="cls-8" d="M360.5,280.4l-.9,5.4-3.5.8v2.5h-.6a1.3,1.3,0,0,0-1.9-.9v-1.3l.2-3.1,3.2-.2.3-2.9Z" transform="translate(-143.2 -193.7)"/><path class="cls-8" d="M342.9,301.8v3.3h-3.2l-2.3.5v2.5l1.7.4h-2.4l.6-6.2h1.9l.7-.5.7-2.4h2.6Z" transform="translate(-143.2 -193.7)"/><path class="cls-9" d="M345.7,405v3.9l-6.5.3v-4.5l3.1-.3Z" transform="translate(-143.2 -193.7)"/><path class="cls-5" d="M353,271v2.4H342.6V271Z" transform="translate(-143.2 -193.7)"/><path class="cls-5" d="M245.6,302.8v-6.9h2.1l1.7.5v6.6Z" transform="translate(-143.2 -193.7)"/><path class="cls-8" d="M410.9,438v2.5h-9.7V438Z" transform="translate(-143.2 -193.7)"/><path class="cls-14" d="M328.5,463.9l-3.6-.2c0-1.2-.1-2.3-.2-3.5h-3.4v-3.5h3.5l.3,3.6h3.6v3.5Z" transform="translate(-143.2 -193.7)"/><path class="cls-9" d="M396.6,424.9h-2.4v-9.9h2.7v9.9Z" transform="translate(-143.2 -193.7)"/><path class="cls-13" d="M225.5,295.5h6.7l.3-3h6v3.6h-5.7v2.7l3.1.2v3.9q-.3-1.6-.6-3.6h-2.9v-3.6l-7,.5Z" transform="translate(-143.2 -193.7)"/><path class="cls-14" d="M286.8,348l2,.2c3.9,0,7.7.1,11.6,0a44,44,0,0,0,5.1-.5v3.4H286.8Zm18.6,1H287.8l-1,1.6h17.7Z" transform="translate(-143.2 -193.7)"/><path class="cls-14" d="M381.3,349.5l.5.2c0,16,0,32.1.1,48.1a10.2,10.2,0,0,0,.6,2.5h-1.2V364.6a7.7,7.7,0,0,0,.2-1.5V351.2c0-.5-.2-.9-.2-1.4Z" transform="translate(-143.2 -193.7)"/><path class="cls-14" d="M315.6,348.2h19.7v2.9H315.5Zm19,.8H316v1.7h18.6c.1-.4.3-.6.3-.8A3.2,3.2,0,0,0,334.6,349Z" transform="translate(-143.2 -193.7)"/><path class="cls-13" d="M380.5,450v9.4h-.3v-6.7l-1.2-1-1.6.8v6.8a27,27,0,0,1-.4-2.8V451h-3.3v-.4c.3-.7.5-1.5.8-2.3l2.5-.6v-.2h2.4C380,448.5,380.2,449.2,380.5,450Z" transform="translate(-143.2 -193.7)"/><path class="cls-14" d="M249,348.2h8.4v3H249Z" transform="translate(-143.2 -193.7)"/><path class="cls-8" d="M224.9,383.5v2.6h-8.8v-2.6Z" transform="translate(-143.2 -193.7)"/><path class="cls-14" d="M353.9,374.5c.4.3.8.7,1.2.7,2.3.1,4.5,0,6.7,0h1.7v3.1a4.3,4.3,0,0,0-1.6-.5h-8Z" transform="translate(-143.2 -193.7)"/><path class="cls-5" d="M413.4,308.2h-3.1c-.3-.8-.6-1.5-.8-2.2h.4l-1,2.6h-2.2v-4.1h3.1l3.8.2C413.5,305.9,413.5,307.1,413.4,308.2Z" transform="translate(-143.2 -193.7)"/><path class="cls-9" d="M200.2,330c0,2.2.1,4.3.1,6.4.1,3.7.1,7.3.1,10.9a10.8,10.8,0,0,1-.3,1.9l-1.8-.6c.1-.4.1-.8.2-1.1s.5-.7.5-1.1c.1-5.1.1-10.2.1-15.4Z" transform="translate(-143.2 -193.7)"/><path class="cls-14" d="M281.9,386.9l6.7.2v3.5h-6.7Z" transform="translate(-143.2 -193.7)"/><path class="cls-14" d="M244,366.2c-.1-1-.1-2-.2-3.3h4.5l9.1.2a5.6,5.6,0,0,0,1.2-.4v3.5Zm1-.4h11a9,9,0,0,0,2.4-1.2l-.2-.7H244.9Z" transform="translate(-143.2 -193.7)"/><path class="cls-14" d="M202.8,450.7v-.4h70.7v-1.8h.1l.2,2.1,1.2.2-1.6.4a4.7,4.7,0,0,0-1.6-.4H205.2a6,6,0,0,0-2.2.6A1.4,1.4,0,0,0,202.8,450.7Z" transform="translate(-143.2 -193.7)"/><path class="cls-5" d="M245.6,286.1h3.7v5.6a4.6,4.6,0,0,1-.7.7l-3.2-.2h0v-6.2Z" transform="translate(-143.2 -193.7)"/><path class="cls-8" d="M281.7,242.4l-9.1.3V240h9c.1.6.1,1.2.2,1.7Z" transform="translate(-143.2 -193.7)"/><path class="cls-9" d="M245.5,259.3a2.8,2.8,0,0,0,.1-.9l3.7.6v5.7h-3.8v-5.4Z" transform="translate(-143.2 -193.7)"/><path class="cls-17" d="M383.7,261.5l3.8.4c-.1,1-.1,2-.2,3.1h-7.1c.2-1.2.3-2.2.5-3.2Z" transform="translate(-143.2 -193.7)"/><path class="cls-6" d="M283.3,242.2v-1.9h10.2v1.9Z" transform="translate(-143.2 -193.7)"/><path class="cls-19" d="M394.1,271c-1,1.1-2.1.4-3.3.2l-.3-2.6-2.7-.3c-.1-1-.1-2-.2-3.1l2.9-.2.3,3.2h3.3Z" transform="translate(-143.2 -193.7)"/><path class="cls-17" d="M349.3,302.5l2.9-1.1.2-2.7,3-.2.2-2.9-2-.3c-.1-.7-.2-1.5-.3-2.6l5.6.3c0,.9-.1,1.8-.1,2.9l-2.7.2c-.1.9-.1,1.8-.2,2.8l-3.1.2c-.1,1-.2,2-.4,3.2Z" transform="translate(-143.2 -193.7)"/><path class="cls-14" d="M203.1,454v-.7a9.8,9.8,0,0,0,2.2.5h67c.2,0,.4.2.6.3l-11.9.2H204.2Z" transform="translate(-143.2 -193.7)"/><path class="cls-10" d="M264.4,387.2h6.3v3.3h-6.3Z" transform="translate(-143.2 -193.7)"/><path class="cls-10" d="M315,387.2l6.2-.2v3.5H315Z" transform="translate(-143.2 -193.7)"/><path class="cls-10" d="M294.3,387.2h5.9v3.3h-5.9Z" transform="translate(-143.2 -193.7)"/><path class="cls-16" d="M377.5,459.4v-6.8l1.6-.8,1.2,1v6.7h-2.6C377.6,459.5,377.5,459.5,377.5,459.4Z" transform="translate(-143.2 -193.7)"/><path class="cls-14" d="M326.6,387.2h18.2a32.5,32.5,0,0,1,.2,3.3H326.6Zm17.3.7H327.3v2.4h16.6l1-1.2Z" transform="translate(-143.2 -193.7)"/><path class="cls-8" d="M192.7,421.5v2.6h-5.9v-2.6Z" transform="translate(-143.2 -193.7)"/><path class="cls-8" d="M370,274.7l-.2,1.3-.8-1.2h-1.6l-.8,1.7a2.2,2.2,0,0,1-2.7.7v-2.6l3.3-.5v-1.9l.3-.6,2.1-.2h.3c0,.9.1,1.9.1,2.8Z" transform="translate(-143.2 -193.7)"/><path class="cls-19" d="M294.8,302.7c0-.2.1-.4.1-.6l.3-.3a37.8,37.8,0,0,0,4.7.6h27.2v-8.3c0-.3.3-.7.4-1.1v9.8H294.8Z" transform="translate(-143.2 -193.7)"/><path class="cls-16" d="M190.5,343.9h6.4c0,1.2.1,2.4.1,3.5a3.1,3.1,0,0,0-1.2-.5h-4a.2.2,0,0,1-.2-.2l.3-2.3Z" transform="translate(-143.2 -193.7)"/><path class="cls-18" d="M272.5,254v26.1a4.9,4.9,0,0,1-.5-1.6c-.1-4.2-.1-8.3-.1-12.4s0-7.1.1-10.6A4.4,4.4,0,0,1,272.5,254Z" transform="translate(-143.2 -193.7)"/><path class="cls-14" d="M293.6,282.5H283.3V281h10.4v1.3C293.6,282.3,293.6,282.4,293.6,282.5Z" transform="translate(-143.2 -193.7)"/><path class="cls-5" d="M197.1,332l-2.3.5h-2.9v-3.1h5.2Z" transform="translate(-143.2 -193.7)"/><path class="cls-16" d="M204.3,349.5V344h4.8v3h-4.8Z" transform="translate(-143.2 -193.7)"/><path class="cls-8" d="M191.8,346.9h4a3.1,3.1,0,0,1,1.2.5c.1.6.1,1.2.2,1.8v.3c0,.2-.1.4-.1.6h-5.2l-.2-.8v-2.4Z" transform="translate(-143.2 -193.7)"/><path class="cls-14" d="M293.6,252.4H283.3v-1.5h10.2a6.9,6.9,0,0,1,.2,1.3C293.6,252.2,293.6,252.3,293.6,252.4Z" transform="translate(-143.2 -193.7)"/><path class="cls-14" d="M293.6,272.5H283.3V271h10.3v1.3A.3.3,0,0,0,293.6,272.5Z" transform="translate(-143.2 -193.7)"/><path class="cls-16" d="M247.6,467.5v-3H258v3Zm.6-.7h9.2v-1.6h-9.2Z" transform="translate(-143.2 -193.7)"/><path class="cls-8" d="M406.1,407.9v2.8h-4.4v-2.8Z" transform="translate(-143.2 -193.7)"/><path class="cls-19" d="M332.6,292.3V243.9h.3v1.5c0,14.3-.1,28.5,0,42.7a21.1,21.1,0,0,0,.2,2.5A12.1,12.1,0,0,0,332.6,292.3Z" transform="translate(-143.2 -193.7)"/><path class="cls-16" d="M219.8,303c-.1-1.7-.2-3.4-.2-5a19.3,19.3,0,0,1-.1-2.4l-3.5-.3v-2.8h2.5c.4-.4.8-.7.9-1.2a6.6,6.6,0,0,0,.1-2h0l.9,2.1-1.2,2L217,293v.2l3,2.3v6.7l1.9.2c.3-1.2.5-2.2.8-3.2,0,1.3,0,2.5-.1,3.7Z" transform="translate(-143.2 -193.7)"/><path class="cls-14" d="M193.7,407.8h4.4v2.7h-4.4Z" transform="translate(-143.2 -193.7)"/><path class="cls-14" d="M216.1,404.2v2.4h-3.2v-2.1l2.4-.8v-5.2h-2.4v-.9h2.7Z" transform="translate(-143.2 -193.7)"/><path class="cls-14" d="M374.4,402.4h-3.8v-3h3.8Z" transform="translate(-143.2 -193.7)"/><path class="cls-5" d="M204.3,349.5V347h4.8v3.1h-4.7Z" transform="translate(-143.2 -193.7)"/><path class="cls-8" d="M253.7,282.9V286h-3.8l-.5-.4c0-.9.1-1.8.1-2.7Z" transform="translate(-143.2 -193.7)"/><path class="cls-10" d="M212.9,398.5h2.4v5.2l-2.4.8v-6Z" transform="translate(-143.2 -193.7)"/><path class="cls-9" d="M339,404.5l-3.5.2v-3.5h6.1l-2.7.2C338.9,402.5,339,403.5,339,404.5Z" transform="translate(-143.2 -193.7)"/><path class="cls-14" d="M280.4,460v3.8h-3.8v-3.3Z" transform="translate(-143.2 -193.7)"/><path class="cls-8" d="M338.9,439.2v-2.8h3.7v2.8Z" transform="translate(-143.2 -193.7)"/><path class="cls-5" d="M344.8,258.3v-2.7h4.4v2.7Z" transform="translate(-143.2 -193.7)"/><path class="cls-6" d="M355.5,289.1h1.1l-2.8.4c-.3.9-.5,1.8-.8,2.7,0-.8-.1-1.5-.1-2.4h-2.4c-.2.5-.3.9-.5,1.3.2-1.3.3-2.6.5-4l3-.3a5.7,5.7,0,0,1,.1,1.3C353.6,289.8,354.8,289,355.5,289.1Z" transform="translate(-143.2 -193.7)"/><path class="cls-8" d="M257.1,270.7h-4.3a22.6,22.6,0,0,0,.1-2.6h4.2Z" transform="translate(-143.2 -193.7)"/><path class="cls-6" d="M377.5,258.3H374c0-.7-.1-1.4-.1-2.4l-3.3-.3v-1.9c.2.5.3,1,.5,1.6h2.8l3.6.4h1.7l-1.4.2H377l.5.6v1.7Z" transform="translate(-143.2 -193.7)"/><path class="cls-14" d="M284.1,456.2c-.1,1.2-.1,2.4-.2,3.9h-3.5v-3.2Z" transform="translate(-143.2 -193.7)"/><path class="cls-14" d="M237,383.5a8.3,8.3,0,0,0,1.5.4,9.5,9.5,0,0,0,2.3-.1V387l-3.8-.2Z" transform="translate(-143.2 -193.7)"/><path class="cls-18" d="M216.7,406.7h19.4v.2a8.3,8.3,0,0,1-1.5.4H218.1A3.5,3.5,0,0,1,216.7,406.7Z" transform="translate(-143.2 -193.7)"/><path class="cls-6" d="M200.2,330l-1.1,1c0,5.2,0,10.3-.1,15.4,0,.4-.3.7-.5,1.1-.1-5.8-.1-11.7-.2-17.5l1.7-.2Z" transform="translate(-143.2 -193.7)"/><path class="cls-5" d="M384.3,334.9l-.3.2h-3.1v-3.4l3.4-.2Z" transform="translate(-143.2 -193.7)"/><path class="cls-12" d="M274.1,347.9l7.2-.4v3.7h-7.2Zm.2,2.8h6.6l-.6-2.2-5.2-.4Z" transform="translate(-143.2 -193.7)"/><path class="cls-8" d="M209.1,347v-3h3.8c0,1-.1,2-.1,2.9h-3.7Z" transform="translate(-143.2 -193.7)"/><path class="cls-14" d="M345.4,350.8h14.1l1.2-1.4-1.5-1.2,1.4-.3a30.5,30.5,0,0,1,.2,3.2H346.6C346.2,351.3,345.8,350.9,345.4,350.8Z" transform="translate(-143.2 -193.7)"/><path class="cls-14" d="M409.8,304.5h-3.1v-3.2H410Z" transform="translate(-143.2 -193.7)"/><path class="cls-5" d="M339,404.5c0-1-.1-2-.1-3.1l2.7-.2c.2.3.7.5.7.9a17.6,17.6,0,0,1,0,2.3l-3.1.3Z" transform="translate(-143.2 -193.7)"/><path class="cls-19" d="M384.1,252.1c.1-1,.1-1.9.2-3h3.2v3h0l-1.1.6-2.1-.6Z" transform="translate(-143.2 -193.7)"/><path class="cls-17" d="M374.1,265h3.2v3l-3.6.3h-.3l-.8-.2,1.3-.3C374,266.9,374,265.9,374.1,265Z" transform="translate(-143.2 -193.7)"/><path class="cls-14" d="M203.4,418.7l-3.6.4c0,.6-.1,1.2-.1,1.9v28.8l-.3.5c0-6.8-.1-13.5-.1-20.3,0-3.8.1-7.6.1-11.4Z" transform="translate(-143.2 -193.7)"/><path class="cls-16" d="M184.3,390.3v-2.7h3.3v2.7Z" transform="translate(-143.2 -193.7)"/><path class="cls-16" d="M248.8,292.5a4.6,4.6,0,0,0,.7-.7l3.2,1.1v2.7a17.6,17.6,0,0,0-2.3,0c-.3.1-.5.5-.8.8h-.2l-1.7-.5,1.8-.3Z" transform="translate(-143.2 -193.7)"/><path class="cls-16" d="M265.1,469.1h3.4v2.5h-3.4Z" transform="translate(-143.2 -193.7)"/><path class="cls-17" d="M336.7,308.5h4l-1.1.4c-.1,1-.1,2-.2,3.1l-2.5.2a4.7,4.7,0,0,0-.7-1.2C336.4,310.3,336.5,309.4,336.7,308.5Z" transform="translate(-143.2 -193.7)"/><path class="cls-17" d="M390.3,277.3l.6-2.8H394v2.7l-2.9.2c0,1-.1,2-.1,2.9C390.8,279.3,390.5,278.3,390.3,277.3Z" transform="translate(-143.2 -193.7)"/><path class="cls-8" d="M222.5,302.9c.1-1.2.1-2.4.1-3.7h2.8v3.7Z" transform="translate(-143.2 -193.7)"/><path class="cls-14" d="M266.2,327.5v-3.2h3.2v3.2Z" transform="translate(-143.2 -193.7)"/><path class="cls-14" d="M262.6,307.8h3.8V311h-3.8Zm.7,2.7h2.2v-1.9h-2.4Z" transform="translate(-143.2 -193.7)"/><path class="cls-5" d="M190.5,343.9l1.4.5-.3,2.3-3.3.2h0c-.1-.1-.1-.3-.2-.5V344Z" transform="translate(-143.2 -193.7)"/><path class="cls-8" d="M370.4,251.5l-.3.9h-2.6v-3.3h2.9Z" transform="translate(-143.2 -193.7)"/><path class="cls-19" d="M373.9,255.3h-2.8c-.2-.6-.3-1.1-.5-1.6a5.7,5.7,0,0,0-.1-1.3h3.4Z" transform="translate(-143.2 -193.7)"/><path class="cls-9" d="M346.4,418.1v-2.9l2.9-.5c.2.8.4,1.4.5,2v.7l-.3.4Z" transform="translate(-143.2 -193.7)"/><path class="cls-14" d="M408.9,308.7l1-2.6h-.4c.2.7.5,1.4.8,2.2a5.8,5.8,0,0,0-.5,1.4,10.7,10.7,0,0,0,0,1.8h-3.1v-2.8h.2C407.6,309.7,408.2,308.9,408.9,308.7Z" transform="translate(-143.2 -193.7)"/><path class="cls-6" d="M387.5,252.1v-3h2.9v3Z" transform="translate(-143.2 -193.7)"/><path class="cls-16" d="M391.1,447.5h2.7v3h-2.7Z" transform="translate(-143.2 -193.7)"/><path class="cls-18" d="M249.6,296.4c.3-.3.5-.7.8-.8a17.6,17.6,0,0,1,2.3,0v-2.7l-3.2-1.1c0-1-.1-2.1-.1-3.2l.9,3,2.6.2c.2,1.2.3,2.3.5,3.6S250.8,295.7,249.6,296.4Z" transform="translate(-143.2 -193.7)"/><path class="cls-5" d="M422.6,349.4l-2.9-.5a16.4,16.4,0,0,0-.2-2.2h3.1Z" transform="translate(-143.2 -193.7)"/><path class="cls-6" d="M419.5,346.7a16.4,16.4,0,0,1,.2,2.2h-3.9l.3-2.1Z" transform="translate(-143.2 -193.7)"/><path class="cls-14" d="M413.4,308.2c.1-1.1.1-2.3.2-3.5h2.1v3.7Z" transform="translate(-143.2 -193.7)"/><path class="cls-8" d="M363.6,277.4l.3,1-.8.2.8,1.2h-3.4v-2.4Z" transform="translate(-143.2 -193.7)"/><path class="cls-15" d="M335.8,472h2.3v3.1h-2.3Z" transform="translate(-143.2 -193.7)"/><path class="cls-10" d="M260.7,248.7v.6l-1.9,1.1h-.6c.1-1.2-1-2.7.8-3.4l.5-.2h0l.5.2A8.7,8.7,0,0,1,260.7,248.7Z" transform="translate(-143.2 -193.7)"/><path class="cls-14" d="M183.1,326.8h-2.7v-4.2h2.7Zm-2.1-.7h1.6v-2.9H181Z" transform="translate(-143.2 -193.7)"/><path class="cls-8" d="M372.6,268.1l.8.2a.2.2,0,0,0,.2.2c0,.2.1.4.1.6s-.7,1.1-1.1,1.8h-1.9v-.8c.1-.7-.7-1.8.7-2h1.3Z" transform="translate(-143.2 -193.7)"/><path class="cls-8" d="M343.1,298v-2h1.6l1.3.2c0,.8.1,1.6.1,2.4H346l-2.8.6h0A4.9,4.9,0,0,1,343.1,298Z" transform="translate(-143.2 -193.7)"/><path class="cls-8" d="M346.5,294.2c.1-.3.1-.6.2-.9h3.1v1.6l-3.2,1.3Z" transform="translate(-143.2 -193.7)"/><path class="cls-5" d="M377.5,257.4v-.8l.3-.6,1.4-.2h1.1a1.4,1.4,0,0,1,.2.6v1.9h-2.1Z" transform="translate(-143.2 -193.7)"/><path class="cls-8" d="M350,291.2c.2-.4.3-.8.5-1.3h2.4c0,.9.1,1.6.1,2.4h-.4c-.8-.4-2.1.6-2.6-.8Z" transform="translate(-143.2 -193.7)"/><path class="cls-18" d="M397.6,415.5l1.2.8-.5.2c0,2.2,0,4.5-.1,6.7a7.7,7.7,0,0,1-.7,1.6C397.5,421.7,397.6,418.6,397.6,415.5Z" transform="translate(-143.2 -193.7)"/><path class="cls-12" d="M274.1,324.1c0,3.8.1,7.7.1,11.6s-.1,6-.1,9.1c-.1-5.6-.1-11.1-.2-16.7C273.9,326.8,274,325.4,274.1,324.1Z" transform="translate(-143.2 -193.7)"/><path class="cls-17" d="M397.6,415.5c0,3.1-.1,6.2-.1,9.3h-.6v-9.9h.6A1.3,1.3,0,0,1,397.6,415.5Z" transform="translate(-143.2 -193.7)"/><path class="cls-17" d="M349.5,417.8l.3-.4,3.5.7v6.8h-.4c-.1-2,.6-4.1-.4-6.1l-.3.3-2.3-.9Z" transform="translate(-143.2 -193.7)"/><path class="cls-11" d="M303.6,470.7v3l-2.1.2v-3.2l.8,1.2Z" transform="translate(-143.2 -193.7)"/><path class="cls-15" d="M198.3,330c.1,5.8.1,11.7.2,17.5-.1.3-.1.7-.2,1.1,0-1.2-.1-2.3-.1-3.4V331.7C198.2,331.2,198.3,330.6,198.3,330Z" transform="translate(-143.2 -193.7)"/><path class="cls-11" d="M304,476.5l2.5-.2v-5.9a16.6,16.6,0,0,1,.6,1.6c.1,1.1,0,2.2.2,3.2S305.4,477.6,304,476.5Z" transform="translate(-143.2 -193.7)"/><path class="cls-6" d="M350,291.6c.5,1.4,1.8.4,2.6.8l-1.8.8-.9,2.3c0-.2-.1-.4-.1-.6v-1.6h-3.1l3.1-.7Z" transform="translate(-143.2 -193.7)"/><path class="cls-14" d="M415.7,388.5c0,3.2,0,6.4.1,9.6a8.7,8.7,0,0,0,.5,2.2h-2.1l1.3-1c-.1-1.3-.2-2.8-.2-4.3S415.6,390.7,415.7,388.5Z" transform="translate(-143.2 -193.7)"/><path class="cls-18" d="M399.4,298.3H386.9l2.9-.3c2.6-.3,5.2.5,7.8-.5C398,297.3,398.8,298,399.4,298.3Z" transform="translate(-143.2 -193.7)"/><path class="cls-14" d="M237.1,324.4h1.5c-.2.8-2,1.2-.5,2.5h2.4v.5h-3.5Z" transform="translate(-143.2 -193.7)"/><path class="cls-18" d="M272.5,284.2v8.1h-.7c0-2.2,0-4.4.1-6.7A3.9,3.9,0,0,1,272.5,284.2Z" transform="translate(-143.2 -193.7)"/><path class="cls-15" d="M381.3,349.8c0,.5.2.9.2,1.4v11.9a7.7,7.7,0,0,1-.2,1.5Z" transform="translate(-143.2 -193.7)"/><path class="cls-17" d="M212.2,286c.3,1.7-1.5,1.6-2.2,2.5a19.4,19.4,0,0,0-.2-2.4Z" transform="translate(-143.2 -193.7)"/><path class="cls-18" d="M381.9,298.3H369.3c.2-.1.3-.4.5-.4l11,.2A4.5,4.5,0,0,1,381.9,298.3Z" transform="translate(-143.2 -193.7)"/><path class="cls-17" d="M206.3,284.3l.3,1.7h-1.2a22.7,22.7,0,0,0,.6-2.5v-8.7l.4.7c0,2-.1,4-.1,6Z" transform="translate(-143.2 -193.7)"/><path class="cls-15" d="M254.4,404H241.1l8.9-.2Z" transform="translate(-143.2 -193.7)"/><path class="cls-18" d="M384.1,252.3H381v3.2h3.2c-.2,1.3-.4,2.3-.5,3.4v-3h-3.1v-3.6l3.5-.2h.2Z" transform="translate(-143.2 -193.7)"/><path class="cls-11" d="M291.4,298.2h-9.5v-.8l5.9.6Z" transform="translate(-143.2 -193.7)"/><path class="cls-16" d="M225.4,299.2h-2.8l.5-1,1.3.4c.4-1.1.7-2.1,1.1-3.1v3.7Z" transform="translate(-143.2 -193.7)"/><path class="cls-6" d="M336.7,308.5c-.2.9-.3,1.8-.5,2.7a.1.1,0,0,0,.1.1h.3a26.2,26.2,0,0,0-.1-2.8c0-1.9-.1-3.8,0-5.6,0-.3.5-.5.8-.7Z" transform="translate(-143.2 -193.7)"/><path class="cls-12" d="M334.1,341.7l-11.2.2-.3-.3Z" transform="translate(-143.2 -193.7)"/><path class="cls-10" d="M284.2,451.3c1.8.1.4,1.7,1,2.3l1.2.8h-2.2Z" transform="translate(-143.2 -193.7)"/><path class="cls-11" d="M291.5,304.3h0Z" transform="translate(-143.2 -193.7)"/><path class="cls-15" d="M264.4,404h0Z" transform="translate(-143.2 -193.7)"/><path class="cls-12" d="M259,247c-1.8.7-.7,2.2-.8,3.4-.3-1.1-.6-2.2-.9-3.5Z" transform="translate(-143.2 -193.7)"/><path class="cls-18" d="M272.6,240v3.4l-.8-2.1.5-1.7h.1Z" transform="translate(-143.2 -193.7)"/><path class="cls-12" d="M335.3,348.3h-6c1.7-.1,3.4-.1,5.1-.3l.9-.3Z" transform="translate(-143.2 -193.7)"/><path class="cls-11" d="M323.7,304.5h0Z" transform="translate(-143.2 -193.7)"/><path class="cls-17" d="M188.1,346.4c.1.2.1.4.2.5l-3.1.2-.6-.2h0Z" transform="translate(-143.2 -193.7)"/><path class="cls-6" d="M341.4,299.3h-.8l-.7,2.4c0-.8-.1-1.6-.1-2.6h1.5Z" transform="translate(-143.2 -193.7)"/><path class="cls-18" d="M278.8,239.9h0Z" transform="translate(-143.2 -193.7)"/><path class="cls-15" d="M240.6,404h-1.2v-4.3c.1,1.3.2,2.5.3,3.9Z" transform="translate(-143.2 -193.7)"/><path class="cls-6" d="M249.3,259l-3.7-.6,3.7-.3Z" transform="translate(-143.2 -193.7)"/><path class="cls-12" d="M258.8,250.4l1.9-1.1v1.3Z" transform="translate(-143.2 -193.7)"/><path class="cls-6" d="M346.5,294.2c0,.7.1,1.3.1,2H346l-1.3-.2,1.5-.2Z" transform="translate(-143.2 -193.7)"/><path class="cls-19" d="M329.7,292.3c.8-1,1.5-.8,2.2,0Z" transform="translate(-143.2 -193.7)"/><path class="cls-11" d="M298.7,304.3h0Z" transform="translate(-143.2 -193.7)"/><path class="cls-18" d="M277.9,299.3v0Z" transform="translate(-143.2 -193.7)"/><path class="cls-18" d="M202,349.3l.5-1.1.9,1.3Z" transform="translate(-143.2 -193.7)"/><path class="cls-18" d="M379,424.9h-1.5Q378.3,423.4,379,424.9Z" transform="translate(-143.2 -193.7)"/><path class="cls-11" d="M306.5,470.4l-2.8.3C304.5,469.7,305.5,470,306.5,470.4Z" transform="translate(-143.2 -193.7)"/><path class="cls-12" d="M260.7,248.7a8.7,8.7,0,0,0-.7-1.7C261.6,247,260.6,248,260.7,248.7Z" transform="translate(-143.2 -193.7)"/><path class="cls-12" d="M341.4,299.3v-.2l1.5-.3.3-.8a4.9,4.9,0,0,0,.1,1.2Z" transform="translate(-143.2 -193.7)"/><path class="cls-17" d="M387.6,274.4a24.6,24.6,0,0,0,.2,2.8A24.6,24.6,0,0,1,387.6,274.4Z" transform="translate(-143.2 -193.7)"/><path class="cls-11" d="M280.5,304.3l-2.6.3Z" transform="translate(-143.2 -193.7)"/><path class="cls-11" d="M281.8,241.7c-.1-.5-.1-1.1-.2-1.7S281.7,241.2,281.8,241.7Z" transform="translate(-143.2 -193.7)"/><path class="cls-9" d="M361.5,425h0Z" transform="translate(-143.2 -193.7)"/><path class="cls-11" d="M327.2,304.5h0Z" transform="translate(-143.2 -193.7)"/><path class="cls-18" d="M274.3,293h1.6v.2h-1.6Z" transform="translate(-143.2 -193.7)"/><path class="cls-19" d="M369.6,271.4l-2.1.2c-.1-.1-.1-.1-.1-.2h2.2Z" transform="translate(-143.2 -193.7)"/><path class="cls-6" d="M369.6,271.4h-1.5l2.2-.2h0l-.4.3h-.3Z" transform="translate(-143.2 -193.7)"/><path class="cls-18" d="M281.4,239.9h0Z" transform="translate(-143.2 -193.7)"/><path class="cls-6" d="M339.2,302.3h0Z" transform="translate(-143.2 -193.7)"/><path class="cls-14" d="M258.6,361.9c0-.5-.1-1-.1-1.5S258.6,361.4,258.6,361.9Z" transform="translate(-143.2 -193.7)"/><path class="cls-17" d="M387.9,277.3h0Z" transform="translate(-143.2 -193.7)"/><path class="cls-11" d="M298.7,475.1a5.9,5.9,0,0,0,.2,1.3A5.9,5.9,0,0,1,298.7,475.1Z" transform="translate(-143.2 -193.7)"/><path class="cls-13" d="M332.8,452.5v-.6l.3,1.8a.1.1,0,0,1-.1.1Z" transform="translate(-143.2 -193.7)"/><path class="cls-11" d="M293.6,254v1.9h-.1v-1.7Z" transform="translate(-143.2 -193.7)"/><path class="cls-15" d="M249.4,285.7l.5.4-.5.5c0-.1-.1-.3-.1-.4A4.3,4.3,0,0,1,249.4,285.7Z" transform="translate(-143.2 -193.7)"/><path class="cls-17" d="M358.9,293l1.6-.3Z" transform="translate(-143.2 -193.7)"/><path class="cls-18" d="M277.6,292.5l.3,1.7Z" transform="translate(-143.2 -193.7)"/><path class="cls-17" d="M377.7,459.5h0Z" transform="translate(-143.2 -193.7)"/><path class="cls-11" d="M402.5,301.8a1.5,1.5,0,0,1,.1-.7l.7.3Z" transform="translate(-143.2 -193.7)"/><path class="cls-15" d="M237.7,397.6l-1.2.3Z" transform="translate(-143.2 -193.7)"/><path class="cls-14" d="M266,329.2v0Z" transform="translate(-143.2 -193.7)"/><path class="cls-16" d="M184.6,346.8h0Z" transform="translate(-143.2 -193.7)"/><path class="cls-14" d="M240.6,327.5a3.8,3.8,0,0,1,.1,1A3.8,3.8,0,0,0,240.6,327.5Z" transform="translate(-143.2 -193.7)"/><path class="cls-14" d="M345.5,349.5l.6.3-.7.3Z" transform="translate(-143.2 -193.7)"/><path class="cls-12" d="M274.1,318.4v0Z" transform="translate(-143.2 -193.7)"/><path class="cls-18" d="M272.2,239.6h-.6l.2-.2.5.3Z" transform="translate(-143.2 -193.7)"/><path class="cls-18" d="M271.9,292.3v.5l-.2-.2.3-.3Z" transform="translate(-143.2 -193.7)"/><path class="cls-15" d="M267.2,404.1h0Z" transform="translate(-143.2 -193.7)"/><path class="cls-9" d="M379.7,424.9l.6.3-.8-.2C379.5,424.9,379.6,424.9,379.7,424.9Z" transform="translate(-143.2 -193.7)"/><path class="cls-6" d="M367.2,273.2v0Z" transform="translate(-143.2 -193.7)"/><path class="cls-9" d="M354,425h0Z" transform="translate(-143.2 -193.7)"/><path class="cls-6" d="M370.6,270.1a2.2,2.2,0,0,0,.1.8l-.4.2h0Z" transform="translate(-143.2 -193.7)"/><path class="cls-6" d="M367.4,271.4c0,.1,0,.1.1.2l-.3.6Z" transform="translate(-143.2 -193.7)"/><path class="cls-18" d="M277,294.1v-.5c0,.1.1.1.1.2Z" transform="translate(-143.2 -193.7)"/><path class="cls-12" d="M335.3,342l-.5-.3Z" transform="translate(-143.2 -193.7)"/><path class="cls-14" d="M363.5,379.1v0Z" transform="translate(-143.2 -193.7)"/><path class="cls-6" d="M328.5,463.9h.2v.6C328.6,464.2,328.5,464.1,328.5,463.9Z" transform="translate(-143.2 -193.7)"/><path class="cls-19" d="M380.5,256.5a1.4,1.4,0,0,0-.2-.6h.3Z" transform="translate(-143.2 -193.7)"/><path class="cls-15" d="M238.4,397.6h0Z" transform="translate(-143.2 -193.7)"/><path class="cls-15" d="M239.3,397.9c-.1-.1-.1-.1-.1-.2h.1Z" transform="translate(-143.2 -193.7)"/><path class="cls-12" d="M295.2,240.1c0,.1-.1.2-.2.1Z" transform="translate(-143.2 -193.7)"/><path class="cls-14" d="M345.7,348.3l-.2.3v-.4Z" transform="translate(-143.2 -193.7)"/><polygon class="cls-10" points="133.7 220.3 133.7 220.3 133.7 220.2 133.7 220.2 133.7 220.3"/><path class="cls-18" d="M197.2,349.5v-.3c0,.1.1.1.1.2Z" transform="translate(-143.2 -193.7)"/><polygon class="cls-12" points="116.3 53.1 116.4 53.1 116.4 53 116.3 53.1"/><path class="cls-11" d="M294,304.3h0Z" transform="translate(-143.2 -193.7)"/><path class="cls-18" d="M278,302.9v0Z" transform="translate(-143.2 -193.7)"/><polygon class="cls-14" points="268 114.5 268.1 114.4 268.1 114.5 268 114.5"/><polygon class="cls-10" points="157.1 186.1 157.2 186.1 157.2 186.1 157.1 186.1"/><path class="cls-12" d="M335.3,347a.3.3,0,0,0-.1-.2.1.1,0,0,1,.1-.1Z" transform="translate(-143.2 -193.7)"/><polygon class="cls-14" points="100.4 124.6 100.3 124.6 100.4 124.5 100.4 124.6"/><polygon class="cls-14" points="93.8 188.6 93.8 188.6 93.7 188.6 93.8 188.6"/><path class="cls-17" d="M380,459.6h0Z" transform="translate(-143.2 -193.7)"/><path class="cls-12" d="M281.3,318.7l-.2-.3Z" transform="translate(-143.2 -193.7)"/><path class="cls-12" d="M309,462.2h0Z" transform="translate(-143.2 -193.7)"/><polygon class="cls-10" points="223.8 192.8 223.7 192.7 223.8 192.7 223.8 192.7 223.8 192.8"/><polygon class="cls-17" points="228.2 74.4 228.2 74.4 228.2 74.3 228.2 74.4"/><path class="cls-4" d="M325,241.9v1.3l1,1.2V257c0,2.8-.1,5.7,0,8.6a8.8,8.8,0,0,0,.2,1.6v1.3c-.1,2-.1,4-.3,6a6.1,6.1,0,0,1-.4,1.7l-1.4-.8c-.5-.2-1-.6-1.4-.6-5.1-.1-10.2,0-15.2,0h-1.1v.5h17.6a7,7,0,0,1-1.7.6H301.1l-3-.3a19.1,19.1,0,0,1-.4,2.1,3.3,3.3,0,0,1-.6,1l-.2-1.5v-2.6c.1-.1.1-.1,0-.2v-1.6c1.3-.5,1.1-1.7,1-2.6s-.6-.8-1-1.2v-1.9a8.8,8.8,0,0,0,.5-1.5c0-1.3.1-2.6,0-3.9s0-4.9-.1-7.3c0-.2-.3-.3-.4-.5v-7.5l.7-2.5-.5-.3,1.8-1.5h22.8Zm-13.2,31.6.2.5v-.5h.7l.8.6v-1.3c.1-1.2.2-2.5.4-3.7l3.7-.3.6-1,1.2.5.3-.2-.9-1.5.4-.6h.6l.3-.3h0l.6-.6c.2-.2.6-.5.6-.8.3-3.4.5-6.8.7-10.2h.3c.5-.2,1.2-.3,1.3-.6s-.2-1-.4-1.6v-.9l.6-1-.6-.2-.3,1.2v.9h-.2c-.1-1.5-.1-3.1-.1-4.7l.6-.7-.9-.5-1.2-.6-1.6-.4h0l-.4-.2-5.8.6c-.3.4-.7.8-.7,1.2s0,2,0,3h-1.6l-.3-.6h0v-2.8l-1.1.2-.3-1.5-1.6-1.2-1.2.9-3.6.2c-1.2-1.5-2.2.1-3.9-.1l1.1,2.4v6.2H309c.6,1.1,1.2,1,1.9.1h3l.3-2.5h2.3v15.1l-1.8-.7a11.7,11.7,0,0,1-8.4-.4c.3-2.7.5-5.4.7-8.5l-3.2-1.1-1.6,1.4v4.3h.1l.2-1.6h.4l-.7,6.1,1.2.8,1.8-.6c.1,1.2.1,2.1.1,3.2h4.9V271c-1.7.2-.2,1.9-1.4,2.6l1.9.6.2-1.3h.9Zm11.8-24.8-.2-.2h-.1v.2Z" transform="translate(-143.2 -193.7)"/><path class="cls-18" d="M297.1,278.8a3.3,3.3,0,0,0,.6-1,19.1,19.1,0,0,0,.4-2.1l3,.3h21.3a7,7,0,0,0,1.7-.6h0l1.4.8a6.1,6.1,0,0,0,.4-1.7c.2-2,.2-4,.3-6v15.6h-.9c.3-1,.6-2,.9-3.2h-2v-1.2c.1-.8.3-1.7.5-2.8H298.8v2.9h4.7l-.4,2.7-1.5.7v.9h-1.9c.2-2-1.7-2.5-2.7-3.7v-1.6h.2Z" transform="translate(-143.2 -193.7)"/><path class="cls-4" d="M324.1,279.7v1.2h2c-.3,1.2-.6,2.2-.9,3.2h-1.2c-.9-.9-1.7-.9-2.5,0h-3.8l1.2-1.5h2.3v-.2l1.4.5c.2-1.8-1-1.8-2-2v-1.1Z" transform="translate(-143.2 -193.7)"/><path class="cls-4" d="M303.9,295.1h-2.7V289h2.7Z" transform="translate(-143.2 -193.7)"/><path class="cls-5" d="M333,240.2a12.1,12.1,0,0,1,.1,1.9l-6.6.3v-2.3H333Z" transform="translate(-143.2 -193.7)"/><path class="cls-18" d="M319,282.6l-1.2,1.5H314a4.3,4.3,0,0,0-1.6-.5l-7.2-1a2.9,2.9,0,0,1,1-.3Z" transform="translate(-143.2 -193.7)"/><path class="cls-4" d="M305.1,282.6l7.3,1a4.3,4.3,0,0,1,1.6.5H301.5v-.9l1.5-.7h2Z" transform="translate(-143.2 -193.7)"/><path class="cls-18" d="M296.9,254c.1.2.4.3.4.5.1,2.4.1,4.9.1,7.3s0,2.6,0,3.9a8.8,8.8,0,0,1-.5,1.5Z" transform="translate(-143.2 -193.7)"/><path class="cls-4" d="M296.9,280.4c1,1.2,2.9,1.7,2.7,3.7h-2.7Zm1.3,2.2-.3-.2h0a.4.4,0,0,0,.1.3Z" transform="translate(-143.2 -193.7)"/><path class="cls-18" d="M296.9,269.1c.4.4,1,.8,1,1.2s.3,2.1-1,2.6Z" transform="translate(-143.2 -193.7)"/><path class="cls-18" d="M298.9,242.2l-1.8,1.5.5.3-.7,2.5V243l.8-.8Z" transform="translate(-143.2 -193.7)"/><path class="cls-4" d="M281.9,289.5c.2.3.7.6.7,1a6.1,6.1,0,0,1-.4,2.6l-.4-2.6A3.1,3.1,0,0,0,281.9,289.5Z" transform="translate(-143.2 -193.7)"/><path class="cls-4" d="M281.9,280.4l.9,2.4-.6.2-.3-1.9Z" transform="translate(-143.2 -193.7)"/><path class="cls-4" d="M281.8,276.3l.9,1.1-.8.5C281.9,277.4,281.8,276.9,281.8,276.3Z" transform="translate(-143.2 -193.7)"/><path class="cls-18" d="M321.6,284.1c.8-.9,1.6-.9,2.5,0Z" transform="translate(-143.2 -193.7)"/><path class="cls-4" d="M281.8,246.5h.9l.3.4-1.1.9Z" transform="translate(-143.2 -193.7)"/><path class="cls-4" d="M281.9,266.9h1v.3a4.1,4.1,0,0,0-1.1.7Z" transform="translate(-143.2 -193.7)"/><path class="cls-4" d="M281.8,249l1.1.4-1,.6Z" transform="translate(-143.2 -193.7)"/><path class="cls-4" d="M281.8,287l.8.4v.3h-.8Z" transform="translate(-143.2 -193.7)"/><path class="cls-4" d="M297.7,242.2l-.8.8v-.8Z" transform="translate(-143.2 -193.7)"/><path class="cls-4" d="M281.9,257.1h.6v.2l-.7.6Z" transform="translate(-143.2 -193.7)"/><path class="cls-15" d="M297.1,278.8h-.2v-1.5A7.7,7.7,0,0,0,297.1,278.8Z" transform="translate(-143.2 -193.7)"/><path class="cls-4" d="M324.9,240.2v1.3C325,241.1,324.9,240.7,324.9,240.2Z" transform="translate(-143.2 -193.7)"/><path class="cls-18" d="M296.9,274.5c.1.1.1.1,0,.2S296.8,274.6,296.9,274.5Z" transform="translate(-143.2 -193.7)"/><path class="cls-5" d="M241.8,264.7v9.2a27.2,27.2,0,0,1-.1,2.8l-5.9.4v-5.3c0-1.7-.1-3.4-.2-5.1l.3-2Z" transform="translate(-143.2 -193.7)"/><path class="cls-5" d="M219.5,264.8h.9a.2.2,0,0,0,.3,0h2.9l1.9.2v8.9c-.1,1-.1,2-.2,3.3l-5.8-.4V264.8Z" transform="translate(-143.2 -193.7)"/><path class="cls-13" d="M235.6,266.7c.1,1.7.2,3.4.2,5.1v5.3l5.9-.4,3.5.5.4,2.6h-10l-.2-2.7h-3.2v-5.6l3.1-.5Z" transform="translate(-143.2 -193.7)"/><path class="cls-13" d="M219.5,276.7l5.8.4c.1-1.3.1-2.3.2-3.3h3v3l-2.9.5-.2,2.2c-1.4.9-8.4,1-9.7.1a19.3,19.3,0,0,0,.1-2.4Z" transform="translate(-143.2 -193.7)"/><path class="cls-9" d="M242.1,286.1h-6.2l-.2-3h9.4a17.9,17.9,0,0,0,.2,2.4Z" transform="translate(-143.2 -193.7)"/><path class="cls-16" d="M213.5,289.1l2.2-.9v-5.3h9.1c.2,0,.4.4.6.6l-5.9-.5V286l-3.3.6v1.7l3.3.9h-3.8Z" transform="translate(-143.2 -193.7)"/><path class="cls-9" d="M219.5,286v-2.9l5.9.5v2.3l-4.1.2h-1.8Z" transform="translate(-143.2 -193.7)"/><path class="cls-18" d="M245.2,277.2l-3.5-.5a27.2,27.2,0,0,0,.1-2.8h3.8C245.4,275.1,245.3,276.1,245.2,277.2Z" transform="translate(-143.2 -193.7)"/><path class="cls-13" d="M242.1,286.1l3.2-.6.3.6c0,.8-.1,1.6-.1,2.4h-3.1v3.9h3.2c0,1.2,0,2.4.1,3.5h-.1a30.1,30.1,0,0,1-.7-3.2h-2.7C241.2,290.6,242.4,288.3,242.1,286.1Z" transform="translate(-143.2 -193.7)"/><path class="cls-4" d="M219.5,276.7l-3.7.5h0c0-1,0-2-.1-3.1l.3-.2h3.5Z" transform="translate(-143.2 -193.7)"/><path class="cls-5" d="M213.5,289.1l2.2.2c0,1,0,2-.1,3l-2.9.3v-3.4Z" transform="translate(-143.2 -193.7)"/><path class="cls-16" d="M219.8,261h-3.6l-.3-2.8-2.8-.2c-.1-.9-.8-1.9.4-2.7s.1,1,.2,1.7l2.9.3.8,2.6Z" transform="translate(-143.2 -193.7)"/><path class="cls-9" d="M242,296.3v2.8h-2.9v-2.8Z" transform="translate(-143.2 -193.7)"/><path class="cls-18" d="M245.5,261.3v3.4h-3.7c.1-1,.1-2,.2-3.4Zm-3.1,2.6h2.7l-.8-2.2-1.8.7Z" transform="translate(-143.2 -193.7)"/><path class="cls-16" d="M212.2,282.7h-3v-7.6a5.5,5.5,0,0,1,.5,1.7c.1,1.7.1,3.5.1,5.2Z" transform="translate(-143.2 -193.7)"/><path class="cls-16" d="M213.5,255.3l1.5-.3h8.3l1.5.3Z" transform="translate(-143.2 -193.7)"/><path class="cls-16" d="M220.1,264.7h-.3v-3.1l.6,2.5Z" transform="translate(-143.2 -193.7)"/><path class="cls-6" d="M253.7,282.9h-4.2c0-.1-.1-.2-.1-.3Z" transform="translate(-143.2 -193.7)"/><path class="cls-13" d="M215.7,274.1c.1,1.1.1,2.1.1,3.1C215.8,276.2,215.8,275.2,215.7,274.1Z" transform="translate(-143.2 -193.7)"/><path class="cls-13" d="M223.6,264.7h0Z" transform="translate(-143.2 -193.7)"/><path class="cls-13" d="M218.5,273.8h0Z" transform="translate(-143.2 -193.7)"/><path class="cls-16" d="M223,264.7h-1.3C222.1,263.8,222.5,263.8,223,264.7Z" transform="translate(-143.2 -193.7)"/><path class="cls-16" d="M220.2,286.1h0Z" transform="translate(-143.2 -193.7)"/><path class="cls-13" d="M220.1,264.7l.3-.6v.6Z" transform="translate(-143.2 -193.7)"/><path class="cls-13" d="M245.5,260v.3c0-.1,0-.1-.1-.2A.1.1,0,0,0,245.5,260Z" transform="translate(-143.2 -193.7)"/><path class="cls-16" d="M212.6,283l-.4-.4Z" transform="translate(-143.2 -193.7)"/><path class="cls-5" d="M191.9,360v-2.9h16.7V360Z" transform="translate(-143.2 -193.7)"/><path class="cls-13" d="M209.1,347h3.8c-.3,1.1.7,2.7-1.3,3.2H209C209,349,209.1,348,209.1,347Z" transform="translate(-143.2 -193.7)"/><path class="cls-9" d="M185.2,360.1v-3h2.7l.2,3Z" transform="translate(-143.2 -193.7)"/><path class="cls-19" d="M313.7,414.8c0,11.7-.1,23.5-.1,35.2-.1-1.4-.2-2.7-.4-4.1h-.3c-.1,1.2-.2,2.5-.2,4h-2.5v-4.5H304v5.9l-2.4-1.3a16.4,16.4,0,0,0-.4-2.5l-.3-1.9a.3.3,0,0,1-.1-.2V444h.3v-1.2a5.3,5.3,0,0,1-.1-1.3c0-1.6.1-3.2.1-4.8l.2-.2h-.4a1,1,0,0,0-.1-.4c-1.8-.1-3.6-1-5.5-.2a6.3,6.3,0,0,1-1.4,0l1.7-2h4.7l.7-.2.2-.4V428h-5.6l-.3-.5-.2.2.4.4v.2h-1.1l-.4-2.3,1.5-.7h5.1l.5-.2v-5.9h-5.4l-.2,1.5-.3-.9-.8,1.7-.5-1.5h-.2v9.6H295l-1.4,3.2-1.1-.7V415.5l.5-.3,11.1-.2Zm-4.1,26.4v-4.4H304v5.9h5.8Zm0-8.8v-4.3H304v5.8h5.7A7.1,7.1,0,0,0,309.6,432.4Zm0-8.5v-4.5H304v6h5.8Z" transform="translate(-143.2 -193.7)"/><path class="cls-11" d="M300.8,436.6h.2c0,1.6-.1,3.2-.1,4.8h-5.4v-4.9Z" transform="translate(-143.2 -193.7)"/><path class="cls-11" d="M295.3,420.8l.2-1.5h5.4v4.6l-5.4.6v-3.7Z" transform="translate(-143.2 -193.7)"/><path class="cls-18" d="M295.5,428h5.6v3.8l-.2,1h-1l.4-3.3h-3.9v3.3l-.8.3h-.2v-4.8h.1v-.2h.1Zm3.5.9.2-.2h-2.3v.2Z" transform="translate(-143.2 -193.7)"/><path class="cls-4" d="M295.5,447.2v-1a4.1,4.1,0,0,1,1.1-.7h4.3a.3.3,0,0,0,.1.2,1.3,1.3,0,0,1-.1.6h-4.5v4.1l4-.4.5-2.4.3,1.2v2.5h-5.6v-.9C295.6,449.3,295.6,448.2,295.5,447.2Z" transform="translate(-143.2 -193.7)"/><path class="cls-4" d="M295.5,424.5l5.4-.6a5.3,5.3,0,0,0,.1,1.3l-.5.2h-5.2A1.4,1.4,0,0,0,295.5,424.5Z" transform="translate(-143.2 -193.7)"/><path class="cls-4" d="M304,451v-.7l5.6-.6h.1v1.6h-5.5Z" transform="translate(-143.2 -193.7)"/><path class="cls-4" d="M295.5,441.5h5.4a5.3,5.3,0,0,0,.1,1.3h-5.2Z" transform="translate(-143.2 -193.7)"/><path class="cls-4" d="M299.9,432.7h1l.2.5-.2.4-.7.2h-3.8l-.9-.2V433l.8-.3Z" transform="translate(-143.2 -193.7)"/><path class="cls-19" d="M294.1,444.3c-.3-.6-.8-.9-.8-1.2s-.5-2.4.5-3.1h.7C294.4,441.3,294.3,442.6,294.1,444.3Z" transform="translate(-143.2 -193.7)"/><path class="cls-19" d="M295.8,444.7v-.9l4.1.5v.7l-4.2-.3Z" transform="translate(-143.2 -193.7)"/><path class="cls-12" d="M309.6,445.4h.3l-.2,4.2h-.1Z" transform="translate(-143.2 -193.7)"/><path class="cls-19" d="M294.4,423.8l-.4-1.3h.5l.4,1.2Z" transform="translate(-143.2 -193.7)"/><path class="cls-18" d="M295.5,447.2c.1,1,.1,2.1.1,3.1l-.2-.9C295.4,448.6,295.5,447.9,295.5,447.2Z" transform="translate(-143.2 -193.7)"/><path class="cls-15" d="M301.1,448.7l-.3-1.2v-1.3a1.3,1.3,0,0,0,.1-.6l.3,1.9Z" transform="translate(-143.2 -193.7)"/><path class="cls-6" d="M313.7,450.7h0Z" transform="translate(-143.2 -193.7)"/><path class="cls-19" d="M295.3,429.1a19.3,19.3,0,0,0,.1,2.4A19.3,19.3,0,0,1,295.3,429.1Z" transform="translate(-143.2 -193.7)"/><path class="cls-6" d="M295.4,449.4l.2.9v.9C295.5,450.6,295.4,450,295.4,449.4Z" transform="translate(-143.2 -193.7)"/><path class="cls-19" d="M295.4,432.1v0Z" transform="translate(-143.2 -193.7)"/><path class="cls-18" d="M295.5,433.7l.9.2h-.9Z" transform="translate(-143.2 -193.7)"/><path class="cls-19" d="M294.1,428.9l.2.2h-.1v-.2Z" transform="translate(-143.2 -193.7)"/><path class="cls-19" d="M295.5,424.5a1.4,1.4,0,0,1-.2.6c0-.4.1-.8.1-1.1Z" transform="translate(-143.2 -193.7)"/><path class="cls-19" d="M294.1,434.5h0Z" transform="translate(-143.2 -193.7)"/><path class="cls-19" d="M294.7,445.1v-.2h.1Z" transform="translate(-143.2 -193.7)"/><path class="cls-19" d="M295.4,425.2h-.1c-.1.1-.2.1.1,0Z" transform="translate(-143.2 -193.7)"/><path class="cls-6" d="M295.4,446.2v.4a.4.4,0,0,1-.1-.3Z" transform="translate(-143.2 -193.7)"/><path class="cls-15" d="M304,451l.2.2H304Z" transform="translate(-143.2 -193.7)"/><path class="cls-19" d="M295.8,442.9h0Z" transform="translate(-143.2 -193.7)"/><path class="cls-19" d="M298.9,442.9h0Z" transform="translate(-143.2 -193.7)"/><path class="cls-19" d="M295.3,422.7v.1Z" transform="translate(-143.2 -193.7)"/><path class="cls-19" d="M295.8,444.7h0Z" transform="translate(-143.2 -193.7)"/><path class="cls-5" d="M357.3,440l.4-.2,2.8-.2,6.5.4.2,2.5v.6l-.3.3h-.6l-.4-.2h-1.5c-.3,1.1-.6,2.2-.9,3.5h-6.1Z" transform="translate(-143.2 -193.7)"/><path class="cls-5" d="M368.3,439.8h-.5c0-.1,0-.1-.1-.2l-.3-3.5h3.2v-3.7h3v11.3l-3.1-.2v-3.6Z" transform="translate(-143.2 -193.7)"/><path class="cls-5" d="M390,410.8l.4.2c0,2.6.1,5.1.2,7.6v.9h-.1v.9l-.3,1.2-6.5-.3v-3.3h3.3v-7.3H390Z" transform="translate(-143.2 -193.7)"/><path class="cls-16" d="M370.6,432.4v3.7H360.5v-3.6h3.1c0-.8.1-1.5.1-2.2l.3,2.1h6.6Z" transform="translate(-143.2 -193.7)"/><path class="cls-17" d="M380.5,450c-.3-.8-.5-1.5-.9-2.5h-2.4v-7.4l3-.2.3-4Z" transform="translate(-143.2 -193.7)"/><path class="cls-19" d="M360.5,436h6.9l.3,3.5-.7.4-6.5-.4v-.3C360.5,438.2,360.5,437.1,360.5,436Z" transform="translate(-143.2 -193.7)"/><path class="cls-8" d="M349.5,417.8l.4.4c-.1,1-.1,2.1-.2,3.4h-3.3v-3.5Z" transform="translate(-143.2 -193.7)"/><path class="cls-8" d="M342.6,414.9v3l-3.1.3-.3-3.3Z" transform="translate(-143.2 -193.7)"/><path class="cls-8" d="M383.8,425h3v3.5l-3,.2Z" transform="translate(-143.2 -193.7)"/><path class="cls-6" d="M365.8,443.3l.4.2-1.9.4-.2,3.2c-2.3.7-4.6.1-7.2.4,0-1.9-.1-3.6-.1-5.2a15.5,15.5,0,0,1,.5-2.3v6.9h6.1c.3-1.3.6-2.4.9-3.5Z" transform="translate(-143.2 -193.7)"/><path class="cls-17" d="M390.7,425.2h3v3.1h-3.1Z" transform="translate(-143.2 -193.7)"/><path class="cls-5" d="M370.2,444v2.8h0c-.2,0-.2.1-.3.2h-2.3a.1.1,0,0,1-.1-.1v-3.3Z" transform="translate(-143.2 -193.7)"/><path class="cls-19" d="M360.5,432.4V436h-3.6v-3.6Zm-3.1,3c2.2.2,2.8-.4,2.1-2.4l-2.1.2Z" transform="translate(-143.2 -193.7)"/><path class="cls-17" d="M377.1,447.7l-2.5.6c-.3.8-.5,1.6-.8,2.3v-2.9Z" transform="translate(-143.2 -193.7)"/><path class="cls-6" d="M370.2,444l-2.7-.3V447a9.4,9.4,0,0,1-.6-1.5,14.8,14.8,0,0,1-.1-2.1l.3-.3Z" transform="translate(-143.2 -193.7)"/><path class="cls-17" d="M390.6,428.3v6.1c0,.6.1,1.4-.9,1.1a5.5,5.5,0,0,0,.6-1.8C390.5,431.9,390.5,430.1,390.6,428.3Z" transform="translate(-143.2 -193.7)"/><path class="cls-17" d="M390.3,421.7l.3-1.2c0,1.6,0,3.1.1,4.7C390.5,424,390.4,422.9,390.3,421.7Z" transform="translate(-143.2 -193.7)"/><path class="cls-6" d="M360.4,439.3v.3l-2.8.2Z" transform="translate(-143.2 -193.7)"/><path class="cls-6" d="M367,440l.7-.4c.1.1.1.1.1.2l-.6,2.7C367.1,441.7,367.1,440.8,367,440Z" transform="translate(-143.2 -193.7)"/><path class="cls-6" d="M370.2,446.8v0Z" transform="translate(-143.2 -193.7)"/><path class="cls-6" d="M367.6,447.1h0Z" transform="translate(-143.2 -193.7)"/><path class="cls-6" d="M368.3,439.8h0Z" transform="translate(-143.2 -193.7)"/><path class="cls-6" d="M369.9,447.1c.1-.1.1-.2.3-.2Z" transform="translate(-143.2 -193.7)"/><path class="cls-18" d="M412.3,397.2H384.7V372.5h26l1.6.2Zm-12.5-17,.3,2-.6,4.4h-3.2v3.1h3.2l.3.7V393h3.4v-2.8l3.7-.8v-5.8h-2.7l-.9-.3-.2-.5c.1-1.1,1.1-2.4-.6-3.3h-2.5c-.1-1.1-.2-2.2-.2-3.3h-3.7v3.2l3.5.3Zm-10.5-4.1h-.1c-1.6.3-.6,1.5-.8,2.2a30.3,30.3,0,0,0-.2,3.1h4.7v-5.3h-3.6Zm3.1,9v-1.6h-3.9v5.7h4.1v-4.1Z" transform="translate(-143.2 -193.7)"/><path class="cls-18" d="M384.5,349.5h27.7c0,.7.1,1.5.1,2.2v16.6h0l-.2.4H412l-2.5-.4h0V352.5l-2.2.2h-2.2v16h-2.5a9.5,9.5,0,0,1-.5-2.3c0-2.2,0-4.4.1-6.7s-.1-2.8-.1-4.2h0v-3h-4.5v15.7h-5.1V352.7h-3.4v15.9h-4.6Z" transform="translate(-143.2 -193.7)"/><path class="cls-14" d="M405.1,368.7v-16h2.2v12.8h2.2v2.8l-.6-.7-3.1-.4v2.2Zm1.7-6.4h-.2v3.3h.2Z" transform="translate(-143.2 -193.7)"/><path class="cls-5" d="M402.1,355.6c0,1.4,0,2.8.1,4.2v5.9h-2.3v-9.9l-1-.6v-2.5h3.2v3Z" transform="translate(-143.2 -193.7)"/><path class="cls-14" d="M412.3,368.3V351.7c0-.7-.1-1.5-.1-2.2h3.5a4.4,4.4,0,0,1,.5,1.5c0,1.1-.4,2.1-.4,3.1-.1,10.2-.1,20.4-.1,30.7-.1-3.4-.3-6.7-.4-10-.1-1.6.1-3.3.1-5s-.2-4.8-.2-7.2c-.1-4,0-8,0-11.9h-2.3l-.3,1.8v14.3A7.6,7.6,0,0,1,412.3,368.3Z" transform="translate(-143.2 -193.7)"/><path class="cls-14" d="M412.3,397.2V372.7a10.1,10.1,0,0,1,.3,1.7v21.2A7.6,7.6,0,0,1,412.3,397.2Z" transform="translate(-143.2 -193.7)"/><path class="cls-14" d="M409.5,368.3l2.5.4C411.1,369,410.2,369.5,409.5,368.3Z" transform="translate(-143.2 -193.7)"/><path class="cls-14" d="M402.6,368.8h0Z" transform="translate(-143.2 -193.7)"/><path class="cls-14" d="M412.1,368.7l.2-.4Z" transform="translate(-143.2 -193.7)"/><path class="cls-18" d="M299.6,327.2h3.6v14.4h-9.3V327.5Z" transform="translate(-143.2 -193.7)"/><path class="cls-14" d="M299.6,327.2l-5.7.3v-3h5.7Z" transform="translate(-143.2 -193.7)"/><path class="cls-8" d="M383.7,261.5l-3,.3a24.4,24.4,0,0,0-.1-2.7h0l1.9-.2,1.1.3Z" transform="translate(-143.2 -193.7)"/><path class="cls-19" d="M343.2,299.3l2.8-.6c.1,0,.1.1.1.2H346v2.8h-3.1Z" transform="translate(-143.2 -193.7)"/><path class="cls-6" d="M373.6,271.3V274h-3a15.5,15.5,0,0,1,.1-2.2Z" transform="translate(-143.2 -193.7)"/><path class="cls-19" d="M339.7,308.6h-.6l-1.7-.4v-2.5l2.3-.5Z" transform="translate(-143.2 -193.7)"/><path class="cls-6" d="M346.1,298.9c0-.1,0-.2-.1-.2h.1l1.3-.2c-.5-2.2,1-2.2,2.4-2.6v3.1Z" transform="translate(-143.2 -193.7)"/><path class="cls-19" d="M349.8,295.8c-1.4.4-2.9.4-2.4,2.6l-1.3.2c0-.8-.1-1.6-.1-2.4h.6l3.2-1.3c0,.2.1.4.1.6S349.8,295.7,349.8,295.8Z" transform="translate(-143.2 -193.7)"/><path class="cls-19" d="M373.6,271.3l-2.9.5a15.5,15.5,0,0,0-.1,2.2l-.6.2c0-.9-.1-1.9-.1-2.8l.4-.3.4-.2h1.9c.4-.7.8-1.2,1.1-1.8S373.6,270.6,373.6,271.3Z" transform="translate(-143.2 -193.7)"/><path class="cls-19" d="M377.5,257.4l.9,1h2.3v.6h0l-3.1-.8Z" transform="translate(-143.2 -193.7)"/><path class="cls-6" d="M346,299.8v0Z" transform="translate(-143.2 -193.7)"/><path class="cls-19" d="M373.6,268.5a.2.2,0,0,1-.2-.2h.3Z" transform="translate(-143.2 -193.7)"/><path class="cls-4" d="M358.2,327.6v14H347.6V327.4Z" transform="translate(-143.2 -193.7)"/><path class="cls-14" d="M358.2,327.6l-10.6-.2c.2-.9.3-1.8.5-2.9H358Z" transform="translate(-143.2 -193.7)"/><path class="cls-10" d="M240.5,326.9h-2.4c-1.5-1.3.3-1.7.5-2.5h1.9Z" transform="translate(-143.2 -193.7)"/><path class="cls-4" d="M278.9,366.1v4.8l2.7.2v5.6H271.2v-5.6h3v-4.9Z" transform="translate(-143.2 -193.7)"/><path class="cls-14" d="M278.9,366.1h-4.7a25.1,25.1,0,0,1-.2-3h5.2Z" transform="translate(-143.2 -193.7)"/><path class="cls-18" d="M273.7,448.3h-2.4c-.2-.2-.5-.5-.7-.5h-6c-.3,0-.5.3-.8.5h-2.5a2.4,2.4,0,0,0-1-.5H249.5c-.2,0-.3.3-.5.5h-.8l-.2-2.1H229v2.1h-.7c-.4-.1-.8-.5-1.2-.5H203.3c-.2,0-.4.2-.6.4a2.9,2.9,0,0,1-.2-.9V423.1c0-.4.1-.8.1-1.4h71.1ZM248.1,434H248c.3-.2.6-.4.6-.6s.1-2.6.1-4l-2.3-.3v-.3l2.4-1.1c-.3-1.5.8-3.3-1-4.7H229.5l-.8.9v3.8l1.6.9h15.3l-.7,1.3h-.6a2,2,0,0,0-3.1,0h-2.5c-.5-.1-.9-.5-1.3-.5s-3,0-4.5,0h-4.4l.3,4.4.4.4c.3.3.5.5.4.5h17.9Zm-18.9,10.4,1.5.6,13.4.2h3.7v-.8c.1-2.8.3-5.6.5-8.4H229c0,1.2-.1,2.4,0,3.6S229.1,442.8,229.2,444.4Zm38.3-9.2a2.9,2.9,0,0,0-1-.3H252.3c-.3,0-.7.3-1.1.4V444h17.3v-8.6Zm-46.9-7.8h-8v4.2h-4.9V440h5.1v4h7.8v-4.1h4.8v-8.4h-4.8Z" transform="translate(-143.2 -193.7)"/><path class="cls-6" d="M228.9,421.7h-.2c0-1,0-2.1-.1-3.1Z" transform="translate(-143.2 -193.7)"/><path class="cls-14" d="M283.1,275.8v-1.5h10.5v1.5Z" transform="translate(-143.2 -193.7)"/><path class="cls-14" d="M293.6,265.9H283.2v-1.6h10.4v1.6Z" transform="translate(-143.2 -193.7)"/><path class="cls-14" d="M293.5,292.4H283.2v-1.5h10.4Z" transform="translate(-143.2 -193.7)"/><path class="cls-10" d="M293.6,285.7H283.2v-1.4h10.4v1.4Z" transform="translate(-143.2 -193.7)"/><path class="cls-10" d="M293.5,254.1v1.7H283.2v-1.7Z" transform="translate(-143.2 -193.7)"/><path class="cls-14" d="M283.2,262.4V261h10.4v1.4Z" transform="translate(-143.2 -193.7)"/><path class="cls-14" d="M283.3,295.7v-1.5h10.2l.2,1.5Z" transform="translate(-143.2 -193.7)"/><path class="cls-14" d="M283.2,279.1v-1.4h10.2v1.4Z" transform="translate(-143.2 -193.7)"/><path class="cls-10" d="M293.7,267.8l-.2,1.3H283.3v-1.3Z" transform="translate(-143.2 -193.7)"/><path class="cls-14" d="M283.2,289v-1.4h10.3V289Z" transform="translate(-143.2 -193.7)"/><path class="cls-14" d="M284,247.6h9.5V249h-9.6a11.4,11.4,0,0,1,2.6-.9h5.4v-.5Z" transform="translate(-143.2 -193.7)"/><path class="cls-14" d="M289.6,257.6h3.9v1.5h-9.7c-.2,0-.4-.5-.6-.7l9.1-.4Z" transform="translate(-143.2 -193.7)"/><path class="cls-14" d="M292.7,244.1h.8v1.6H283.2v-1.5h6.9l-6,.5v.3h9.2l-.6-.8Z" transform="translate(-143.2 -193.7)"/><path class="cls-10" d="M284,247.6h7.9v.5h-5.4a11.4,11.4,0,0,0-2.6.9l-.7-.7Z" transform="translate(-143.2 -193.7)"/><path class="cls-10" d="M289.6,257.6l2.7.4-9.1.4c.4-.2.7-.6,1-.7h5.4Z" transform="translate(-143.2 -193.7)"/><path class="cls-15" d="M292.7,244.1v.2h0Z" transform="translate(-143.2 -193.7)"/><path class="cls-14" d="M288.9,257.6h0Z" transform="translate(-143.2 -193.7)"/><path class="cls-4" d="M282.6,271.3v.8h-.2v-.8Z" transform="translate(-143.2 -193.7)"/><path class="cls-4" d="M282.7,253.7h.2l.2.2H283Z" transform="translate(-143.2 -193.7)"/><path class="cls-14" d="M286.7,257.7h0Z" transform="translate(-143.2 -193.7)"/><path class="cls-6" d="M415.4,331.8V335H401.3a20,20,0,0,1,1.9-2.2c.3,0,.8.1,1-.1,2.3-1.4,4.9-1.1,7.4-1.1l.4.3Z" transform="translate(-143.2 -193.7)"/><path class="cls-8" d="M388.2,324.5h2.9v3.1l-3.2.3Z" transform="translate(-143.2 -193.7)"/><path class="cls-8" d="M381,324.5h3v3.3h-3Z" transform="translate(-143.2 -193.7)"/><path class="cls-16" d="M388.2,331.7a5.3,5.3,0,0,1,1.7-.4h9l-.6-2.8.8-1h11.7c.2,0,.4.2.6.3H400.8a7.6,7.6,0,0,0-1.6.3c0,1.1,0,2.1-.1,3.2v.3H388.2Z" transform="translate(-143.2 -193.7)"/><path class="cls-19" d="M399.2,328.1a7.6,7.6,0,0,1,1.6-.3h10.8c.1.1.1.2.2.2s-.1,1.3-.1,1.9a14.5,14.5,0,0,1-.6-1.9Z" transform="translate(-143.2 -193.7)"/><path class="cls-6" d="M388.2,331.7h.1l.5,3.3-.8-.2C388.1,333.7,388.1,332.7,388.2,331.7Z" transform="translate(-143.2 -193.7)"/><path class="cls-16" d="M411.7,330c0-.6.1-1.2.1-1.9h.4c0,1.3-.1,2.5-.2,3.7l-.4-.3a3.8,3.8,0,0,1,.1-1Z" transform="translate(-143.2 -193.7)"/><path class="cls-16" d="M411.6,327.9h0Z" transform="translate(-143.2 -193.7)"/><path class="cls-5" d="M388.8,335l-.5-3.3h10.8a15.4,15.4,0,0,1,3,.4c.4,0,.7.5,1.1.8a20,20,0,0,0-1.9,2.2H388.8Z" transform="translate(-143.2 -193.7)"/><path class="cls-6" d="M394.1,335h0Z" transform="translate(-143.2 -193.7)"/><path class="cls-4" d="M215.7,261.6l3.7-.3c0,1.2.1,2.4.1,3.5h0l-3.8-.2Z" transform="translate(-143.2 -193.7)"/><path class="cls-5" d="M215.7,261.6v3l-3,.4v-3.4Z" transform="translate(-143.2 -193.7)"/><path class="cls-4" d="M202.7,448.1c.2-.2.4-.4.6-.4h23.8c.4,0,.8.4,1.2.5H202.8Z" transform="translate(-143.2 -193.7)"/><path class="cls-14" d="M202.8,448.3h.1v1.9h-.1C202,449.7,202,449,202.8,448.3Z" transform="translate(-143.2 -193.7)"/><path class="cls-14" d="M320.9,451.1v2.6h-3v-2.4Z" transform="translate(-143.2 -193.7)"/><path class="cls-7" d="M202.9,324.9l-.9-2.3h2.3l-.8,2.4Z" transform="translate(-143.2 -193.7)"/><path class="cls-10" d="M399.7,302.7v2.8H367.9v-2.8Z" transform="translate(-143.2 -193.7)"/><path class="cls-9" d="M342.6,414.9h-3.4l-3.4-.7v-3.9h6.1c.3.7.6,1.5,1,2.3a17,17,0,0,0,.1,2.2Z" transform="translate(-143.2 -193.7)"/><path class="cls-8" d="M343,414.8a17,17,0,0,1-.1-2.2l3.4-.8v3Z" transform="translate(-143.2 -193.7)"/><path class="cls-17" d="M390.6,418.6c-.1-2.5-.2-5-.2-7.6h3.5c.1,1.2.2,2.2.2,3.3l-3.3.3Z" transform="translate(-143.2 -193.7)"/><path class="cls-4" d="M382.7,423v-3h.6l-.3,3.1Z" transform="translate(-143.2 -193.7)"/><polygon class="cls-17" points="246.8 217.1 246.7 217.2 246.7 217.1 246.7 217 246.8 217.1"/><path class="cls-17" d="M390.6,419.8v-.2h.1Z" transform="translate(-143.2 -193.7)"/><path class="cls-16" d="M329.4,447.2h-2.8V410.9h2.6a5.9,5.9,0,0,1,.2,1.3v35Z" transform="translate(-143.2 -193.7)"/><path class="cls-16" d="M325.7,404.8v5.7l-3.1.3-.3-4.6h-4.1V401h3.1l.3,3.6,4.1.2Z" transform="translate(-143.2 -193.7)"/><path class="cls-16" d="M306.5,400.5v-2.8h11a24.6,24.6,0,0,1,.2,2.8Z" transform="translate(-143.2 -193.7)"/><path class="cls-16" d="M329.4,447.2h3.2l.3,3.3h-3.5v-3.4Z" transform="translate(-143.2 -193.7)"/><path class="cls-16" d="M333.2,453.7l-.3-1.8v-.3l.2-.7h.3l2.5.2v2.6Z" transform="translate(-143.2 -193.7)"/><path class="cls-13" d="M333.1,450.9l-.2.7Z" transform="translate(-143.2 -193.7)"/><path class="cls-6" d="M384.1,252.3l.2-.2,2.1.6,1.1-.6-.6,3.3h-2.4Z" transform="translate(-143.2 -193.7)"/><path class="cls-12" d="M383.6,259.1l-1.1-.3h1.2v.2C383.7,259,383.7,259,383.6,259.1Z" transform="translate(-143.2 -193.7)"/><path class="cls-16" d="M336.8,454.1h2.4l.3,5.2h-2.7Z" transform="translate(-143.2 -193.7)"/><path class="cls-13" d="M206.3,284.3v0Z" transform="translate(-143.2 -193.7)"/><path class="cls-4" d="M215.6,292.3c.1-1,.1-2,.1-3h3.8a6.6,6.6,0,0,1-.1,2c-.1.5-.5.8-.9,1.2H216Z" transform="translate(-143.2 -193.7)"/><path class="cls-6" d="M333,240.2h0Z" transform="translate(-143.2 -193.7)"/><path class="cls-13" d="M188.3,346.9l3.3-.2a.2.2,0,0,0,.2.2c0,.3-.1.6-.1.9v1.5l.2.8h-3.4Z" transform="translate(-143.2 -193.7)"/><path class="cls-19" d="M355.5,289.1c-.7-.1-1.9.7-1.9-.9A1.3,1.3,0,0,1,355.5,289.1Z" transform="translate(-143.2 -193.7)"/><path class="cls-18" d="M245.7,295.8c-.1-1.1-.1-2.3-.1-3.5l3.2.2c.2.9.5,1.9.7,2.9l-1.8.3h-2Z" transform="translate(-143.2 -193.7)"/><path class="cls-10" d="M305.4,349l-.9,1.6H286.8l1-1.6Z" transform="translate(-143.2 -193.7)"/><path class="cls-10" d="M334.6,349a3.2,3.2,0,0,1,.3.9c0,.2-.2.4-.3.8H316V349Z" transform="translate(-143.2 -193.7)"/><path class="cls-8" d="M408.9,308.7c-.7.2-1.3,1-2,0Z" transform="translate(-143.2 -193.7)"/><path class="cls-10" d="M245,365.8v-1.9h13.3l.2.7a9,9,0,0,1-2.4,1.2Z" transform="translate(-143.2 -193.7)"/><path class="cls-5" d="M202.9,450.3v-1.9h70.7a9.7,9.7,0,0,0-.1,1.8H202.9Z" transform="translate(-143.2 -193.7)"/><path class="cls-18" d="M245.6,292.3h-3.2v-3.9h3.1C245.5,289.8,245.5,291.1,245.6,292.3Z" transform="translate(-143.2 -193.7)"/><path class="cls-10" d="M343.9,387.9l1,1.2-1,1.2H327.3v-2.4Z" transform="translate(-143.2 -193.7)"/><path class="cls-16" d="M191.7,349.3v0Z" transform="translate(-143.2 -193.7)"/><path class="cls-7" d="M248.2,466.8v-1.6h9.2v1.6Z" transform="translate(-143.2 -193.7)"/><path class="cls-13" d="M216.7,292.4h0Z" transform="translate(-143.2 -193.7)"/><path class="cls-19" d="M377.8,256l-.3.6-.5-.6Z" transform="translate(-143.2 -193.7)"/><path class="cls-10" d="M274.3,350.7l.8-2.6,5.2.4.6,2.2Z" transform="translate(-143.2 -193.7)"/><path class="cls-10" d="M263.3,310.5l-.2-1.8h2.4v1.9Z" transform="translate(-143.2 -193.7)"/><path class="cls-10" d="M181,326.1v-2.9h1.6v2.9Z" transform="translate(-143.2 -193.7)"/><path class="cls-4" d="M383.7,258.7h-.6l-2.4-.3h-.2v-2.5h3.1Z" transform="translate(-143.2 -193.7)"/><path class="cls-10" d="M303.1,244.8l3.6-.2,2.6,1V250l-.3,3.3h-8.7v-6.2c.1-.5.1-1,.2-1.4Zm.3,5.8H306v-2.8h-2.6Z" transform="translate(-143.2 -193.7)"/><path class="cls-14" d="M313.5,245.3l5.8-.6.4.2h0a16.2,16.2,0,0,1,.2,1.8l2.6,1.1v5.3h-2.1l-.5-1.2-2.2-.9a32.6,32.6,0,0,0,.5,3.3c0,.5.1,1.1.1,1.6-.1,2.7-.3,5.3-.4,7.9,0,.9.4,1.7,1.5,1.4V252.4l1,.8c0,4.1-.1,8.3-.1,12.4h0l-.3.3h-.6l-2.1-.2V250.7l2.2-.2v-3l-2.6.3a16.6,16.6,0,0,1-.2,2.4h-3.2Z" transform="translate(-143.2 -193.7)"/><path class="cls-11" d="M313.5,245.3v4.9h3.2a16.6,16.6,0,0,0,.2-2.4l2.6-.3v3l-2.2.2v15.1l2.1.2-.4.6h-.6l-.6,1.2v1l-3.7.3,3-.5v-2.2H305.9v2.5h4.8l.2,3.9h0l-.7-1.9v-1.9h-4.9c0-1.1,0-2-.1-3.2l-1.8.6-1.2-.8.7-6.1h-.4l-.2,1.6h-.1v-4.3l1.6-1.4,3.2,1.1c-.2,3.1-.4,5.8-.7,8.5a11.7,11.7,0,0,0,8.4.4l1.8.7V251h-2.3l-.3,2.5h-3v-.3h2.9l-.2-2.5-2.3-.3v-.7h1.6c0-1-.1-2,0-3S313.2,245.7,313.5,245.3Zm-10.4,11.1v9.4l3-.2v-9.2Z" transform="translate(-143.2 -193.7)"/><path class="cls-10" d="M310.9,272.8l-.2-3.9h-4.8v-2.5h11.2v2.2l-3,.5c-.2,1.2-.3,2.5-.4,3.7h-2.8Z" transform="translate(-143.2 -193.7)"/><path class="cls-18" d="M310.9,253.1v.3c-.7.9-1.3,1-1.9-.1l.3-3.3v-4.4l-2.6-1,1.2-.9,1.6,1.2.3,1.5,1.1-.2V249l-.6.6-.7.9.5.2.2-1.1.6-.6.3.6c0,.3.1.5.1.7S311,252.2,310.9,253.1Zm-1.1-1.3h-.1v.6h.1Z" transform="translate(-143.2 -193.7)"/><path class="cls-18" d="M324.1,275.4H306.5v-.5h1.1c5,0,10.1-.1,15.2,0,.4,0,.9.4,1.4.6Z" transform="translate(-143.2 -193.7)"/><path class="cls-11" d="M320.3,265.6c0-4.1.1-8.3.1-12.4h2.1v-6.6l.3.6c0,1.6,0,3.2.1,4.7a20.7,20.7,0,0,0-.4,2.2h-.3l-.6-.3h-.7V265Z" transform="translate(-143.2 -193.7)"/><path class="cls-18" d="M320.9,265V253.7h.7l.6.3c-.2,3.4-.4,6.8-.7,10.2C321.5,264.5,321.1,264.8,320.9,265Z" transform="translate(-143.2 -193.7)"/><path class="cls-15" d="M322.5,246.5v1.3l-2.6-1.1a16.2,16.2,0,0,0-.2-1.8l1.6.4,1.2.6Z" transform="translate(-143.2 -193.7)"/><path class="cls-18" d="M303.1,244.8l-2.6.9c-.1.4-.1.9-.2,1.4l-1.1-2.4C300.9,244.9,301.9,243.3,303.1,244.8Z" transform="translate(-143.2 -193.7)"/><path class="cls-18" d="M310.2,271l.7,1.9a5.1,5.1,0,0,0-.2,1.3l-1.9-.6C310,272.9,308.5,271.2,310.2,271Z" transform="translate(-143.2 -193.7)"/><path class="cls-18" d="M322.5,254a20.7,20.7,0,0,1,.4-2.2h.5c.2.6.6,1.1.4,1.6S323,253.8,322.5,254Z" transform="translate(-143.2 -193.7)"/><path class="cls-18" d="M318.4,266.6h.6l.9,1.5-.3.2-1.2-.5h0Z" transform="translate(-143.2 -193.7)"/><path class="cls-18" d="M323.1,250.9l.3-1.2.6.2-.6,1Z" transform="translate(-143.2 -193.7)"/><path class="cls-11" d="M311.8,272.9h1.9v.7h-1.9Z" transform="translate(-143.2 -193.7)"/><path class="cls-18" d="M322.5,246.5v-.6l.9.5-.6.7Z" transform="translate(-143.2 -193.7)"/><path class="cls-18" d="M317.8,268.8v-1h.6Z" transform="translate(-143.2 -193.7)"/><path class="cls-18" d="M312.8,273.5h.9a1.3,1.3,0,0,1-.1.6Z" transform="translate(-143.2 -193.7)"/><path class="cls-18" d="M323.6,248.7h-.2v-.2h.1Z" transform="translate(-143.2 -193.7)"/><path class="cls-11" d="M323.1,250.9h.3v.9h-.3Z" transform="translate(-143.2 -193.7)"/><path class="cls-18" d="M311.8,273.5h.3v.5Z" transform="translate(-143.2 -193.7)"/><path class="cls-11" d="M320,266l.3-.3Z" transform="translate(-143.2 -193.7)"/><path class="cls-15" d="M319.7,244.9l-.4-.2Z" transform="translate(-143.2 -193.7)"/><path class="cls-16" d="M324.1,279.7H298.8v-2.9h25.8C324.4,278,324.2,278.9,324.1,279.7Z" transform="translate(-143.2 -193.7)"/><path class="cls-15" d="M303.5,279.8h.3a11.3,11.3,0,0,0,1.8.3h13.5v2.5h0l-12.8-.3a2.9,2.9,0,0,0-1,.3h-2.1C303.2,281.6,303.4,280.7,303.5,279.8Z" transform="translate(-143.2 -193.7)"/><path class="cls-18" d="M319,282.6v-2.5H305.6a11.3,11.3,0,0,1-1.8-.3h16.8a3.7,3.7,0,0,1,.1,1.1c1,.2,2.2.2,2,2l-1.4-.5v.2Z" transform="translate(-143.2 -193.7)"/><path class="cls-18" d="M303.6,282.6h0Z" transform="translate(-143.2 -193.7)"/><path class="cls-18" d="M298.2,282.6l-.2.2a.4.4,0,0,1-.1-.3h0Z" transform="translate(-143.2 -193.7)"/><path class="cls-4" d="M242.4,263.9v-1.5l1.8-.7.8,2.2Z" transform="translate(-143.2 -193.7)"/><path class="cls-11" d="M309.6,445.4v4.3l-5.6.6v-4.9Z" transform="translate(-143.2 -193.7)"/><path class="cls-11" d="M304,423.9v-4.5h5.6v4.5Z" transform="translate(-143.2 -193.7)"/><path class="cls-11" d="M304,432.7v-4.6h5.6v4.3Z" transform="translate(-143.2 -193.7)"/><path class="cls-11" d="M304,441.2v-4.4h5.6v4.4Z" transform="translate(-143.2 -193.7)"/><path class="cls-4" d="M304,423.9h5.6v1.5h-5.8Z" transform="translate(-143.2 -193.7)"/><path class="cls-4" d="M304,441.2h5.6c0,.5.1.9.1,1.5h-5.8Z" transform="translate(-143.2 -193.7)"/><path class="cls-18" d="M304,432.7l5.6-.3v1.5H304Z" transform="translate(-143.2 -193.7)"/><path class="cls-8" d="M301.1,433.3l-.2-.5.2-1Z" transform="translate(-143.2 -193.7)"/><path class="cls-18" d="M297.7,433.9h0Z" transform="translate(-143.2 -193.7)"/><path class="cls-8" d="M295.5,428h-.1l-.4-.4.2-.2Z" transform="translate(-143.2 -193.7)"/><path class="cls-11" d="M300.5,425.4l.5-.2Z" transform="translate(-143.2 -193.7)"/><path class="cls-18" d="M300.2,433.9l.7-.2Z" transform="translate(-143.2 -193.7)"/><path class="cls-8" d="M301,436.6h.2l-.2.2Z" transform="translate(-143.2 -193.7)"/><path class="cls-11" d="M299.9,432.7h-3.5v-3.3h3.9Z" transform="translate(-143.2 -193.7)"/><path class="cls-11" d="M299,428.9h-2.1v-.2h2.3Z" transform="translate(-143.2 -193.7)"/><path class="cls-18" d="M300.8,446.2v1.3c-.2.8-.3,1.5-.5,2.4l-4,.4v-4.1Z" transform="translate(-143.2 -193.7)"/><path class="cls-8" d="M365.8,443.3h0Z" transform="translate(-143.2 -193.7)"/><path class="cls-5" d="M357.4,435.4v-2.2l2.1-.2C360.2,435,359.6,435.6,357.4,435.4Z" transform="translate(-143.2 -193.7)"/><path class="cls-16" d="M403.4,383.2l.9.3c-.3.9-.5,1.8-.8,3H407v2.8l-3.7.8-3.5.3-.3-.7v-3c.2-1.3.5-2.5.7-3.8l2.9-.3h.1Z" transform="translate(-143.2 -193.7)"/><path class="cls-14" d="M391.3,376.1h1.6v5.3h-4.7a30.3,30.3,0,0,1,.2-3.1c.7,1.5,1.9.5,3.3.7Z" transform="translate(-143.2 -193.7)"/><path class="cls-16" d="M399.8,379.8l-3.5-.3v-3.2h3.7c0,1.1.1,2.2.2,3.3h0Z" transform="translate(-143.2 -193.7)"/><path class="cls-5" d="M388.4,386.5v-3h3.9a4.1,4.1,0,0,0,.1,1.1v1.8Z" transform="translate(-143.2 -193.7)"/><path class="cls-14" d="M388.4,386.5h4a25.3,25.3,0,0,1,.1,2.8h-4.1Z" transform="translate(-143.2 -193.7)"/><path class="cls-8" d="M399.8,390.4l3.5-.3a26.2,26.2,0,0,0-.1,2.8h-3.4Z" transform="translate(-143.2 -193.7)"/><path class="cls-5" d="M399.5,386.7v3h-3.2v-3.1h3.2Z" transform="translate(-143.2 -193.7)"/><path class="cls-5" d="M407,386.5h-3.5c.3-1.2.5-2.1.8-3H407Z" transform="translate(-143.2 -193.7)"/><path class="cls-5" d="M391.3,376.1l.4,2.9c-1.4-.2-2.6.8-3.3-.7s-.8-1.9.8-2.2h2.1Z" transform="translate(-143.2 -193.7)"/><path class="cls-8" d="M403.2,382.7h-.1l-3-.4-.3-1.9.3-.7h2.5c1.7.9.7,2.2.6,3.3Z" transform="translate(-143.2 -193.7)"/><path class="cls-12" d="M400.1,382.2l3,.4-2.9.3c-.2,1.3-.5,2.5-.7,3.8h0Z" transform="translate(-143.2 -193.7)"/><path class="cls-16" d="M402.6,379.4h0Z" transform="translate(-143.2 -193.7)"/><path class="cls-12" d="M403.2,382.7h0l.2.5Z" transform="translate(-143.2 -193.7)"/><path class="cls-12" d="M400.1,379.6l-.3.7v-.5Z" transform="translate(-143.2 -193.7)"/><path class="cls-12" d="M401.4,393.1h0Z" transform="translate(-143.2 -193.7)"/><polygon class="cls-14" points="246.1 182.4 246.1 182.5 246 182.4 246.1 182.3 246.1 182.4"/><path class="cls-14" d="M392.4,385.1v0Z" transform="translate(-143.2 -193.7)"/><path class="cls-12" d="M403,393h0Z" transform="translate(-143.2 -193.7)"/><path class="cls-5" d="M409.5,358.2v7.3h-2.2V352.7l2.2-.2Z" transform="translate(-143.2 -193.7)"/><polygon class="cls-10" points="259 161.9 258.9 161.9 259 161.9 259 161.9"/><path class="cls-10" d="M406.8,362.3v3.2h-.2v-3.3Z" transform="translate(-143.2 -193.7)"/><path class="cls-18" d="M380.7,258.4l2.4.3h-.6l-1.9.2Z" transform="translate(-143.2 -193.7)"/><path class="cls-8" d="M220.6,427.4v4.1h4.8v8.4h-4.8V444h-7.8v-4h-5.1v-8.4h4.9v-4.2Zm-2.1,14.4.6-3.7h4.2l.2-4.8h-4.3l-.3-4.2h-4.3l-.2,4.3h-4.5v4.7h4.5l.2,3.9Z" transform="translate(-143.2 -193.7)"/><path class="cls-5" d="M267.5,435.2l1,.2V444H251.2v-8.7Zm-.8,6.9V437h-5.4v5.1Zm-13.6-.2h5.3V437h-5.3Z" transform="translate(-143.2 -193.7)"/><path class="cls-5" d="M229.2,444.4c-.1-1.6-.2-3.2-.2-4.8s0-2.4,0-3.6h19.3c-.2,2.8-.4,5.6-.5,8.4Zm11.3-2.7h5.3c0-1.2.1-2.1.1-3l.9,1.3.7-.3-.5-2.9c-3.7,0-7,.5-10.1-.1s-4.6.6-6.9.2v2.8l-.3-.5,1.4-.5v2.8h5.5v-3.1h1.1l.6,1.5,2-1.3v2.5l-2.2-.7-.5,2.5h1.6Zm-10.2.3-.5,1.1,1.2-.2Z" transform="translate(-143.2 -193.7)"/><path class="cls-10" d="M229.2,434.1l-.4-.4c.1-1.2.2-2.4.2-3.9h19V434H229.2Z" transform="translate(-143.2 -193.7)"/><path class="cls-10" d="M248.2,448.3H229v-2.1h19Z" transform="translate(-143.2 -193.7)"/><path class="cls-11" d="M248,434v-4.1h-3.1l.7-1.3H230.3l-1.6-.9v-3.8l.8-.9h18.2c1.8,1.4.7,3.2,1,4.7l-2.4,1.1v.3l2.3.3c0,1.4,0,2.7-.1,4S248.3,433.8,248,434Zm0-9.7a2.9,2.9,0,0,0-1.3-.5H231.1l-2.1.2v3.6h18.1a3.2,3.2,0,0,0,.9-.3Zm-16.4-.9h0Z" transform="translate(-143.2 -193.7)"/><path class="cls-4" d="M229.2,444.4h18.6v.8h-3.7l-13.4-.2Z" transform="translate(-143.2 -193.7)"/><path class="cls-4" d="M261.3,448.3H249c.2-.2.3-.5.5-.5h10.8A2.4,2.4,0,0,1,261.3,448.3Z" transform="translate(-143.2 -193.7)"/><path class="cls-11" d="M238.7,429.8H229c0,1.5-.1,2.7-.2,3.9-.1-1.4-.2-2.8-.3-4.4h4.4c1.5,0,3-.1,4.5,0S238.2,429.7,238.7,429.8Z" transform="translate(-143.2 -193.7)"/><path class="cls-11" d="M229.2,434.1h18.9a3.3,3.3,0,0,0-.6.6H229.6C229.7,434.6,229.5,434.4,229.2,434.1Z" transform="translate(-143.2 -193.7)"/><path class="cls-4" d="M267.5,435.2H251.2c.4-.1.8-.4,1.1-.4h14.2A2.9,2.9,0,0,1,267.5,435.2Z" transform="translate(-143.2 -193.7)"/><path class="cls-4" d="M271.3,448.3h-7.5c.3-.2.5-.5.8-.5h6C270.8,447.8,271.1,448.1,271.3,448.3Z" transform="translate(-143.2 -193.7)"/><path class="cls-11" d="M244.3,429.9h-3.1A2,2,0,0,1,244.3,429.9Z" transform="translate(-143.2 -193.7)"/><path class="cls-10" d="M290.1,244.3h2.6l.6.8h-9.2v-.3Z" transform="translate(-143.2 -193.7)"/><path class="cls-19" d="M403.2,332.8c-.4-.3-.7-.8-1.1-.8a15.4,15.4,0,0,0-3-.4v-.3h10.8a4.3,4.3,0,0,0,1.8-.6,3.8,3.8,0,0,0-.1,1c-2.5,0-5.1-.3-7.4,1.1C404,332.9,403.5,332.8,403.2,332.8Z" transform="translate(-143.2 -193.7)"/><path class="cls-5" d="M411.7,330.6a4.3,4.3,0,0,1-1.8.6H399.1c.1-1.1.1-2.1.1-3.2h11.9a14.5,14.5,0,0,0,.6,1.9Z" transform="translate(-143.2 -193.7)"/><path class="cls-11" d="M303.4,250.6v-2.8H306v2.8Z" transform="translate(-143.2 -193.7)"/><path class="cls-10" d="M320.4,253.2l-1-.8v12.8c-1.1.3-1.5-.5-1.5-1.4.1-2.6.3-5.2.4-7.9,0-.5-.1-1.1-.1-1.6a32.6,32.6,0,0,1-.5-3.3l2.2.9.5,1.2h0Z" transform="translate(-143.2 -193.7)"/><path class="cls-10" d="M303.1,256.4h3v9.2l-3,.2Z" transform="translate(-143.2 -193.7)"/><path class="cls-14" d="M310.9,253.1c.1-.9.3-1.8.4-2.8l2.3.3.2,2.5Z" transform="translate(-143.2 -193.7)"/><path class="cls-4" d="M318.4,267.8h-.6l.6-1.2Z" transform="translate(-143.2 -193.7)"/><path class="cls-4" d="M310.3,249.6l-.2,1.1-.5-.2.7-.9Z" transform="translate(-143.2 -193.7)"/><path class="cls-4" d="M310.3,249.6l.6-.6h0l-.6.6Z" transform="translate(-143.2 -193.7)"/><ellipse class="cls-4" cx="166.6" cy="58.4" rx="0.1" ry="0.4"/><path class="cls-4" d="M321.6,253.7h0Z" transform="translate(-143.2 -193.7)"/><path class="cls-7" d="M218.5,441.8l-3.9.2-.2-3.9h-4.5v-4.7h4.5l.2-4.3h4.3l.3,4.2h4.3l-.2,4.8h-4.2a2.2,2.2,0,0,0-.5,1.1A21.7,21.7,0,0,0,218.5,441.8Z" transform="translate(-143.2 -193.7)"/><path class="cls-16" d="M218.5,441.8a21.7,21.7,0,0,1,.1-2.6,2.2,2.2,0,0,1,.5-1.1Z" transform="translate(-143.2 -193.7)"/><path class="cls-16" d="M266.7,442.1h-5.4V437h5.4Z" transform="translate(-143.2 -193.7)"/><path class="cls-16" d="M253.1,441.9V437h5.3v4.9Z" transform="translate(-143.2 -193.7)"/><path class="cls-8" d="M240.4,438.7l-2,1.3-.6-1.5h-1.1l-5.6.3-1.4.5.3.5v-2.8c2.3.4,4.4-.8,6.9-.2s6.4.1,10.1.1l.5,2.9-.7.3-.9-1.3-2.1-.5h-.9Z" transform="translate(-143.2 -193.7)"/><path class="cls-18" d="M240.4,438.7l2.5-.5h.9l2.1.5c0,.9-.1,1.8-.1,3h-5.3l-.2-.5Z" transform="translate(-143.2 -193.7)"/><path class="cls-18" d="M231.1,438.7l5.6-.3v3.1h-5.5Z" transform="translate(-143.2 -193.7)"/><path class="cls-8" d="M240.3,441.2l.2.5-1.3,1.3h-1.6l.5-2.5Z" transform="translate(-143.2 -193.7)"/><path class="cls-8" d="M230.3,442l.7.9-1.2.2Z" transform="translate(-143.2 -193.7)"/><path class="cls-10" d="M248,424.3v3.1H229.9l-.8-2.5c.5-.3.7-.5,1-.5Z" transform="translate(-143.2 -193.7)"/><path class="cls-14" d="M248,424.3H230.1c-.3,0-.5.2-1,.5l.8,2.5H248a3.2,3.2,0,0,1-.9.3H229V424l2.1-.2h15.6A2.9,2.9,0,0,1,248,424.3Z" transform="translate(-143.2 -193.7)"/><path class="cls-4" d="M231.6,423.4h0Z" transform="translate(-143.2 -193.7)"/><path class="cls-5" d="M243.1,438.2h0Z" transform="translate(-143.2 -193.7)"/><path class="cls-8" d="M243.1,438.2h0Z" transform="translate(-143.2 -193.7)"/></g></g></svg>