<svg xmlns="http://www.w3.org/2000/svg" viewBox="0 0 302 44"><defs><style>.cls-1{fill:#110c2b;}.cls-2{fill:#d6bdb7;}.cls-3{fill:#f43f66;}.cls-4{fill:#f6f9e6;}.cls-5{fill:#e6d5c6;}.cls-6{fill:#f5914c;}.cls-7{fill:#46c4d7;}.cls-8{fill:#071e38;}.cls-9{fill:#6e8f9c;}.cls-10{fill:#c0305a;}.cls-11{fill:#120f2d;}.cls-12{fill:#f3edd6;}.cls-13{fill:#395a79;}.cls-14{fill:#4cb8ca;}.cls-15{fill:#af5739;}.cls-16{fill:#24102e;}</style></defs><g id="Capa_3" data-name="Capa 3"><rect class="cls-1" width="302" height="44"/></g><g id="Capa_2" data-name="Capa 2"><path class="cls-2" d="M258.1,399.3V381.4c0-.4.1-.7.1-1.1h3.1v22.9h-2.4V408H243.7a4.5,4.5,0,0,1-.1-1.2h-5.9V408H236v-4.8h-2.3V380.5l4.2-.2V382h0v5.4h0v.8c-.1,0,0,.1,0,.1v17.5h5.9V380.2h0v-.8h13.7v.9H244.7v.6c-.1,2-.1,4-.1,6.1v9c0,1,0,2.1.1,3.1s.2.3.3.5h12.7Zm-10.2,5.2v-2.8h-1.3v2.8Z" transform="translate(-172 -371.9)"/><path class="cls-3" d="M418.5,396.7v1.4h-1.3v1.7H416c-.1-1.1-.2-2.2-.2-3.4h-1.6V395h1.2c.8-.3.3-.9.4-1.4h-3.1v-3h0l-1.2-.3a17.6,17.6,0,0,0,0-2.3,3.1,3.1,0,0,0-.2-.8l-1-.2a4.8,4.8,0,0,1-.1-2.9l2.7-.3v-1h2.9v3.8h-1.6V388h0v1.1a8.2,8.2,0,0,0,4.4,0v-1l1.3-.3v-1.3h-1.3v-4.1h-2.4v0H416v-1.7h-1.7v-1.3h-1.4V378h5.5v2.9l1.6.4v1c.5.1.9.6,1.4,0h.6v-1.3h2.6v-1.5h-1.2v-1.4H426v1.5h1.2l.4.4v.3h0v.5h-1.6v1.5h-2.7v2.9l-1.4.2V388h1.4v1.3h4.6l-.2-1.3.2-1.5H426v-4.2h3.5v1.5h1.6V385l.5.7v4.7h-2.1c0,.1,0,.1.1.2v1.5h-1.7l-.2-.3v-1.1h-4.3v1.4h2.9c.1,1-.4,2.1,0,3.1h1.2l.4,1.4v3.2h-4.5V398h-1.4v-1.2h2.6v-1.6h-2.7l-.2,1.3h-2.5C418.9,396.4,418.7,396.6,418.5,396.7Zm-2.6-4.7h2.5v-1.1h-2.5Zm10.2,6.1v-1.3h-1.3v1.3Z" transform="translate(-172 -371.9)"/><path class="cls-3" d="M270.5,406.9v-2.1h-1.8v-2.2H267l-.2-2.2h-2.3v-2.5h-1.8v-6.1h1.6v-1.6h1.5v1.6h-1.5v4.4h4.2v-1.3h-2.6v-1.7h1.2a27.2,27.2,0,0,0,.1-2.8h1.5v1.5h11.1v-1.5H284v6.1h-4.3v1.3l-1.5.2-.2,1.6h-.9v1.3l-1.4.2v4.4l-1.1.2v1.3Zm7.5-10.7v-1.3h-7.7v1.3Z" transform="translate(-172 -371.9)"/><path class="cls-4" d="M326.7,408.7v-3.5h-2.1v1.6H322v-1.5h-2c0,1.1-.1,2.2-.1,3.3h-2.7c0-3.2,0-6.5-.1-9.8v-4.2h2.8v1.7h1.8V400h1V402h1v-1.9h1.1v-3.7h1.8v-1.7h2.8v13.9Z" transform="translate(-172 -371.9)"/><path class="cls-5" d="M197.6,401.5V404l-.3-1.5-.6.2-.9-.4-.2-.8h-2.7c-.1,0-.1.2-.2.2h-7.3l-.4-1.3h-.1l-.7-.9h-.1c-.1-6.2-.1-12.4-.1-18.7h.3a22.9,22.9,0,0,1-.2,2.5h10v16.4h1.3l.4.5a4.5,4.5,0,0,1,.1,1.2Zm-11.9-2.4v.9h2.5v-2.6h-2.2l-.4.3h0v1.3Zm2.6-7.3v-2.4h-2.5v2.7h2.1C188.1,392.1,188.2,391.9,188.3,391.8Zm0-3.7v-2.7h-2.5v2.8h2.5Zm4,7.9v-2.6h-2.6v2.7h2.7Zm-2.6-4.5v.5h2.6v-2.6h-2.5Zm0-4v.7h2.7v-2.8h-2.5Zm-1.5,8.1v-2.2h-2.4v2.7h2.5Zm1.5,4.4h2.5v-2.6h-2.5Zm7.5,1.8v-.2h-.9v.2Z" transform="translate(-172 -371.9)"/><path class="cls-6" d="M214.7,399.9h-2.3v-1.7h-1.5v-6.9h-1.8v-1.6h-1.5v-1.6h-1.2l-.6-.3a24.4,24.4,0,0,0,.1-2.7l1.5-.2v1.7h3.2v-1.5l1,.4.2-.2c.4.9.1,1.9.2,2.8H211v1.7h6.1a1.7,1.7,0,0,1-.1.8v1h-3.1V393h1.7v1.5l-1.2.3h-.2a4.3,4.3,0,0,0-.2,1.1v2.4c1.2-.2,2.3.1,3.3-.2v-1.5l.8-.2h.3c.1.3,0,.5.1.8a1.9,1.9,0,0,0,.2.8.1.1,0,0,0,.1.1H220v-1.3l-1.4-.4V396l.3-1.2h1.3v1.7h1.4v-5.1H220v-1.6H223v1.4h1.5v-3h1.6v1.6h1.4V388h-1.4v-1.6h3l.2,1.6h0v1.4h-.1a21.8,21.8,0,0,1-.1,2.5c0,.3-.2.5-.3.8h-4.2c0,.7-.1,1.3-.1,1.9h-1.4v3.5h-1.6v1.5h-6.9Z" transform="translate(-172 -371.9)"/><path class="cls-7" d="M371.5,410.5H356.3a5.3,5.3,0,0,1-.3-1.2V387.3h1.2V396h2.1v-7.3h1.6V396c-.1.5.2.4.5.4l1.5-.2v.3c.2-.3.4-.5.4-.8s0-2.7,0-4.1-.1-.2-.2-.3v-1.6l.8,1.3v3.9h.3l1.1,1.7.5-.2h1v-1.4h-.4v-2.2l.5,1.3v-1.8h.1l.3,2-.3.2,1.2.8v.9h1.4c0-.2.1-.5.1-.7v-8.1h1.6v23.3Zm-1.6-1.4a1.9,1.9,0,0,0,.2-.7v-9.7a2.4,2.4,0,0,0-.2-.8H357.2v11.3Z" transform="translate(-172 -371.9)"/><path class="cls-4" d="M313.8,390.7V377.1h8.6V379h1.9v10.3h-1.9v1.3l-2.4.2h-6.2Zm3.3-9.4v6.5h4.2v-6.6h-1.6v-1.3h-2.6Z" transform="translate(-172 -371.9)"/><path class="cls-6" d="M401.2,393.2l-1.5-.2v-1.2l-1.7-.2V393h-1.4v1.3h-1.4v1.3h-1.5v1.5h-1.5v1.3h-1.3v1.4h-1.4v1.2h0l-.7.2h0l-2.6-.2v1.2l.8.2v1.4l-.7-.2-.6.3v1.2l-1.4.4v1.3h-1.4v1.5h-2.8v-1.5h1.4v-1.5h1.4v-1.3h1.8v-1.6l.4-1,.9-.4h.2a.5.5,0,0,1,.2-.4v-.8l1.4-.2.3-1.2h1.3l.2-1.5h1.4v-1.3h1.5v-1.3h1.5l-.3-1.1v-.2h1.7v-2.5h0l1.7-.2v-1.3H395v-1.5h-1.3V386H392l-.2-1.3h-1.4v-1.4h-1.6v-1.6H392v1.5h1.2v-.4c0,.1.1.3.1.4v1.4l1.5.2v1.1h1.6l1.4.3v1.3l-.2,1.5h3.4v1.5h1.2l.2,1.2c.5.1,1,.4,1.5-.1l1.5.2v2.7h-1.5v1.4h-1.5a6.6,6.6,0,0,0,.1-1.4h1.3v-1.2h-1.4l-.2,1.3h-1.2C401.3,394,401.2,393.6,401.2,393.2Z" transform="translate(-172 -371.9)"/><path class="cls-4" d="M340.7,390.8v-1.5h-2.3V379.1h2.2v-2h7V379h2.1v10.3h-2v1.3l-.6.2h-6.3Zm1.3-10.9-.4,1.7v6.2h4.9v-7.6l-.4-.3H342Z" transform="translate(-172 -371.9)"/><path class="cls-4" d="M294,377.1c0,.2.2.5.2.7v1.3h1.7V384h1.2v2.3h2.7V384h1.1v-4.8h1.4v-2h3.5v2.8h-1.5v4.4h-1.5v3.3l-.6.2v1.4h-1.9v1.6h-3.8v-1.5h-1.9v-1.5l-.7-.2v-3.2h-1.2v-2.5c0-.2-.1-.3-.1-.5h0v-1.4H291v-2.8Z" transform="translate(-172 -371.9)"/><path class="cls-4" d="M311.5,408.5v-1.7h-5c0,.6-.1,1.2-.1,1.8h-2.9V402H305v-4.1h1.4v-1.7h1.4v-1.6h3.1v1.5h1.2v1.7h1.3V402h1.1v6.5ZM308,399v2.2h-1.4v2.5h4.8v-2.5h-1.2v-3.6h-2.4Z" transform="translate(-172 -371.9)"/><path class="cls-4" d="M292.7,408.6h0v-1.5H291v-.6h0V396.2h1.8v-1.6H299v1.5a5.6,5.6,0,0,1,1.3,0,.9.9,0,0,1,.5.3,2,2,0,0,0,.1.7v.3l-.5.2h-6.2v8.1H298v-1h-1.9v-2.5h4.7v6.5Z" transform="translate(-172 -371.9)"/><path class="cls-4" d="M327,390.8V377.1h9v2.7h-5.8v2.7h4.4v3.2h-4.4v2.1h5.6l.2.2v2.1h0v.3l-.4.2H327Z" transform="translate(-172 -371.9)"/><path class="cls-4" d="M434.8,389v-2.1h35.4V389h-13v1.5h-8.9l-.2-1.4H434.8Z" transform="translate(-172 -371.9)"/><path class="cls-4" d="M342.7,408.4v-2.7h6.1a1.1,1.1,0,0,0,.1-.5v-2h-3.8c-.2,0-.4-.2-.6-.4v-1.2h-1.8v-5.5h1.7v-1.5h6v1.5H352v1.4h-6.2v2.6h4.7V402H352v5.1h-1.5v1.1h0v.3h-6.9Z" transform="translate(-172 -371.9)"/><path class="cls-4" d="M332,408.6v-14h8.4v3h-5.2v2.6h4v2.9h-4v2.5h5.2v3H332Z" transform="translate(-172 -371.9)"/><path class="cls-8" d="M237.7,399.5v-.6h.2v-.9l-.2-.9a.8.8,0,0,0,.2-.5c0-.1-.2-.3-.2-.5v-1.7c.6-.4.3-.9,0-1.3v-.4l.4-1h-.4v-.8l.4-.8-.3-1v-.3h.2V388h-.2v-.5h0l.3-.7-.3-.9v-1l.3-1-.3-.4v-.6l.7-.3-.5-.4h-.3v-.8l.8-.2v-.5h4.5v3.8h-4.7v.6h4.7v.8h-4.8v.8h4.8c-.1,1.6-.1,3.1-.1,4.6v-.7h-4.7v.7h4.7l-.2.3c.7.8.3,1.7.3,2.6v-.5h-4.7v.6h4.7c.1,1.5.1,3,.1,4.5V398h-4.7v.7h4.7v.8h-4.7v.7h4.7l.2.7v2.8h-.1v1.3l-.7.5-1.3-.2-.3.6a4.4,4.4,0,0,1-3.2-.6v-1.4c.4-.7.4-1.2-.1-1.5v-.5A2.3,2.3,0,0,0,237.7,399.5Zm3.3-12.2h-2.1a.9.9,0,0,0-.5.3l.2.3h4.5v-.7H241Zm1.7-6.2h-4.3v.7h4.7v-.8Zm-4,1.6-.3.3.3.3h4.4v-.6Zm-.3,13h4.7V395h-4.7Zm4.7,6.9h-4.7v.6h4.7Zm0-6.1h-4.7v.6h4.7Zm0,7.6h-4.8v.7h4.7Zm.1-14.6v-.6h-4.7v.6Zm-.1,2.4h-4.7v.6h4.7Zm0,9.2h-4.7v.6h4.7Zm-4.8-15.5h-.1C238.2,385.6,238.2,385.6,238.3,385.6Z" transform="translate(-172 -371.9)"/><path class="cls-9" d="M371.5,410.5V387h1.8l1.3.2c.1,2,.1,4,.1,5.9v17.4Z" transform="translate(-172 -371.9)"/><path class="cls-10" d="M270.5,406.9h3.9v-1.3l1.1-.2V401l1.4-.2v-1.3h.9l.2-1.6,1.5-.2v-1.3H284v-4.6l1.6.2v5.9h-1.5l-.2,2.5h-2.5v2.1h-1.6v2.2h-1.6L278,407h-2v1.7h-2.6v-1.6h-2.2Z" transform="translate(-172 -371.9)"/><path class="cls-2" d="M185.4,401.7h7.3v1.4h1.8V405h1.5v1.8h1.5v1.8h3.1v1.6h-4.8v-1.7h-1.5v-1.6h-1.7v-2h-1.8v-1.6h-4.1V405h-1.7v2h-1.6v1.7h-1.8v1.7h-4.7v-1.6l3.1-.2.2-1.5h1.4l.2-1.9h1.6v-1.6l1.7-.2Z" transform="translate(-172 -371.9)"/><path class="cls-7" d="M436.5,405.3a6.2,6.2,0,0,1-.1-1.3l1-.3H468l.7.2V405c0,.1-.2.2-.3.3l-.3-.2H437.4l-.9-.2Z" transform="translate(-172 -371.9)"/><path class="cls-4" d="M311.3,377.3v13.2l-3.3.2v-5.8c0-1.7,0-3.4-.1-5.2v-2.6h3.2Z" transform="translate(-172 -371.9)"/><path class="cls-3" d="M356,381.4h-1.9V378H356v1.5h1.4v-1.5h1.9v1.5h1.5v-1.4h11.1v3.3h-1.6c.1-.5.1-1,.2-1.5h-.2v-.2h-5.8l-.4.4h.2v1.1h-4.8v1.5h-1.7v-1.6Z" transform="translate(-172 -371.9)"/><path class="cls-10" d="M371.8,381.4v-3.3c.3.8,1.1.4,1.7.6v1.6h1.5v2.5h-1.5v1.9H357.4v-1.9h14.4Z" transform="translate(-172 -371.9)"/><path class="cls-11" d="M245,380.8c.2-.1.4-.3.6-.3h12.2c-.4,4,.2,8-.4,11.9h-.3l-.7-1.5h-.7v-5.6h.8v-3c0-.1-.1-.2-.1-.3a.8.8,0,0,1-.1-.4l-1.2-.3h-.2l-2.6.3a1,1,0,0,0-.4.5v1.3l-.4.5h-.9l-.2-2.7H249l-.6-.3-2.4.4v3.8l.9.4-.2.7h.6l-.3.9-.5.2.2.4.3.3v.4l-.3.6a4.2,4.2,0,0,1-.4,1,4,4,0,0,1-.4-2.6v-2H245Z" transform="translate(-172 -371.9)"/><path class="cls-7" d="M457.2,390.5V389h13c0,2.7.1,5.4.1,8.1v6.6h-1.4V390.5H457.2Z" transform="translate(-172 -371.9)"/><path class="cls-10" d="M415.7,386.5v-3.8h-2.9v1l-2.7.3a4.8,4.8,0,0,0,.1,2.9l-.3.4-.2-.4c0,1.5.1,2.8,0,4s-.2.8-.2,1.2h-2.6v-8.3h4.5V381l1.4-.2v-3.1h5.8c.2,1.1-.2,2.2.3,3.1H420l.2,1.3h1.2c-.5.6-.9.1-1.4,0v-1l-1.6-.4V378h-5.5v1.2h1.4v1.3H416v1.7h-.2v-1.6l-1.7.2h-1.4v1.5h3.1v4.2Z" transform="translate(-172 -371.9)"/><path class="cls-7" d="M436.6,389.1h11.5c0,.5.1,1,.1,1.5h-12v11.7a4.3,4.3,0,0,1,.1.5c-.4.3-.3.6,0,.9h-1.6l.2-.3v-14Z" transform="translate(-172 -371.9)"/><path class="cls-9" d="M194.1,399.7V381h1.8v18.8h1.7v1.7h-1.7a4.5,4.5,0,0,0-.1-1.2l-.4-.5Zm1.9.3v1.2h1.4v-1.2Z" transform="translate(-172 -371.9)"/><path class="cls-12" d="M185.4,401.7v1.5l-1.7.2V405H182l-.2,1.9h-1.4l-.2,1.5-3.1.2v-3.1h1.8V404h1.6v-2.5h1.7v-1.6h1.9l.7.9h.1Z" transform="translate(-172 -371.9)"/><path class="cls-13" d="M237.1,408.7h21.4l.4,1.3h-23v-1.3Z" transform="translate(-172 -371.9)"/><path class="cls-4" d="M217,390.4v-.8H211v-1.7h13.6v3h-1.5v-1.4h-2.9c0,.5-.1,1.1-.1,1.6h-2.9Z" transform="translate(-172 -371.9)"/><path class="cls-12" d="M200.9,408.8h-3.1V407h-1.5v-1.8h-1.5v-1.8h-1.8v-1.4c.1,0,.1-.2.2-.2h2.7l.2.8.9.4.6-.2.3,1.5h0l1.6.4v1.3h1.6v3Z" transform="translate(-172 -371.9)"/><path class="cls-14" d="M182.7,399.8h-.4V381.1h1.6v18.4Zm-.1-15.1h0v12.1h0Zm-.1,14.7h.3l-.2-1.9h-.1Zm.2-16.3h0Zm-.1-1.6h0Z" transform="translate(-172 -371.9)"/><path class="cls-12" d="M194.1,381v2.3h-10a22.9,22.9,0,0,0,.2-2.5Z" transform="translate(-172 -371.9)"/><path class="cls-7" d="M453.6,382.4h12.2v1.2H453.1v2h-1.4v-6l.6-.2h.7c0,.3.1.6.1.9v2Z" transform="translate(-172 -371.9)"/><path class="cls-8" d="M408,405.8c0,.1,0,.3-.1.3s-.6.5-.5.9a1.2,1.2,0,0,1-1.7.7H392a1.5,1.5,0,0,1,.1-2,2.1,2.1,0,0,0,.4-.6h14.2l.2.8Zm-15.8,1.6h14.5v-1.2H392.2Z" transform="translate(-172 -371.9)"/><path class="cls-15" d="M205.9,384.9a24.4,24.4,0,0,1-.1,2.7v-1.3h-1.6v-7.6h1.7v2h3v-1.8a7.6,7.6,0,0,0,.1,1.5,4.3,4.3,0,0,0,.2,1.1h1.5v2.7l-.2-.9-1.3.2v2.9h-1.7v-3.1h1.7v-1.4l-1.6.4-.5-1.1h-2.8V383l1.6.3Z" transform="translate(-172 -371.9)"/><path class="cls-16" d="M189.4,377v-.5l1.1.2v-1.3l.4-.5a6.9,6.9,0,0,0,4.5,0l.7.7v1h1.4l.3.4v1h1.2l.3.5h-1.9V377h-1.4v2.3h1.9v2.1h1.4v-2.6l.2,2.2,1.1.4.6-.2c0,1.2-.1,2.3,0,3.4a5,5,0,0,0,.2,1.2c0,.5-.1.9-.1,1.2a13.8,13.8,0,0,1,.1,2.8c0,1.9-.2,3.7-.2,5.6a22.8,22.8,0,0,0,.2,2.6h1.1l.3.4v.8l.8.5h-1v.7l-.5-.6h-1.1l-.3-.7.2-.7h-1l-.5-.4V381.6l-1.2.2-.8-.4.2-1c-.5-.9-.7-1-1.6-.6l-.6-.7.2-2.1h-4.8v2.3a1.5,1.5,0,0,1-.3.7v-2.8l-.3-.3Zm11.9,21.1v1.6h1.5l-.2-1.5h-1.4V381.5H200v16.6Zm-5.4-22.6h-5v1.2h5Z" transform="translate(-172 -371.9)"/><path class="cls-4" d="M371.5,387v.2H355.7V386h15.9Z" transform="translate(-172 -371.9)"/><path class="cls-3" d="M223,404v.2a6.3,6.3,0,0,0-.4.9H206.1V404Z" transform="translate(-172 -371.9)"/><path class="cls-8" d="M247,388.7v-1.3l.3-.9h1.3l.7.4-.3,3.8a5.6,5.6,0,0,0,3.8.2l.8.3v-6.9h-1l-.2,1-2.2.2h-2.5l-.4.3h-.4l-.9-.4v-3.8l2.4-.4.6.3-2.7.4v3.4h4v-3.4l-1.2-.4h1.3l.2,2.7h.8c-.6.3-.3.7-.3,1.2h1.3v-1.1h-.8l.4-.5v-1.3a1,1,0,0,1,.4-.5v2.2h1.4l.2-1.1h1.2v1.4h-1V391h1.4a12.1,12.1,0,0,1,0-1.9v-3.8h1v-3.1c0,.1.1.2.1.3v3h-.8V391l-.5.4h-.8l-.5.9v-1.1h-5.1v1.2H251v1.8c-.1-.2-.3-.4-.3-.6a4,4,0,0,1,0-1.1h-2.3v-1.4l-.9.2a.9.9,0,0,1-.4-1.1,5,5,0,0,0,.1-2.1v.7h-.1Zm1.9,2.3v-4.2h-1.4v4.3Zm1.8-6.4h-.2v.5h.2Z" transform="translate(-172 -371.9)"/><path class="cls-6" d="M401.2,381.6h1.3v1.6H404v1.4h-1.4v2.9h-3.2v-1.1h0l.3-1.6h-1.5v-1.4h1.4l.2,1.4h1.1l.2-1.5Z" transform="translate(-172 -371.9)"/><path class="cls-7" d="M392.2,408.9h14.5v1.2H392.2Z" transform="translate(-172 -371.9)"/><path class="cls-13" d="M408,405.8h-1.1l-.2-.8H392.5c-.7-.1-.2-.6-.2-.9h15.8v1.2c0,.1-.1.2-.1.3Z" transform="translate(-172 -371.9)"/><path class="cls-7" d="M214,381.9v-1.1h10.5v1.1Z" transform="translate(-172 -371.9)"/><path class="cls-14" d="M276,382.2h2.1v1.6h3.1v1.3h-1.5v1.5h-1.5V385H276Z" transform="translate(-172 -371.9)"/><path class="cls-10" d="M223,404H206.1v1.1h16.6a6.3,6.3,0,0,1,.4-.9v1.1H206v-1.4h-1.5v-2.4l-1.4-.3h1.3v-1.2H204l.7,1.2h-.1l1.4.2v2.6h16.3Zm-18.3-2.7v2.4h1.2v-2.4Z" transform="translate(-172 -371.9)"/><path class="cls-7" d="M292.7,408.6h8.2v1.6h-8.2Z" transform="translate(-172 -371.9)"/><path class="cls-16" d="M375.1,382.9v-2.5h-1.5v-1.6c-.6-.2-1.4.2-1.7-.6H354.1l.2-.5a25.4,25.4,0,0,1,3.9,0,8.1,8.1,0,0,0,2.2,0c3.7-.1,7.4,0,11.1,0h.6l.2.6h1.3v1.3h.2c1.4.2,1.4.2,1.5,1.6s.3,1,.4,1.5Z" transform="translate(-172 -371.9)"/><path class="cls-13" d="M406.7,411.2l.2-.9H408v1.4H392.2a.8.8,0,0,0-.1-.3.4.4,0,0,0,.1-.3Z" transform="translate(-172 -371.9)"/><path class="cls-7" d="M342.7,408.4l.8.2h6.9a8.1,8.1,0,0,1,.1,1.6h-7.8Z" transform="translate(-172 -371.9)"/><path class="cls-4" d="M267.3,396.2h-2.9v-4.4h1.5v-1.6h1.3v2.8h-1.2v1.7h1.4Z" transform="translate(-172 -371.9)"/><path class="cls-4" d="M399.4,400.4v-1.1h10.3v1.1Z" transform="translate(-172 -371.9)"/><path class="cls-12" d="M451.1,377.9v1.2h-8.7v-1.2Z" transform="translate(-172 -371.9)"/><path class="cls-4" d="M422.8,406.7v-1.3H432v1.3Z" transform="translate(-172 -371.9)"/><path class="cls-15" d="M214.7,399.9h6.9v1.5h-6.9Z" transform="translate(-172 -371.9)"/><path class="cls-12" d="M451.6,382.4v1.2h-9.2v-1.2Z" transform="translate(-172 -371.9)"/><path class="cls-10" d="M429.5,390.5h2.1v-4.7l-.5-.7h2v6.1c0,.2-.1.5-.1.8h-1.5v-1.4Z" transform="translate(-172 -371.9)"/><path class="cls-14" d="M272.7,385h-2.4v1.6h-1.6v-1.5h-1.5v-1.3h2.5l.7-.2h1.4l1-.2V385Z" transform="translate(-172 -371.9)"/><path class="cls-13" d="M431.8,409.6v-1.2h8.5v1.2Z" transform="translate(-172 -371.9)"/><path class="cls-16" d="M245,399.5c-.1-.2-.3-.3-.3-.5s-.1-2.1-.1-3.1h.6l.2-.4h11.9l.5.9-.2,1.5h-.5v-.6l.2-1.2H245.5v1.3h2.2l-.2.3a4.8,4.8,0,0,0-1.2,0l-.7.2h-.3C244.7,398.4,245.1,399,245,399.5Z" transform="translate(-172 -371.9)"/><path class="cls-12" d="M409.8,387.3l.3-.4,1,.2v3.4h1.4c0,.1.1.1.1.2s.1.8.1,1.3h-2.8c0-.3-.1-.5-.1-.8v-4Z" transform="translate(-172 -371.9)"/><path class="cls-3" d="M274.9,376.3v1.9h-2.4c0,.6-.1,1-.1,1.5h-2.2v-1.5h2.2v-2Z" transform="translate(-172 -371.9)"/><path class="cls-14" d="M345.8,399v-1.5H352V399Z" transform="translate(-172 -371.9)"/><path class="cls-7" d="M251.1,394.3v-1.8h-2.2v-1.2h5.1v1.1h0l-1.4.2v1.6Z" transform="translate(-172 -371.9)"/><path class="cls-14" d="M330.2,381.4v-1.6H336v1.5h-5.8Z" transform="translate(-172 -371.9)"/><path class="cls-7" d="M287.1,378.5V381h-5.7v-1.1h4.4v-1.4Z" transform="translate(-172 -371.9)"/><path class="cls-3" d="M189.4,377h1.1l.3.3v2.8h-2.2a8.5,8.5,0,0,1-1.6,0v-1.4h2.4Z" transform="translate(-172 -371.9)"/><path class="cls-16" d="M272.7,385v-.5c.1-.2.3-.4.3-.6v-1.5l.6-.5h1.8v.9h-.1v7.7l.5-.9v2h-3.3v-2.9l.5-.2v-2.9C273,385.5,272.8,385.3,272.7,385Zm.6,5.5v.7H275v-8.9h-1.7Z" transform="translate(-172 -371.9)"/><path class="cls-7" d="M187.2,410.9v-2.2l1.3.2v1.5h1v-1.4h1.3v2.7h-3.5A1.3,1.3,0,0,0,187.2,410.9Z" transform="translate(-172 -371.9)"/><path class="cls-10" d="M412.5,392.1h.2v3.1h1.5v1.3h1.6c0,1.2.1,2.3.2,3.4l-.3-.6v-2.6h-4.4c.1-1.2.1-2.3.2-3.4S412.6,392.8,412.5,392.1Z" transform="translate(-172 -371.9)"/><path class="cls-4" d="M423,409.5h-6.7v-1.2H423Z" transform="translate(-172 -371.9)"/><path class="cls-9" d="M237.8,408v-1.2h5.9a4.5,4.5,0,0,0,.1,1.2Z" transform="translate(-172 -371.9)"/><path class="cls-5" d="M393.1,393.3l.3,1.1h-1.5v1.3h-1.5v1.3h-1.4l-.2,1.5h-1.3L387,400h-.2v-1.1l1.6-.4.4-2.5v-.3h1.5l-.3-.5h.4l-.2-.4h.2c1,.4,1.1-.8,1.6-1.1h.7l.3.5Z" transform="translate(-172 -371.9)"/><path class="cls-7" d="M340.8,390.8H347l.7.5-.6.7h-6.5v-.3l.3-.2h-.3v-.6Z" transform="translate(-172 -371.9)"/><path class="cls-14" d="M335.2,399v-1.4h5.2a7.6,7.6,0,0,0,.1,1.4Z" transform="translate(-172 -371.9)"/><path class="cls-10" d="M427.7,379.9l-.4-.4h-1.2v-1.5h-2.5v1.4h1.2v1.5H422v1.3h-.6c.1-.3.3-.5.3-.8a16.1,16.1,0,0,0,0-2.2h1.4l.2-1.5h2.9v1.5h1.5Z" transform="translate(-172 -371.9)"/><path class="cls-9" d="M186.9,405v-1.6H191V405Z" transform="translate(-172 -371.9)"/><path class="cls-11" d="M257.1,397.8v.2h-.8l.7.9h.7l.4.4-.4.2h-5.2l-.7-.2h-3.9l.9-.3h6v-.9h2.3Zm-1.2.3h-.3v.4h.2Z" transform="translate(-172 -371.9)"/><path class="cls-12" d="M388.8,395.9l-.4,2.5-1.6.4v1.1h-.3c-.2-.4-.4-.5-.8-.4v-2h1.5V396Z" transform="translate(-172 -371.9)"/><path class="cls-12" d="M380.7,405.7v1.5h-1.4l-1.1.2v1.1l.8.2h-1.1l.3-2.8h.8l.4-.2.3-1.1h1.2Z" transform="translate(-172 -371.9)"/><path class="cls-6" d="M231,386.3v2.4l-2.2.2v-2.8l1.1-.2Z" transform="translate(-172 -371.9)"/><path class="cls-6" d="M208.8,378.8v1.8h-3v-2h1.4Z" transform="translate(-172 -371.9)"/><path class="cls-6" d="M231.8,384.8v1.8h-3v-2h1.4Z" transform="translate(-172 -371.9)"/><path class="cls-4" d="M385.4,391.6v1.1h-4.8v-1.1Z" transform="translate(-172 -371.9)"/><path class="cls-4" d="M427.8,399.8v-3.2h.9l.8.3v3Z" transform="translate(-172 -371.9)"/><path class="cls-6" d="M232.1,387.9H231v-4.6h1.2v4.6Z" transform="translate(-172 -371.9)"/><path class="cls-14" d="M200.9,405.8h-1.6a5.7,5.7,0,0,1-.1-1.3c-.2-.1-.3-.3-.4-.4h-1.2v-1.5h1.6v1.6H201v1.7Z" transform="translate(-172 -371.9)"/><path class="cls-12" d="M207.2,409.1v-1.2h4.4v1.2Z" transform="translate(-172 -371.9)"/><path class="cls-10" d="M418.5,396.7c.2-.1.4-.3.6-.3h2.5l.2-1.3h2.7v1.6h-2.6v1.2h1.4v1.8l-.2-1.6h-1.4v-1.6Z" transform="translate(-172 -371.9)"/><path class="cls-14" d="M313.8,390.7H320l2.4-.2v1.5h-8.6Zm8.5.5h-8.1l-.4.7h8.1Z" transform="translate(-172 -371.9)"/><path class="cls-14" d="M355.7,387.3h.3v22.1a5.3,5.3,0,0,0,.3,1.2h-.6V394.2c0-.3.1-.5.1-.7V388c0-.2-.1-.4-.1-.6Z" transform="translate(-172 -371.9)"/><path class="cls-14" d="M327,390.8h9v1.3h-9.1Zm.2,1.1h8.6v-.8h-8.5Z" transform="translate(-172 -371.9)"/><path class="cls-10" d="M224.7,399.4c0,1.5,0,2.9.1,4.3h-.2v-3.1l-.5-.4-.8.3v3.1c0-.3-.1-.6-.1-1v-2.8h-1.6v-.2a4.2,4.2,0,0,0,.4-1l1.2-.3h1.1Z" transform="translate(-172 -371.9)"/><path class="cls-14" d="M296.5,390.8h3.8v1.4h-3.8Z" transform="translate(-172 -371.9)"/><path class="cls-4" d="M410,409v-2h3.1a9.7,9.7,0,0,1-.1,1.7h-1.4a3.4,3.4,0,0,0-.3-.8v1Z" transform="translate(-172 -371.9)"/><path class="cls-16" d="M245,380.8v4.9c0,.4-.1.9-.1,1.4s-.1,2.6,0,3.9.2,2.4.3,3.6l-.6.6v-8.3c0-2.1,0-4.1.1-6.1Z" transform="translate(-172 -371.9)"/><path class="cls-12" d="M281.4,408.2V407h4v1.2Z" transform="translate(-172 -371.9)"/><path class="cls-14" d="M311.5,408.5h3.1v1.6h-3.1Z" transform="translate(-172 -371.9)"/><path class="cls-14" d="M294.2,399v-1.5h6.2l.5-.2V399Zm6.6-.7V398h-6.1v.9h5C300.1,398.8,300.4,398.5,300.8,398.3Z" transform="translate(-172 -371.9)"/><path class="cls-14" d="M436.3,403.7h32.4v-.8h.1v1h.5l-.7.2-.7-.2H437.4l-1,.3Z" transform="translate(-172 -371.9)"/><path class="cls-11" d="M378.9,380.9h-1l.7,1.4c-1.1.2-1.4-.5-1.2-1.9h.7l.6-.9v-1c.4-.5.8-.6,1.1-.4l1.4.3V380l.6.3-.4.8h-.5v-1.8c-.7-1-1.3,0-2-.1Z" transform="translate(-172 -371.9)"/><path class="cls-4" d="M427.8,392.1h1.7v2.5l-.3.4h-1.5v-2.9Z" transform="translate(-172 -371.9)"/><path class="cls-16" d="M237.8,405.2a4.4,4.4,0,0,0,3.2.6l.3-.6,1.3.2.7-.5v-1.3h.1v-2.8c.1-.4.3-.7.4-1.1v6.1h-5.9Z" transform="translate(-172 -371.9)"/><path class="cls-2" d="M238.4,379.4h4.7v.9h-4.7v-.9Z" transform="translate(-172 -371.9)"/><path class="cls-12" d="M237.7,380.3l-4.2.2v-1.2h4.2v1.1Z" transform="translate(-172 -371.9)"/><path class="cls-15" d="M383.6,406l1.4-.4v-1.2l.6-.3.7.2v-1.4l-.8-.2v-1.2l2.6.2V403h-1.2v1.3h-1.5v1.4Z" transform="translate(-172 -371.9)"/><path class="cls-15" d="M399.4,387.3h1.8c-.1.5-.1,1-.2,1.5h-3.2a10.4,10.4,0,0,0,.2-1.5Z" transform="translate(-172 -371.9)"/><path class="cls-5" d="M404.2,391.6c-.5.5-1,.2-1.5.1l-.2-1.2h-1.2v-1.5h1.3l.2,1.4h1.5Z" transform="translate(-172 -371.9)"/><path class="cls-14" d="M436.5,405.3v-.4l.9.2h30.7l.3.2H436.5Z" transform="translate(-172 -371.9)"/><path class="cls-7" d="M303.5,408.6h2.9v1.6h-2.9Z" transform="translate(-172 -371.9)"/><path class="cls-7" d="M317.2,408.6h2.7v1.6h-2.7Z" transform="translate(-172 -371.9)"/><path class="cls-7" d="M326.7,408.7l2.8-.2v1.7h-2.8Z" transform="translate(-172 -371.9)"/><path class="cls-3" d="M223.3,403.7v-3.1l.8-.3.5.4v3.1h-1.3Z" transform="translate(-172 -371.9)"/><path class="cls-14" d="M332.2,408.7h8.2a9.2,9.2,0,0,0,.1,1.6H332v-1.3Zm7.8.3h-7.7v1.1H340l.4-.6Z" transform="translate(-172 -371.9)"/><path class="cls-11" d="M430.9,383.3v-.6l-.5-.2a20.8,20.8,0,0,1,0-2.5c0-.1.2-.2.3-.3h.2v1.6l.3.6h0l.4.8,1.2-.6.6,1.1Z" transform="translate(-172 -371.9)"/><path class="cls-12" d="M427,408.4h2.7v1.2H427Z" transform="translate(-172 -371.9)"/><path class="cls-12" d="M393.1,393.3v.6l-.3-.5H392c-.5.3-.6,1.5-1.6,1.1v-1.3l1.5-.2v-.8l.2-.3h1.1v1.5Z" transform="translate(-172 -371.9)"/><path class="cls-4" d="M261.2,380.2h-3v-1.1h3v.8Z" transform="translate(-172 -371.9)"/><path class="cls-14" d="M243.1,398.7h-4.7V398h4.7v.6Z" transform="translate(-172 -371.9)"/><path class="cls-3" d="M276,391.4v-2.6h2.2v1.4H276Z" transform="translate(-172 -371.9)"/><path class="cls-4" d="M272.7,383.4l-1,.2h-1.4v-1.4h2.4Z" transform="translate(-172 -371.9)"/><path class="cls-3" d="M272.5,388.8a6.6,6.6,0,0,1,.1,1.4h-2.4V389l-.6-.2Z" transform="translate(-172 -371.9)"/><path class="cls-14" d="M243.1,384.9h-4.7v-.6h4.7v.5Z" transform="translate(-172 -371.9)"/><path class="cls-14" d="M243.1,394.1h-4.7v-.6h4.7v.5A.1.1,0,0,1,243.1,394.1Z" transform="translate(-172 -371.9)"/><path class="cls-12" d="M418.4,404.4h-2v-1.3h2Z" transform="translate(-172 -371.9)"/><path class="cls-10" d="M442.8,407.4v-1.3h4.8v1.3Zm4.6-.2v-.8h-4.2v.8Z" transform="translate(-172 -371.9)"/><path class="cls-14" d="M344.5,402.8c.2.2.4.4.6.4h3.8v1.4a1.5,1.5,0,0,0-.7-.3h-3.7Zm4.4.8c-1.7-.4-3.7-.2-4.1.4,1.2,0,2.3.1,3.5,0S348.6,403.8,348.9,403.6Z" transform="translate(-172 -371.9)"/><path class="cls-14" d="M434.1,381.1v-1.9l2-.2v2.1Z" transform="translate(-172 -371.9)"/><path class="cls-14" d="M442.4,382.4v1.2h-1.5v-1l1.1-.4v-2.4h-1.1v-.4h1.2Z" transform="translate(-172 -371.9)"/><path class="cls-16" d="M261.3,402.2V380.8c.1.1.2.1.2.2,0,6.8-.1,13.5-.1,20.3C261.4,401.6,261.3,401.9,261.3,402.2Z" transform="translate(-172 -371.9)"/><path class="cls-14" d="M221.9,376.3v1.3h-1.7v-1.3Z" transform="translate(-172 -371.9)"/><path class="cls-12" d="M431.5,390.7v1.4h-1.8c0-.1-.1-.1-.2-.2a4.9,4.9,0,0,1,.1-1.2Z" transform="translate(-172 -371.9)"/><path class="cls-7" d="M440.9,379.8H442v2.4l-1.1.4v-2.8Z" transform="translate(-172 -371.9)"/><path class="cls-2" d="M182.7,399.8l1.2-.3V381.1h.1c0,6.3,0,12.5.1,18.7Z" transform="translate(-172 -371.9)"/><path class="cls-6" d="M205.7,378.6h-1.6v-1.6h1.5Z" transform="translate(-172 -371.9)"/><path class="cls-16" d="M243.7,380.9v18.6c0-.3-.1-.6-.1-.9V381.7C243.6,381.4,243.7,381.2,243.7,380.9Z" transform="translate(-172 -371.9)"/><path class="cls-7" d="M178.9,404v1.7h-1.8v-1.5Z" transform="translate(-172 -371.9)"/><path class="cls-5" d="M205.7,394.5v-1.3h1.7v1.3Z" transform="translate(-172 -371.9)"/><path class="cls-12" d="M433,385.1h-1.9v-1.2H433v1.3Z" transform="translate(-172 -371.9)"/><path class="cls-2" d="M385.6,398.9a1.3,1.3,0,0,0,.1.6c-.1.7.5.4.8.4h.5l-1.4.2v.8a.5.5,0,0,0-.2.4,4.1,4.1,0,0,1-.1-1.1h-1.1l-.2.6.2-1.9Z" transform="translate(-172 -371.9)"/><path class="cls-2" d="M396.6,385.8H395v-1.1l-1.5-.2v-.8l.3.7h1.2l1.7.2h-.2l.2.3v.8Z" transform="translate(-172 -371.9)"/><path class="cls-14" d="M291,407h1.7v1.5H291Z" transform="translate(-172 -371.9)"/><path class="cls-4" d="M383.7,384.8v1.1h-1.9v-.2l.2-1.2h1.8Z" transform="translate(-172 -371.9)"/><path class="cls-11" d="M442.7,383.6h8.9v.3h-8.3Z" transform="translate(-172 -371.9)"/><path class="cls-9" d="M308,390.7l3.3-.2v1.7H308Zm2.8.2-2.4-.2-.4,1.2h3.1Z" transform="translate(-172 -371.9)"/><path class="cls-4" d="M357.5,382.9H356v-1.5h1.5Z" transform="translate(-172 -371.9)"/><path class="cls-3" d="M274.7,381.8h-1.4a6.1,6.1,0,0,1-.1-1.4h1.5Z" transform="translate(-172 -371.9)"/><path class="cls-12" d="M278.2,390.2v-1.4h1.7v1.4h-1.7Z" transform="translate(-172 -371.9)"/><path class="cls-14" d="M340.6,392h6.5l.6-.7-.7-.5.6-.2c0,.5.1,1,.1,1.5h-6.5Z" transform="translate(-172 -371.9)"/><path class="cls-14" d="M411.4,407H410v-1.5h1.5Z" transform="translate(-172 -371.9)"/><path class="cls-12" d="M205.7,378.6v-1.4h1.3l.3.3a4.8,4.8,0,0,1,0,1.2h-1.5Z" transform="translate(-172 -371.9)"/><path class="cls-5" d="M401.2,381.6c0,.4-.1.9-.1,1.4l-.4.2-1-.2a.1.1,0,0,0-.1-.1v-1.3Z" transform="translate(-172 -371.9)"/><path class="cls-15" d="M395,388.9h1.5v1.3l-1.7.2h-.5l.6-.2Z" transform="translate(-172 -371.9)"/><path class="cls-14" d="M436.6,389.1l-1.7.2v14l-.2.3v-9.3c0-1.8,0-3.5.1-5.3Z" transform="translate(-172 -371.9)"/><path class="cls-10" d="M266.8,408.8h1.5v1.3h-1.5Z" transform="translate(-172 -371.9)"/><path class="cls-10" d="M429.3,395.1l.3-.4,1.4.5v1.3a3.4,3.4,0,0,0-1,0l-.4.3h-.1l-.8-.3h.8Z" transform="translate(-172 -371.9)"/><path class="cls-10" d="M452.4,409.4h-1.5v-1.2h1.5Z" transform="translate(-172 -371.9)"/><path class="cls-15" d="M377.9,408.8h1.8l-.5.2v1.4H378l-.3-.6A5,5,0,0,1,377.9,408.8Z" transform="translate(-172 -371.9)"/><path class="cls-11" d="M258.9,378.7v-1.3l1.8-.3-.6,1.6-1.1.3Z" transform="translate(-172 -371.9)"/><path class="cls-15" d="M402.5,394.5l.2-1.3h1.4v1.2h-1.3a6.6,6.6,0,0,1-.1,1.4A6.8,6.8,0,0,1,402.5,394.5Z" transform="translate(-172 -371.9)"/><path class="cls-14" d="M304.3,381.3v-1.4h1.5v1.4Z" transform="translate(-172 -371.9)"/><path class="cls-12" d="M417.2,399.8v-1.7h1.3v1.7Z" transform="translate(-172 -371.9)"/><path class="cls-14" d="M457,409.7v-1.4h1.7v1.4Zm1.3-.2v-.8h-1.1v.8Z" transform="translate(-172 -371.9)"/><path class="cls-4" d="M269.7,388.8l.6.2c0,.4-.1.7-.1,1.1h-1.5c-.1-.1-.1-.1-.1-.2v-1.1Z" transform="translate(-172 -371.9)"/><path class="cls-12" d="M393.3,382.7v.4H392v-1.5h1.3Z" transform="translate(-172 -371.9)"/><path class="cls-6" d="M209.1,384.8v-1.3l1.3-.2.2.9v.5Z" transform="translate(-172 -371.9)"/><path class="cls-6" d="M228,380.8v-1.3l1.4-.2a2.9,2.9,0,0,1,.2.9v.5Z" transform="translate(-172 -371.9)"/><path class="cls-6" d="M226.1,385.8v-1.3l1.3-.2.2.9v.5Z" transform="translate(-172 -371.9)"/><path class="cls-5" d="M394.9,384.4h-1.2l-.3-.7v-.6h1.5Z" transform="translate(-172 -371.9)"/><path class="cls-11" d="M244.6,378.7l7.4.2h-7.4Z" transform="translate(-172 -371.9)"/><path class="cls-14" d="M410,409h1.2v-1a3.4,3.4,0,0,1,.3.8,1.4,1.4,0,0,0-.2.6c-.1.2,0,.5,0,.8H410Z" transform="translate(-172 -371.9)"/><path class="cls-8" d="M378.9,380.9v-1.8c.7.1,1.3-.9,2,.1V381l-.2-.2c0-.1-.1-.2-.1-.4V380c0-.3.4-.7-.3-.8h-1.2l.4,1.6h1.1v.3h-1.1Z" transform="translate(-172 -371.9)"/><path class="cls-14" d="M182.3,399.8v1.6h-.7l-.5-.7-.5-.7Z" transform="translate(-172 -371.9)"/><path class="cls-10" d="M230.8,398.3v1.4h-1.2v-1.4Z" transform="translate(-172 -371.9)"/><path class="cls-16" d="M429.6,396.8l.4-.3a3.4,3.4,0,0,1,1,0v-1.3l-1.4-.5a7.6,7.6,0,0,1-.1-1.5l.4,1.4h1.2l.3,1.8Z" transform="translate(-172 -371.9)"/><path class="cls-4" d="M374.6,387.2l-1.3-.2a3.4,3.4,0,0,0-.1-1h1.4Z" transform="translate(-172 -371.9)"/><path class="cls-14" d="M413,408.7a9.7,9.7,0,0,0,.1-1.7h1v1.7Z" transform="translate(-172 -371.9)"/><path class="cls-12" d="M390.2,394.6l.2.4H390l.3.5h-1.5v-1Z" transform="translate(-172 -371.9)"/><path class="cls-2" d="M373.2,386a3.4,3.4,0,0,1,.1,1h-1.8v-1Z" transform="translate(-172 -371.9)"/><path class="cls-13" d="M205.3,410.9h-1.1v-1.5h1.1Z" transform="translate(-172 -371.9)"/><path class="cls-14" d="M266.3,381H265v-1.9h1.3Zm-.2-1.7h-.8v1.4h.8Z" transform="translate(-172 -371.9)"/><path class="cls-12" d="M394.3,390.3h.4a.1.1,0,0,1,.1.1v.2l-.5.9h-.8v-.4c.1-.3-.3-.8.3-.9h.6Z" transform="translate(-172 -371.9)"/><path class="cls-12" d="M380.8,404v-.9h1.3a3.7,3.7,0,0,1,.1,1.1h0l-1.3.3h-.1Z" transform="translate(-172 -371.9)"/><path class="cls-12" d="M382.4,402.3v-.5h1.5v.8l-1.5.5Z" transform="translate(-172 -371.9)"/><path class="cls-12" d="M384,400.9l.2-.6h1.1a4.1,4.1,0,0,0,.1,1.1h-.2c-.4-.2-1,.3-1.2-.4Z" transform="translate(-172 -371.9)"/><path class="cls-4" d="M396.6,385.4V385c0-.1.1-.2.1-.3h1.2v1.1h-1Z" transform="translate(-172 -371.9)"/><path class="cls-11" d="M430.9,383.8h-1.4v-4.1h0l.3,3.6.3-.3.8.3h0Z" transform="translate(-172 -371.9)"/><path class="cls-14" d="M180.6,402.2V404h-.6c.1-.3.1-.6.3-1.2l-1.1.3-.2-.4.5-.2Z" transform="translate(-172 -371.9)"/><path class="cls-9" d="M307.9,379.7c.1,1.8.1,3.5.1,5.2v4.5c-.1-2.6-.1-5.2-.1-7.8Z" transform="translate(-172 -371.9)"/><path class="cls-16" d="M414.5,406.6l.6.4h-.2c0,1,0,2-.1,3s-.2.5-.3.8Z" transform="translate(-172 -371.9)"/><path class="cls-15" d="M232.5,383.6v4.3h-.3v-4.6h.3Z" transform="translate(-172 -371.9)"/><path class="cls-15" d="M210.5,384.7v-.2l1.6.3v3.1h-.1c-.1-.9.2-1.9-.2-2.8l-.2.2-1-.4Z" transform="translate(-172 -371.9)"/><path class="cls-8" d="M189.5,408.9v1.4h-1v-1.5l.4.6Z" transform="translate(-172 -371.9)"/><path class="cls-7" d="M178.9,402.7l.2.4,1.1-.3c-.2.6-.2.9-.3,1.2h-1Z" transform="translate(-172 -371.9)"/><path class="cls-11" d="M257.8,379.3l-.7-.7c.5-.6,1.1-.6,1.5.1Z" transform="translate(-172 -371.9)"/><path class="cls-8" d="M189.7,411.6h1.1v-2.7a2.1,2.1,0,0,1,.3.7,7.6,7.6,0,0,0,.1,1.5Q190.6,412.4,189.7,411.6Z" transform="translate(-172 -371.9)"/><path class="cls-2" d="M384,401c.2.7.8.2,1.2.4l-.9.4a4.2,4.2,0,0,1-.4,1v-1h-1.5l1.5-.3Z" transform="translate(-172 -371.9)"/><path class="cls-14" d="M291,379.9h.7c-.1.4-.9.5-.2,1.1h1.1v.3h-1.7Z" transform="translate(-172 -371.9)"/><path class="cls-13" d="M355.7,387.4c0,.2.1.4.1.6v5.5c0,.2-.1.4-.1.7Z" transform="translate(-172 -371.9)"/><path class="cls-15" d="M412.5,392.1c.1.7-.7.7-1,1.1a3.7,3.7,0,0,1-.1-1.1Z" transform="translate(-172 -371.9)"/><path class="cls-11" d="M252.6,378.8h0Z" transform="translate(-172 -371.9)"/><path class="cls-13" d="M459.9,382.4h0Z" transform="translate(-172 -371.9)"/><path class="cls-15" d="M409.8,387.3v4c0,.3.1.5.1.8h-.5c0-.4.2-.8.2-1.2s0-2.5,0-4Z" transform="translate(-172 -371.9)"/><path class="cls-16" d="M399.6,383.1h-1.4v1.4h1.5l-.3,1.6h0v-1.3H398v-1.8h1.6a.1.1,0,0,1,.1.1Z" transform="translate(-172 -371.9)"/><path class="cls-7" d="M180.6,400l.5.7.5.7h-1Z" transform="translate(-172 -371.9)"/><path class="cls-2" d="M377.9,408.8a5,5,0,0,0-.2,1.2h.1v-3.8c0-.1.2-.2.4-.3Z" transform="translate(-172 -371.9)"/><path class="cls-9" d="M335.5,387.8h0Z" transform="translate(-172 -371.9)"/><path class="cls-11" d="M238.4,380.3h.3v.2a.9.9,0,0,1-.1.5l-.8.2a1.3,1.3,0,0,0-.1-.6v-.3h0v-.2Z" transform="translate(-172 -371.9)"/><path class="cls-11" d="M429.9,378.1a.9.9,0,0,1,.9.9Q429.8,378.8,429.9,378.1Z" transform="translate(-172 -371.9)"/><path class="cls-8" d="M242.2,408.7h0Z" transform="translate(-172 -371.9)"/><path class="cls-13" d="M464.5,382.4h0Z" transform="translate(-172 -371.9)"/><path class="cls-11" d="M234.7,410.7l.9-.7.2,1.1Z" transform="translate(-172 -371.9)"/><path class="cls-11" d="M240.9,379h-1.2Q240.3,378.3,240.9,379Z" transform="translate(-172 -371.9)"/><path class="cls-11" d="M431.2,382v-1.4h.3c-.1.5.5,1-.3,1.4Z" transform="translate(-172 -371.9)"/><path class="cls-8" d="M256.9,408.8h0Z" transform="translate(-172 -371.9)"/><path class="cls-9" d="M336,390.8h-.4l.4-.2Z" transform="translate(-172 -371.9)"/><path class="cls-15" d="M268.6,390c0,.1,0,.1.1.2h-.1Z" transform="translate(-172 -371.9)"/><path class="cls-2" d="M380,404.6h-.3l-.3,1.1v-1.2h.7Z" transform="translate(-172 -371.9)"/><path class="cls-13" d="M453.6,382.4h-.5v-2c0,.6.1,1.1.1,1.8Z" transform="translate(-172 -371.9)"/><path class="cls-2" d="M427.8,379.4h1.7v.3h0Z" transform="translate(-172 -371.9)"/><path class="cls-11" d="M237.7,379.2h-.2v-.3h.8v.4h0Z" transform="translate(-172 -371.9)"/><path class="cls-16" d="M245.9,387v.7l-.4-.4Z" transform="translate(-172 -371.9)"/><path class="cls-2" d="M382.4,402.3v.8h-.2Z" transform="translate(-172 -371.9)"/><path class="cls-11" d="M383.6,384.5h0Z" transform="translate(-172 -371.9)"/><path class="cls-9" d="M380.6,380.4c0,.2.1.3.1.4h-1Z" transform="translate(-172 -371.9)"/><path class="cls-16" d="M233.5,379.9v.9h-.3v-.9Z" transform="translate(-172 -371.9)"/><path class="cls-15" d="M388.8,401.5v-1.2h.6l-.4.2Z" transform="translate(-172 -371.9)"/><path class="cls-8" d="M245.5,408.7h0Z" transform="translate(-172 -371.9)"/><path class="cls-11" d="M381.8,382.1l-.2-.4h.3a.9.9,0,0,0,.1.5Z" transform="translate(-172 -371.9)"/><path class="cls-16" d="M235.9,406.4v0Z" transform="translate(-172 -371.9)"/><path class="cls-16" d="M224,387.9h-.7C223.6,387.5,223.8,387.5,224,387.9Z" transform="translate(-172 -371.9)"/><path class="cls-8" d="M190.8,408.8h-1.3C189.9,408.4,190.3,408.6,190.8,408.8Z" transform="translate(-172 -371.9)"/><path class="cls-11" d="M433.1,384v-.2h.5v.6Z" transform="translate(-172 -371.9)"/><path class="cls-8" d="M252.5,392.6l1.4-.2Z" transform="translate(-172 -371.9)"/><path class="cls-11" d="M242,379h-.5v-.2h.5Z" transform="translate(-172 -371.9)"/><path class="cls-15" d="M401.2,393.2c0,.4.1.8.1,1.3S401.2,393.6,401.2,393.2Z" transform="translate(-172 -371.9)"/><path class="cls-9" d="M380,404.6h.7c0-.2.1-.3.1-.4v.5Z" transform="translate(-172 -371.9)"/><path class="cls-8" d="M258.5,408.8h0Z" transform="translate(-172 -371.9)"/><path class="cls-15" d="M216.1,388h0Z" transform="translate(-172 -371.9)"/><path class="cls-11" d="M433.6,389.4v-.3h.2v.4Z" transform="translate(-172 -371.9)"/><path class="cls-16" d="M235,403.6h0Z" transform="translate(-172 -371.9)"/><path class="cls-11" d="M377.5,379.5v-.4h.1v.4Z" transform="translate(-172 -371.9)"/><path class="cls-11" d="M380.8,384.5h0Z" transform="translate(-172 -371.9)"/><path class="cls-8" d="M237.1,408.7h0Z" transform="translate(-172 -371.9)"/><path class="cls-16" d="M278.5,375.9v.6h-.1v-.6Z" transform="translate(-172 -371.9)"/><path class="cls-5" d="M393,391.8h0Z" transform="translate(-172 -371.9)"/><path class="cls-11" d="M381.6,385.7v.2l-.2.2h-.1Z" transform="translate(-172 -371.9)"/><path class="cls-11" d="M243.7,379.2l-.4-.2v-.2l.5.4h-.2Z" transform="translate(-172 -371.9)"/><path class="cls-2" d="M393,391.8h.3l-.2.2Z" transform="translate(-172 -371.9)"/><path class="cls-11" d="M261.3,378.8h.3v.2h-.3Z" transform="translate(-172 -371.9)"/><path class="cls-2" d="M379,405.9h0Z" transform="translate(-172 -371.9)"/><path class="cls-11" d="M433,392.1c0-.3.1-.6.1-.8S433,391.8,433,392.1Z" transform="translate(-172 -371.9)"/><path class="cls-15" d="M401.3,394.5h0Z" transform="translate(-172 -371.9)"/><path class="cls-8" d="M243.2,385.7v.8h-.1v-.8Z" transform="translate(-172 -371.9)"/><path class="cls-11" d="M433.5,383.8v-.5h.2l-.2.4Z" transform="translate(-172 -371.9)"/><path class="cls-8" d="M187.2,410.9a1.3,1.3,0,0,1,.1.6A1.3,1.3,0,0,0,187.2,410.9Z" transform="translate(-172 -371.9)"/><path class="cls-11" d="M379.4,382h0Z" transform="translate(-172 -371.9)"/><path class="cls-10" d="M202.9,400.6v-.3l.2.8H203C203,401,202.9,400.8,202.9,400.6Z" transform="translate(-172 -371.9)"/><path class="cls-14" d="M300.9,397.1a2,2,0,0,1-.1-.7A2,2,0,0,0,300.9,397.1Z" transform="translate(-172 -371.9)"/><path class="cls-15" d="M223.5,403.8h0Z" transform="translate(-172 -371.9)"/><path class="cls-15" d="M388.1,401.7l.7-.2Z" transform="translate(-172 -371.9)"/><path class="cls-11" d="M381.5,384.2V384h.1v.2Z" transform="translate(-172 -371.9)"/><path class="cls-16" d="M235.8,403.3v0Z" transform="translate(-172 -371.9)"/><path class="cls-13" d="M429.5,391.9c.1.1.2.1.2.2l-.2.3v-.5Z" transform="translate(-172 -371.9)"/><path class="cls-11" d="M433.6,386.5h0Z" transform="translate(-172 -371.9)"/><path class="cls-8" d="M408,405.7c0-.1.1-.2.1-.3h.3Z" transform="translate(-172 -371.9)"/><path class="cls-11" d="M234.4,410.5h-.1A.1.1,0,0,1,234.4,410.5Z" transform="translate(-172 -371.9)"/><path class="cls-14" d="M292.6,381.3c0,.2.1.3.1.5S292.6,381.5,292.6,381.3Z" transform="translate(-172 -371.9)"/><path class="cls-11" d="M383.7,384.8v-.3l.3.2Z" transform="translate(-172 -371.9)"/><path class="cls-9" d="M308,377.1v0Z" transform="translate(-172 -371.9)"/><path class="cls-11" d="M257.9,398.3v.3h0v-.3Z" transform="translate(-172 -371.9)"/><path class="cls-13" d="M452.3,379.4l-.6.2Z" transform="translate(-172 -371.9)"/><path class="cls-11" d="M234.7,377.6h0Z" transform="translate(-172 -371.9)"/><path class="cls-14" d="M340.7,391.4h.3l-.3.2Z" transform="translate(-172 -371.9)"/><path class="cls-3" d="M266.9,390.1h0Z" transform="translate(-172 -371.9)"/><path class="cls-14" d="M304.3,382.1v0Z" transform="translate(-172 -371.9)"/><path class="cls-11" d="M381.9,378.1h-.1c.1,0,.1,0,.1-.1h.1A.1.1,0,0,0,381.9,378.1Z" transform="translate(-172 -371.9)"/><path class="cls-11" d="M429.5,379.4h0Z" transform="translate(-172 -371.9)"/><path class="cls-2" d="M391.9,392.6v0Z" transform="translate(-172 -371.9)"/><path class="cls-16" d="M235.7,404.1l-.2-.2v.2Z" transform="translate(-172 -371.9)"/><path class="cls-13" d="M465.8,382.4h0Z" transform="translate(-172 -371.9)"/><path class="cls-15" d="M212.6,387.9h0Z" transform="translate(-172 -371.9)"/><path class="cls-2" d="M393.4,391.2a.8.8,0,0,0,.1.4h-.2Z" transform="translate(-172 -371.9)"/><path class="cls-6" d="M224.3,387.9l.3.2h-.3Z" transform="translate(-172 -371.9)"/><path class="cls-2" d="M392,391.8h0l-.2.3Z" transform="translate(-172 -371.9)"/><path class="cls-14" d="M348.9,404.9v0Z" transform="translate(-172 -371.9)"/><polygon class="cls-11" points="64.2 38.6 64.3 38.6 64.2 38.6 64.2 38.6"/><path class="cls-16" d="M261.2,380.2h.1v.2Z" transform="translate(-172 -371.9)"/><polygon class="cls-11" points="261.2 20.4 261.2 20.4 261.2 20.5 261.2 20.4"/><path class="cls-5" d="M398,385a.4.4,0,0,1-.1-.3h.1Z" transform="translate(-172 -371.9)"/><path class="cls-9" d="M336,388l-.2-.2Z" transform="translate(-172 -371.9)"/><path class="cls-2" d="M200.9,405.8h.1v0Z" transform="translate(-172 -371.9)"/><path class="cls-7" d="M332.2,408.7l-.2.2v-.3Z" transform="translate(-172 -371.9)"/><polygon class="cls-14" points="122 5.2 122 5.2 122 5.2 122 5.2"/><polygon class="cls-7" points="148 33.4 148 33.4 148 33.4 148 33.4"/><path class="cls-13" d="M243.7,379.2h0Z" transform="translate(-172 -371.9)"/><polygon class="cls-7" points="298.2 15 298.2 15.1 298.2 15 298.3 15 298.2 15"/><path class="cls-11" d="M245.4,380.2h0Z" transform="translate(-172 -371.9)"/><path class="cls-14" d="M340.8,390.8v0Z" transform="translate(-172 -371.9)"/><path class="cls-16" d="M236,408.1Z" transform="translate(-172 -371.9)"/><path class="cls-8" d="M243.3,408.7h0Z" transform="translate(-172 -371.9)"/><path class="cls-9" d="M336,390.2h0Z" transform="translate(-172 -371.9)"/><polygon class="cls-15" points="221.8 18.4 221.7 18.4 221.8 18.4 221.8 18.4"/><path class="cls-16" d="M243.7,379.6v.2h0Z" transform="translate(-172 -371.9)"/><path class="cls-13" d="M453,379.5Z" transform="translate(-172 -371.9)"/><path class="cls-2" d="M261.2,379.3h0Z" transform="translate(-172 -371.9)"/><path class="cls-15" d="M224.5,403.8h0Z" transform="translate(-172 -371.9)"/><polygon class="cls-14" points="240 36.8 240 36.7 240 36.8 240 36.8"/><path class="cls-13" d="M452.6,379.4h0Z" transform="translate(-172 -371.9)"/><path class="cls-16" d="M243.7,380.1h0Z" transform="translate(-172 -371.9)"/><path class="cls-9" d="M192,405h0Z" transform="translate(-172 -371.9)"/><path class="cls-11" d="M261.1,379.2h0Z" transform="translate(-172 -371.9)"/><polygon class="cls-7" points="178.5 36.4 178.5 36.4 178.5 36.4 178.5 36.4 178.5 36.4"/><path class="cls-9" d="M311.3,377.3v0Z" transform="translate(-172 -371.9)"/><polygon class="cls-14" points="119 34.5 119 34.5 118.9 34.5 119 34.5"/><path class="cls-1" d="M248.8,398.7l-.9.3h3.9l.7.2H245c.1-.5-.3-1.1.3-1.5s.4.3.6.3h1.5c.2.2.3.4.5.4A2.7,2.7,0,0,0,248.8,398.7Z" transform="translate(-172 -371.9)"/><path class="cls-1" d="M247.9,404.5h-1.3v-2.8h1.3Z" transform="translate(-172 -371.9)"/><path class="cls-16" d="M237.7,399.5a2.3,2.3,0,0,1,.1,2.3Z" transform="translate(-172 -371.9)"/><path class="cls-16" d="M237.7,402.3c.5.3.5.8.1,1.5Z" transform="translate(-172 -371.9)"/><path class="cls-16" d="M237.8,393c.3.4.6.9,0,1.3Z" transform="translate(-172 -371.9)"/><path class="cls-1" d="M238,382.1l.5.4-.7.3h0V382Z" transform="translate(-172 -371.9)"/><path class="cls-16" d="M237.8,389l.3,1-.4.8Z" transform="translate(-172 -371.9)"/><path class="cls-1" d="M237.8,397c.1.3.1.6.2.9v.9h-.2V397Z" transform="translate(-172 -371.9)"/><path class="cls-16" d="M237.8,397v-1c0,.2.2.4.2.5A.8.8,0,0,1,237.8,397Z" transform="translate(-172 -371.9)"/><path class="cls-16" d="M237.8,391.6h.4l-.4,1Z" transform="translate(-172 -371.9)"/><path class="cls-1" d="M238.1,386.7l-.3.7h0v-.3Z" transform="translate(-172 -371.9)"/><path class="cls-16" d="M238.1,386.7l-.3.4v-1.3Z" transform="translate(-172 -371.9)"/><path class="cls-1" d="M237.8,383.4l.3.4h-.3v-.4Z" transform="translate(-172 -371.9)"/><path class="cls-16" d="M237.8,383.8h.3l-.3,1Z" transform="translate(-172 -371.9)"/><path class="cls-16" d="M237.8,398v0Z" transform="translate(-172 -371.9)"/><path class="cls-16" d="M237.7,380.6a1.3,1.3,0,0,1,.1.6.6.6,0,0,1-.1.4Z" transform="translate(-172 -371.9)"/><path class="cls-16" d="M237.8,394.6v0Z" transform="translate(-172 -371.9)"/><path class="cls-11" d="M238,388v.7l-.2-.3s-.1-.1,0-.1Z" transform="translate(-172 -371.9)"/><path class="cls-16" d="M237.8,404.1v0Z" transform="translate(-172 -371.9)"/><path class="cls-16" d="M237.8,383.4h-.1v-.6h0Z" transform="translate(-172 -371.9)"/><path class="cls-16" d="M238,388l-.2.3V388Z" transform="translate(-172 -371.9)"/><path class="cls-1" d="M254.2,399.4h0Z" transform="translate(-172 -371.9)"/><path class="cls-16" d="M237.8,388.4l.2.3h-.2Z" transform="translate(-172 -371.9)"/><path class="cls-16" d="M237.8,397.5v0Z" transform="translate(-172 -371.9)"/><path class="cls-16" d="M237.8,387.4Z" transform="translate(-172 -371.9)"/><path class="cls-16" d="M238,382.1h0Z" transform="translate(-172 -371.9)"/><path class="cls-4" d="M423.2,383.2v-.9H426v5.5l-2.8.2Z" transform="translate(-172 -371.9)"/><path class="cls-4" d="M415.8,382.3h2.8V388l-2.7-.2v-5.5Z" transform="translate(-172 -371.9)"/><path class="cls-10" d="M423.2,383.2V388l2.8-.2,1.6.2.2,1.3h-4.6V388h-1.4v-2.6l1.4-.2Z" transform="translate(-172 -371.9)"/><path class="cls-10" d="M415.8,387.8l2.7.2v-1.5h1.3v1.3l-1.3.3v1a8.2,8.2,0,0,1-4.4,0V388Z" transform="translate(-172 -371.9)"/><path class="cls-6" d="M426.2,392.1h-2.9v-1.4h4.3a4.5,4.5,0,0,1,.1,1.1Z" transform="translate(-172 -371.9)"/><path class="cls-6" d="M427.8,379.4l1.7.3v2.6h-1.8v-2h0v-.3A.9.9,0,0,0,427.8,379.4Z" transform="translate(-172 -371.9)"/><path class="cls-6" d="M415.9,392v-1.1h2.5V392Z" transform="translate(-172 -371.9)"/><path class="cls-16" d="M427.6,388l-1.6-.2v-1.3h1.8Z" transform="translate(-172 -371.9)"/><path class="cls-10" d="M426.2,392.1l1.4-.3.2.3c0,.4-.1.8-.1,1.1s-.9-.1-1.4.1V395h1.5v1.6h0a7.4,7.4,0,0,0-.4-1.4h-1.2C425.8,394.2,426.3,393.1,426.2,392.1Z" transform="translate(-172 -371.9)"/><path class="cls-16" d="M415.8,387.8l-1.7.2h0v-1.4h1.7Z" transform="translate(-172 -371.9)"/><path class="cls-16" d="M414.2,395H414a7.1,7.1,0,0,0,.1-1.4h1.7c-.1.5.4,1.1-.4,1.4h-1.2Z" transform="translate(-172 -371.9)"/><path class="cls-4" d="M414.1,393.6a7.1,7.1,0,0,1-.1,1.4h-1.3v-1.6Z" transform="translate(-172 -371.9)"/><path class="cls-6" d="M426.1,398.1h-1.3v-1.3h1.3Z" transform="translate(-172 -371.9)"/><path class="cls-16" d="M427.7,380.8v1.5H426v-1.5Zm-.1,1.2-.5-1.1-.8.4v.7Z" transform="translate(-172 -371.9)"/><path class="cls-10" d="M412.5,390.5h-1.4v-3.4a3.1,3.1,0,0,1,.2.8,17.6,17.6,0,0,1,0,2.3Z" transform="translate(-172 -371.9)"/><path class="cls-2" d="M431.5,390.7h-1.9c-.1-.1-.1-.1-.1-.2Z" transform="translate(-172 -371.9)"/><path class="cls-10" d="M414.1,386.6v0Z" transform="translate(-172 -371.9)"/><path class="cls-10" d="M417.7,382.3h0Z" transform="translate(-172 -371.9)"/><path class="cls-10" d="M415.4,386.5h0Z" transform="translate(-172 -371.9)"/><path class="cls-10" d="M414.5,395h0Z" transform="translate(-172 -371.9)"/><path class="cls-10" d="M416.2,382.3h-.1v0Z" transform="translate(-172 -371.9)"/><path class="cls-10" d="M427.7,380.2h0Z" transform="translate(-172 -371.9)"/><path class="cls-10" d="M412.6,390.7c0-.1-.1-.1-.1-.2S412.6,390.6,412.6,390.7Z" transform="translate(-172 -371.9)"/><path class="cls-12" d="M278,396.2h-7.7v-1.3H278Z" transform="translate(-172 -371.9)"/><path class="cls-12" d="M270.3,390.2h2.3a7.6,7.6,0,0,0,.1,1.5h-2.4v-1.5Z" transform="translate(-172 -371.9)"/><path class="cls-12" d="M276,391.4v-1.2h2.2v1.5H276Z" transform="translate(-172 -371.9)"/><path class="cls-10" d="M278.1,391.7v-1.5h1.7v1.5Z" transform="translate(-172 -371.9)"/><path class="cls-10" d="M270.3,390.2a.6.6,0,0,0-.1.4v1.1h-1.6v-1.5h1.6Z" transform="translate(-172 -371.9)"/><path class="cls-6" d="M267.3,396.2v-1.3h1.2v1.3Z" transform="translate(-172 -371.9)"/><path class="cls-16" d="M189.7,400v-2.6h2.5V400Z" transform="translate(-172 -371.9)"/><path class="cls-16" d="M185.8,395.5v-2.1h2.4v2.2Z" transform="translate(-172 -371.9)"/><path class="cls-16" d="M185.8,387.8v-2.4h2.5v2.1Z" transform="translate(-172 -371.9)"/><path class="cls-16" d="M189.7,387.5v-2.1h2.5v2.1Z" transform="translate(-172 -371.9)"/><path class="cls-16" d="M189.7,391.5v-2.1h2.5v2Z" transform="translate(-172 -371.9)"/><path class="cls-16" d="M185.8,391.7v-2.3h2.5v2Z" transform="translate(-172 -371.9)"/><path class="cls-16" d="M192.3,395v.4h-2.5v-2h2.6V395Z" transform="translate(-172 -371.9)"/><path class="cls-1" d="M185.8,398.1v-.3h0l.4-.3h2.2a.4.4,0,0,0-.1.3h-2.1v1.9l1.9-.2.2-1.1V400h-2.5v-1.9Z" transform="translate(-172 -371.9)"/><path class="cls-1" d="M189.7,387.5h2.5v.7h-2.7Z" transform="translate(-172 -371.9)"/><path class="cls-1" d="M189.7,395.4h2.5v.6h-2.7Z" transform="translate(-172 -371.9)"/><path class="cls-1" d="M185.8,387.8l2.5-.3v.6h-2.5Z" transform="translate(-172 -371.9)"/><path class="cls-11" d="M189.7,391.5h2.5v.6h-2.6Z" transform="translate(-172 -371.9)"/><path class="cls-1" d="M185.8,391.7l2.5-.3v.4c-.1.1-.2.3-.4.3h-2.1Z" transform="translate(-172 -371.9)"/><path class="cls-1" d="M185.8,395.5h2.4v.5h-2.5Z" transform="translate(-172 -371.9)"/><path class="cls-12" d="M197.2,401.8h-.9v-.2h.9Z" transform="translate(-172 -371.9)"/><path class="cls-16" d="M185.8,398.1v0Z" transform="translate(-172 -371.9)"/><path class="cls-13" d="M188.2,397.7a.4.4,0,0,1,.1-.3v.3Z" transform="translate(-172 -371.9)"/><path class="cls-2" d="M194.1,399.7h0Z" transform="translate(-172 -371.9)"/><path class="cls-12" d="M188.3,391.8v0Z" transform="translate(-172 -371.9)"/><path class="cls-2" d="M185.7,399.1v0Z" transform="translate(-172 -371.9)"/><path class="cls-9" d="M192.3,395v0Z" transform="translate(-172 -371.9)"/><path class="cls-9" d="M192.3,393.7v0Z" transform="translate(-172 -371.9)"/><path class="cls-16" d="M188.1,388.2h0Z" transform="translate(-172 -371.9)"/><path class="cls-9" d="M192.2,396.1h0Z" transform="translate(-172 -371.9)"/><path class="cls-2" d="M185.7,397.7h0Z" transform="translate(-172 -371.9)"/><path class="cls-4" d="M218.4,396.4h-1.1l-.4,1.6h-2.8v-3.2h4.4v1.5Z" transform="translate(-172 -371.9)"/><path class="cls-4" d="M220.2,391.4h1.4v5.1h-1.4v-1.7h-1.3l-.2-1.6h1.5Z" transform="translate(-172 -371.9)"/><path class="cls-12" d="M229.3,385.6v.3c0,.2-.1.4-.1.6h-3v-1.6h1.5v-3.3h1.5c.1,1.1.1,2.3.1,3.4v.5h0Z" transform="translate(-172 -371.9)"/><path class="cls-3" d="M220.2,391.4v1.7h-4.6c0-.5-.1-1.1-.1-1.6H217v-1a3.1,3.1,0,0,1,.1,1h3.1Z" transform="translate(-172 -371.9)"/><path class="cls-15" d="M224.7,399.4l-.4-1.1h-1.1v-3.5h1.4c0-.6.1-1.2.1-1.9Z" transform="translate(-172 -371.9)"/><path class="cls-5" d="M215.6,393h3.1c.1.5.1,1,.2,1.6h-3.3V393Z" transform="translate(-172 -371.9)"/><path class="cls-12" d="M210.5,384.7l.2.2a8.6,8.6,0,0,1-.1,1.5h-1.5v-1.6Z" transform="translate(-172 -371.9)"/><path class="cls-12" d="M226.2,388h1.4v1.6h-1.4Z" transform="translate(-172 -371.9)"/><path class="cls-12" d="M207.4,383.3v1.4l-1.5.2c0-.6-.1-1.1-.1-1.6Z" transform="translate(-172 -371.9)"/><path class="cls-2" d="M218,396.4h.1l-.8.2v1.5c-1,.3-2.1,0-3.3.2v-2.4a4.3,4.3,0,0,1,.2-1.1V398h2.8c.1-.6.3-1.1.4-1.6Z" transform="translate(-172 -371.9)"/><path class="cls-15" d="M229.4,388.1h1.4v1.4h-1.4Z" transform="translate(-172 -371.9)"/><path class="cls-12" d="M220,396.7V398h0a.1.1,0,0,0-.1.1h-1.2v-1.6Z" transform="translate(-172 -371.9)"/><path class="cls-5" d="M215.5,391.4c0,.5.1,1.1.1,1.6h-1.7v-1.6Zm-.3.3h-1v1C215.1,392.9,215.3,392.6,215.2,391.7Z" transform="translate(-172 -371.9)"/><path class="cls-15" d="M223.2,398.4l-1.2.3a4.2,4.2,0,0,1-.4,1v-1.3Z" transform="translate(-172 -371.9)"/><path class="cls-2" d="M220,396.7l-1.3-.2v1.6a2.9,2.9,0,0,1-.2-.9c-.1-.3,0-.5-.1-.8h.2Z" transform="translate(-172 -371.9)"/><path class="cls-15" d="M229.3,389.5a25.3,25.3,0,0,1,.1,2.8c0,.2,0,.6-.5.5s.3-.5.3-.8A21.8,21.8,0,0,0,229.3,389.5Z" transform="translate(-172 -371.9)"/><path class="cls-15" d="M229.2,386.5c0-.2.1-.4.1-.6v2.2Z" transform="translate(-172 -371.9)"/><path class="cls-2" d="M215.5,394.5v.2h-1.3Z" transform="translate(-172 -371.9)"/><path class="cls-2" d="M218.5,394.8h.4l-.3,1.2A4.9,4.9,0,0,0,218.5,394.8Z" transform="translate(-172 -371.9)"/><path class="cls-2" d="M218.8,398.1h0Z" transform="translate(-172 -371.9)"/><path class="cls-2" d="M220,398v0Z" transform="translate(-172 -371.9)"/><path class="cls-2" d="M219.1,394.8h0Z" transform="translate(-172 -371.9)"/><path class="cls-2" d="M219.9,398.1a.1.1,0,0,1,.1-.1Z" transform="translate(-172 -371.9)"/><path class="cls-11" d="M369.9,409.1H357.2V397.8h12.7Zm-5.1-8.1h-.5v-1.5h-1.7V401h1.6v1.1l-.2,2.1h-1.5v1.4h1.5v1.5h1.5v-1.4l1.7-.3v-2.6h-1.3l-.4-.2v-.2l.2-1.4h-1.1Zm-5.5-1.5c-.7.1-.2.6-.4,1v1.4H361v-2.5h-1.7Zm1.5,4.1v-.7H359v2.6h1.9v-1.9Z" transform="translate(-172 -371.9)"/><path class="cls-11" d="M357.2,387.3h.6c0,.4.3.5.7.5l.8.3c.9-.9,2,.5,3-.1l.3-.7h.3a6.1,6.1,0,0,0,1.8.5h3.6l.7.4-1.1.4h-1.3V396h-1.3v-5.9h0v-1.4h-2.2V396h-2.3v-7.3h-1.6V396h-2.1Z" transform="translate(-172 -371.9)"/><path class="cls-14" d="M366.6,392.8v-4.1h1.1v5.9h1v-3.1h0v3l-.2,1.5h-.2v-.9l-1.2-.8.3-.2-.3-2h-.1v1.8Z" transform="translate(-172 -371.9)"/><path class="cls-14" d="M363.2,389.7v-.9h.7c0,.3-.1.6-.1.9v.4h.4v4.5h1.1V396h1.3v-1h.4v1.4h-1l-.5.2-1.1-1.7H364V391Z" transform="translate(-172 -371.9)"/><path class="cls-8" d="M369.8,396.1h-1.2c.1-.6.1-1,.2-1.5l.7.5v.5h.2v-8.2h.1v8.1C369.9,395.6,369.8,395.9,369.8,396.1Zm-.3-.2h.1l-.7-.2h0Z" transform="translate(-172 -371.9)"/><path class="cls-14" d="M360.9,396h2.3v-4.7c.1.1.2.2.2.3s.1,2.7,0,4.1-.2.5-.4.8v-.3l-1.5.2C361.1,396.4,360.8,396.5,360.9,396Z" transform="translate(-172 -371.9)"/><path class="cls-14" d="M369.9,409.1V397.9a2.4,2.4,0,0,1,.2.8v9.7A1.9,1.9,0,0,1,369.9,409.1Z" transform="translate(-172 -371.9)"/><path class="cls-14" d="M363.2,391v0Z" transform="translate(-172 -371.9)"/><path class="cls-11" d="M319.7,381.2h1.6v6.6h-4.2v-6.5Z" transform="translate(-172 -371.9)"/><path class="cls-14" d="M319.7,381.2h-2.6v-1.4h2.6Z" transform="translate(-172 -371.9)"/><path class="cls-12" d="M399.4,387.3H398v-1.3h.9l.5.2Z" transform="translate(-172 -371.9)"/><path class="cls-5" d="M380.9,404.6l1.3-.3h-.1v1.3h-1.4C380.8,405.3,380.8,404.9,380.9,404.6Z" transform="translate(-172 -371.9)"/><path class="cls-2" d="M394.8,391.8V393h-1.4v-1Z" transform="translate(-172 -371.9)"/><path class="cls-5" d="M379.3,408.8H379l-.8-.2v-1.1l1.1-.2Z" transform="translate(-172 -371.9)"/><path class="cls-2" d="M382.2,404.4h.6c-.2-1,.5-1.1,1.1-1.2v1.4Z" transform="translate(-172 -371.9)"/><path class="cls-5" d="M383.9,403c-.6.1-1.3.2-1.1,1.2h-.6a3.7,3.7,0,0,0-.1-1.1h.3l1.5-.5v.4Z" transform="translate(-172 -371.9)"/><path class="cls-5" d="M394.8,391.8l-1.4.2v1h-.3v-1.3l.2-.2h1l.5-.9Z" transform="translate(-172 -371.9)"/><path class="cls-5" d="M396.6,385.4l.4.4h1v.3h0l-1.4-.3Z" transform="translate(-172 -371.9)"/><path class="cls-2" d="M382.1,404.8v0Z" transform="translate(-172 -371.9)"/><path class="cls-5" d="M394.8,390.5a.1.1,0,0,0-.1-.1h.1Z" transform="translate(-172 -371.9)"/><path class="cls-1" d="M346.5,382.3v2h0v3.3h-4.9v-6.2l.5-.3h4.3Z" transform="translate(-172 -371.9)"/><path class="cls-7" d="M345.8,379.9h.3V381h-4v-1l3.4.3Z" transform="translate(-172 -371.9)"/><path class="cls-9" d="M342.1,380v1h4v-1.1l.4.3v1.1h-4.3l-.5.3a8.5,8.5,0,0,0,.4-1.7A.1.1,0,0,1,342.1,380Z" transform="translate(-172 -371.9)"/><path class="cls-14" d="M342.1,380a.1.1,0,0,0-.1-.1h3.8l-.3.4Z" transform="translate(-172 -371.9)"/><path class="cls-9" d="M346.5,384.5h0Z" transform="translate(-172 -371.9)"/><path class="cls-7" d="M292.6,381h-1.1c-.7-.6.1-.7.2-1.1h.9Z" transform="translate(-172 -371.9)"/><path class="cls-1" d="M310.2,399v2.2h1.2v2.5h-4.8v-2.5H308V399Z" transform="translate(-172 -371.9)"/><path class="cls-14" d="M310.2,399H308c0-.4-.1-.8-.1-1.4h2.4Z" transform="translate(-172 -371.9)"/><path class="cls-11" d="M468.8,402.6h-1.1l-.3-.2h-2.8l-.4.3h-1.1a.9.9,0,0,0-.5-.3h-4.9c-.1,0-.2.2-.2.3h-.4v-1h-8.7v.9H448c-.2-.1-.3-.3-.5-.3H436.6l-.3.2h0a4.3,4.3,0,0,0-.1-.5V390.5h32.6ZM457,396.1h0l.3-.3V394h-1v-.2l1-.5v-1.7l-.4-.4c-2.7,0-5.3-.1-8,0a1.5,1.5,0,0,0-.7.3v1.8l.7.4h7l-.3.6h-.3a1,1,0,0,0-1.4,0h-1.2l-.6-.3h-4v2l.2.2.2.3h8Zm-.1,4.7.2-3.8h-8.8v1.7c0,.7.1,1.4.1,2.2l.8.2h7.6A1,1,0,0,0,456.9,400.8Zm9.1-4.1-.5-.2H459l-.5.2v4h7.9v-4Zm-21.5-3.6h-3.7V395h-2.3v3.8h2.4v1.8h3.6v-1.8h2.2V395h-2.2Z" transform="translate(-172 -371.9)"/><path class="cls-2" d="M448.3,390.4h-.1c0-.5-.1-1-.1-1.5S448.2,390,448.3,390.4Z" transform="translate(-172 -371.9)"/><path class="cls-14" d="M238.4,395.7V395h4.7v.7Z" transform="translate(-172 -371.9)"/><path class="cls-14" d="M243.1,391.1h-4.7v-.7h4.7v.7Z" transform="translate(-172 -371.9)"/><path class="cls-14" d="M243.1,402.6v.6h-4.7v-.6Z" transform="translate(-172 -371.9)"/><path class="cls-7" d="M243.1,400.2h-4.7v-.7h4.7v.7Z" transform="translate(-172 -371.9)"/><path class="cls-7" d="M243.1,385.7v.8h-4.7v-.8Z" transform="translate(-172 -371.9)"/><path class="cls-7" d="M243.1,396.5v.6h-4.7v-.6Z" transform="translate(-172 -371.9)"/><path class="cls-14" d="M243.1,404.1v.7h-4.7v-.7Z" transform="translate(-172 -371.9)"/><path class="cls-14" d="M243.2,389.5h-4.8v-.6h4.7Z" transform="translate(-172 -371.9)"/><path class="cls-7" d="M243.1,391.9v.6h-4.7v-.6Z" transform="translate(-172 -371.9)"/><path class="cls-7" d="M243.1,401.1v.6h-4.7v-.6Z" transform="translate(-172 -371.9)"/><path class="cls-14" d="M238.7,382.7h4.4v.6h-4.4a5.3,5.3,0,0,1,1.2-.3h2.5v-.2Z" transform="translate(-172 -371.9)"/><path class="cls-14" d="M241.3,387.3h1.8v.7h-4.5l-.2-.3,4.1-.2Z" transform="translate(-172 -371.9)"/><path class="cls-14" d="M242.7,381.1h.4v.8h-4.7v-.7h3.1l-2.7.2v.2H243l-.3-.4Z" transform="translate(-172 -371.9)"/><path class="cls-7" d="M238.7,382.7h3.7v.2h-2.5a5.3,5.3,0,0,0-1.2.3l-.3-.3Z" transform="translate(-172 -371.9)"/><path class="cls-7" d="M241.3,387.3l1.2.2-4.1.2a.9.9,0,0,1,.5-.3h2.4Z" transform="translate(-172 -371.9)"/><path class="cls-13" d="M241.5,381.2h0Z" transform="translate(-172 -371.9)"/><path class="cls-16" d="M238,398.8v0Z" transform="translate(-172 -371.9)"/><path class="cls-14" d="M241,387.3h0Z" transform="translate(-172 -371.9)"/><path class="cls-1" d="M238.3,385.6h0Z" transform="translate(-172 -371.9)"/><path class="cls-14" d="M240,387.3h0Z" transform="translate(-172 -371.9)"/><path class="cls-2" d="M371.8,381.4v1.5h-6.5l.9-1h.5a5.6,5.6,0,0,1,3.4-.6h1.7Z" transform="translate(-172 -371.9)"/><path class="cls-12" d="M359.3,378.1h1.4v1.4h-1.5Z" transform="translate(-172 -371.9)"/><path class="cls-12" d="M356,378.1h1.4v1.5H356Z" transform="translate(-172 -371.9)"/><path class="cls-15" d="M364.1,381.2v-1.1h-.2l.4-.4h0v1.5h-.2Z" transform="translate(-172 -371.9)"/><path class="cls-2" d="M364.3,379.7h5.8v.2a2.2,2.2,0,0,0-.1.8l-.3-.9Z" transform="translate(-172 -371.9)"/><path class="cls-2" d="M364.1,381.3h-4.7l.2,1.4h-.4a7.6,7.6,0,0,0,.1-1.5Z" transform="translate(-172 -371.9)"/><path class="cls-10" d="M364.1,381.3h0Z" transform="translate(-172 -371.9)"/><path class="cls-15" d="M370.1,380.6a2.2,2.2,0,0,1,.1-.8h.2c-.1.5-.1,1-.2,1.5h-.1v-.7Z" transform="translate(-172 -371.9)"/><polygon class="cls-15" points="198.1 7.7 198.1 7.7 198.1 7.7 198.1 7.7"/><path class="cls-4" d="M359.6,382.9l-.2-1.4h4.9l1.4.2.5.4-.9,1h-5.7Z" transform="translate(-172 -371.9)"/><path class="cls-2" d="M362,382.9h0Z" transform="translate(-172 -371.9)"/><path class="cls-14" d="M256.4,382.8v2.5h-1a3.9,3.9,0,0,1-.2-.6l-1-.4a7.7,7.7,0,0,0,.2,1.5c0,.2.1.5.1.7s-.2,2.5-.2,3.7a.6.6,0,0,0,.7.6v-5.9l.4.4v3.8a12.1,12.1,0,0,0,0,1.9H254v-6.9h1v-1.4h-1.2l-.2,1.1h-1.4v-2.2l2.6-.3h.2c0,.3.1.6.1.8Z" transform="translate(-172 -371.9)"/><path class="cls-7" d="M249.1,381.4l1.2.4v3.4h-4v-3.4l2.7-.4Zm-1.5,1.4v1.3h1.2v-1.2Z" transform="translate(-172 -371.9)"/><path class="cls-14" d="M251.5,384h.8v1.1h-1.3c0-.5-.3-.9.3-1.2Z" transform="translate(-172 -371.9)"/><path class="cls-13" d="M256.4,382.8l-1.2-.5c0-.2-.1-.5-.1-.8l1.2.3a.8.8,0,0,0,.1.4Z" transform="translate(-172 -371.9)"/><path class="cls-16" d="M246.9,385.7h.4v.8h-.6Z" transform="translate(-172 -371.9)"/><path class="cls-16" d="M247,387.4v.6h-.3l-.2-.4Z" transform="translate(-172 -371.9)"/><path class="cls-1" d="M246.7,388h.3v.3Z" transform="translate(-172 -371.9)"/><path class="cls-13" d="M255.1,381.5h0Z" transform="translate(-172 -371.9)"/><path class="cls-16" d="M414.1,380.9l1.7-.2v1.6h-1.7Z" transform="translate(-172 -371.9)"/><path class="cls-4" d="M414.1,380.9v1.4h-1.4v-1.5Z" transform="translate(-172 -371.9)"/><path class="cls-14" d="M436.3,402.7h0v.9h0C436,403.3,435.9,403,436.3,402.7Z" transform="translate(-172 -371.9)"/><path class="cls-14" d="M196,400h1.4v1.2H196Z" transform="translate(-172 -371.9)"/><path class="cls-5" d="M197.6,404h1.2c.1.1.2.3.4.4Z" transform="translate(-172 -371.9)"/><path class="cls-7" d="M182.6,384.7v12.1h0V384.7Z" transform="translate(-172 -371.9)"/><path class="cls-7" d="M182.5,399.4v-1.9h.1l.2,1.9Z" transform="translate(-172 -371.9)"/><path class="cls-7" d="M182.7,383.1h0Z" transform="translate(-172 -371.9)"/><polygon class="cls-7" points="10.6 9.6 10.5 9.6 10.5 9.5 10.6 9.6"/><path class="cls-7" d="M392.2,407.4v-1.2h14.5v1.2Z" transform="translate(-172 -371.9)"/><path class="cls-6" d="M207.4,383.3h-1.6l-1.6-.3v-1.8H207l.5,1.1v1Z" transform="translate(-172 -371.9)"/><path class="cls-6" d="M231.1,390h-1.6l-1.5-.3v-1.8h2.8c.1.3.3.7.4,1.1v1Z" transform="translate(-172 -371.9)"/><path class="cls-12" d="M207.5,383.3v-1l1.6-.4v1.4Z" transform="translate(-172 -371.9)"/><path class="cls-15" d="M230.8,384.9c0,.9.1,1.8.1,2.7v-1.3h1.6v-7.6h-1.7v2H228v-1.7a6.8,6.8,0,0,1-.2,1.4c0,.4-.1.7-.1,1.1h-1.6v2.7l.2-.9,1.3.2v2.9h1.8v-3.1h-1.7v-1.4l1.6.4.4-1.1h2.8V383l-1.6.3Z" transform="translate(-172 -371.9)"/><path class="cls-6" d="M228,377.8v1.8h2.9v-2h-1.4Z" transform="translate(-172 -371.9)"/><path class="cls-6" d="M230.6,381.1h1.7l.3-3h-2a7.8,7.8,0,0,0-.2,1.4Z" transform="translate(-172 -371.9)"/><path class="cls-6" d="M231,378.6h1.6v-1.6h-1.5Z" transform="translate(-172 -371.9)"/><path class="cls-12" d="M231,378.6v-1.4h-1.3l-.3.3v1.2H231Z" transform="translate(-172 -371.9)"/><path class="cls-12" d="M231,381.6v-1.4h-1.3l-.3.3v1.2H231Z" transform="translate(-172 -371.9)"/><path class="cls-12" d="M231,380.6v-1.4h-1.3l-.3.3v1.2H231Z" transform="translate(-172 -371.9)"/><path class="cls-6" d="M227.6,384.8v-1.3l-1.3-.2-.2.9v.5Z" transform="translate(-172 -371.9)"/><path class="cls-12" d="M229.4,383.3v1.4l1.4.2a9.2,9.2,0,0,0,.1-1.6Z" transform="translate(-172 -371.9)"/><path class="cls-6" d="M229.4,383.3h1.5l1.6-.3v-1.8h-2.8c-.1.4-.3.7-.4,1.1v1Z" transform="translate(-172 -371.9)"/><path class="cls-12" d="M229.2,383.3v-1l-1.6-.4v1.4Z" transform="translate(-172 -371.9)"/><path class="cls-15" d="M229.3,385c0-1.1,0-2.3-.1-3.4h1.7v1.5h-1.5Z" transform="translate(-172 -371.9)"/><path class="cls-1" d="M226,385.7v1.4h-.2v-1.4Z" transform="translate(-172 -371.9)"/><polygon class="cls-15" points="57 9.6 57 9.6 57 9.6 57 9.6 57 9.6"/><path class="cls-15" d="M229.3,385.6h0C229.4,385.5,229.4,385.5,229.3,385.6Z" transform="translate(-172 -371.9)"/><path class="cls-3" d="M201.3,398.1H200V381.5h1.3v16.6Z" transform="translate(-172 -371.9)"/><path class="cls-3" d="M199.6,378.7v2.6h-1.4v-2.1h-1.9V377h1.4v1.7Z" transform="translate(-172 -371.9)"/><path class="cls-3" d="M195.9,375.5v1.2h-5v-1.2Z" transform="translate(-172 -371.9)"/><path class="cls-3" d="M201.3,398.1h1.4l.2,1.5h-1.5c0-.6-.1-1.1-.1-1.6Z" transform="translate(-172 -371.9)"/><path class="cls-3" d="M203.1,401.1l-.2-.8v-.4h1.3v1.2Z" transform="translate(-172 -371.9)"/><path class="cls-10" d="M190.8,377.3l-.3-.3Z" transform="translate(-172 -371.9)"/><path class="cls-10" d="M203,399.9v0Z" transform="translate(-172 -371.9)"/><path class="cls-1" d="M369.8,387.3v7.2l-.3.5-.7-.5c0-1,0-2-.1-3v-2.8h-.8l1.1-.4-.7-.4h-3.6a6.1,6.1,0,0,1-1.8-.5Z" transform="translate(-172 -371.9)"/><path class="cls-1" d="M362.6,387.3l-.3.7c-1,.6-2.1-.8-3,.1l-.8-.3c-.4,0-.7-.1-.7-.5h4.8Z" transform="translate(-172 -371.9)"/><path class="cls-11" d="M358.4,387.3h0Z" transform="translate(-172 -371.9)"/><path class="cls-11" d="M247.3,386.5v-.8l.4-.3h2.5l2.2-.2.2-1h1v6.9l-.8-.3a5.6,5.6,0,0,1-3.8-.2l.3-3.8-.7-.4h-1.3Z" transform="translate(-172 -371.9)"/><path class="cls-7" d="M248.9,391h-1.4v-4.3h1.4Z" transform="translate(-172 -371.9)"/><path class="cls-11" d="M250.7,384.6v.5h-.2v-.5Z" transform="translate(-172 -371.9)"/><path class="cls-1" d="M248.3,386.5h0Z" transform="translate(-172 -371.9)"/><path class="cls-1" d="M247.9,386.5h0Z" transform="translate(-172 -371.9)"/><path class="cls-2" d="M399.6,383.1h.1l1,.2.4-.2a8.9,8.9,0,0,1-.2,1.5h-1.1Z" transform="translate(-172 -371.9)"/><path class="cls-9" d="M399.4,386.2l-.5-.2h.5Z" transform="translate(-172 -371.9)"/><path class="cls-3" d="M204.7,401.3h1.1v2.4h-1.2Z" transform="translate(-172 -371.9)"/><path class="cls-3" d="M276.2,376.1h1.7v5.2h-1.7Z" transform="translate(-172 -371.9)"/><path class="cls-3" d="M276.2,379.3v.9h-.9l-.3-1.1.2-.2.7.4Z" transform="translate(-172 -371.9)"/><path class="cls-10" d="M276.2,379.3h-.3l-.7-.4-.2.2.3,1.1h-.5v-1.5h1.4Z" transform="translate(-172 -371.9)"/><path class="cls-3" d="M247.7,397.5h-2.2v-1.3h11.8l-.2,1.2h-9.4Z" transform="translate(-172 -371.9)"/><path class="cls-13" d="M247.7,397.5H254l.8.2v.9h-6a2.7,2.7,0,0,1-.9,0c-.2,0-.3-.2-.5-.4v-.5Z" transform="translate(-172 -371.9)"/><path class="cls-11" d="M247.4,398v.3h-1.5c-.2,0-.4-.2-.6-.3h2.1Z" transform="translate(-172 -371.9)"/><path class="cls-1" d="M254.9,397.5h2.2v.4h-2.2Z" transform="translate(-172 -371.9)"/><path class="cls-1" d="M247.4,398h-1.8l.7-.2a4.8,4.8,0,0,1,1.2,0Z" transform="translate(-172 -371.9)"/><path class="cls-10" d="M409.8,391.3v0Z" transform="translate(-172 -371.9)"/><path class="cls-15" d="M274,382.3h1v8.9h-.9c0-.3.1-.5.1-.8v-5c0-1-.1-2-.1-2.9Z" transform="translate(-172 -371.9)"/><path class="cls-6" d="M274.1,382.5c0,.9.1,1.9.1,2.9v5c0,.3-.1.5-.1.8h-.8v-.7c.1-.2.3-.4.3-.5v-7.1Z" transform="translate(-172 -371.9)"/><path class="cls-2" d="M274.1,382.5l-.5.4V390c0,.1-.2.3-.3.5v-8.2h.7Z" transform="translate(-172 -371.9)"/><path class="cls-16" d="M254.9,397.5v.3h-.1l-.8-.2h.9Z" transform="translate(-172 -371.9)"/><path class="cls-1" d="M255.9,398.1v.5h-.2v-.4Z" transform="translate(-172 -371.9)"/><path class="cls-5" d="M386.5,399.9c-.3,0-.9.3-.8-.4S386.3,399.5,386.5,399.9Z" transform="translate(-172 -371.9)"/><path class="cls-16" d="M427.8,396.6V395h1.5a6.9,6.9,0,0,0,.2,1.3h-1.7Z" transform="translate(-172 -371.9)"/><polygon class="cls-10" points="256.3 24.6 256.3 24.6 256.3 24.6 256.3 24.6"/><path class="cls-7" d="M322.3,391.2l-.4.7h-8.1l.4-.7Z" transform="translate(-172 -371.9)"/><path class="cls-7" d="M327.2,391.9v-.8h8.5v.8Z" transform="translate(-172 -371.9)"/><path class="cls-7" d="M300.8,398.3c-.4.2-.7.5-1.1.5h-5V398h6.1Z" transform="translate(-172 -371.9)"/><path class="cls-4" d="M436.3,403.6v-.9h32.4v.8H436.3Z" transform="translate(-172 -371.9)"/><path class="cls-16" d="M427.8,395h-1.5v-1.7c.5-.2.9-.4,1.4-.1S427.8,394.4,427.8,395Z" transform="translate(-172 -371.9)"/><path class="cls-16" d="M237.7,379.2l.7.2v.9l-.6-.2v-.9Z" transform="translate(-172 -371.9)"/><path class="cls-1" d="M234.1,379.1h0Z" transform="translate(-172 -371.9)"/><path class="cls-16" d="M234.1,379.1h-.6v-.2h.6Z" transform="translate(-172 -371.9)"/><path class="cls-7" d="M340,409l.4.5-.4.6h-7.7V409Z" transform="translate(-172 -371.9)"/><path class="cls-3" d="M447.4,407.2h-4.3v-.8h4.2Z" transform="translate(-172 -371.9)"/><path class="cls-7" d="M348.9,403.6c-.3.2-.4.4-.6.4s-2.3,0-3.5,0C345.2,403.4,347.2,403.2,348.9,403.6Z" transform="translate(-172 -371.9)"/><path class="cls-1" d="M234.1,379h0Z" transform="translate(-172 -371.9)"/><path class="cls-5" d="M396.7,384.7c0,.1-.1.2-.1.3l-.2-.3Z" transform="translate(-172 -371.9)"/><path class="cls-7" d="M310.8,390.9l.3,1H308l.4-1.2Z" transform="translate(-172 -371.9)"/><path class="cls-7" d="M458.3,409.5h-1v-.8h1.1Z" transform="translate(-172 -371.9)"/><path class="cls-10" d="M216.8,407.4v-1.3h4.8v1.3Zm4.6-.2v-.8h-4.2v.8Z" transform="translate(-172 -371.9)"/><path class="cls-10" d="M226.4,409.4h-1.5v-1.2h1.5Z" transform="translate(-172 -371.9)"/><path class="cls-14" d="M231,409.7v-1.4h1.7v1.4Zm1.3-.2v-.8h-1.1v.8Z" transform="translate(-172 -371.9)"/><path class="cls-3" d="M221.4,407.2h-4.3v-.8h4.2Z" transform="translate(-172 -371.9)"/><path class="cls-7" d="M232.3,409.5h-1v-.8h1.1Z" transform="translate(-172 -371.9)"/><path class="cls-7" d="M380.6,380.4l-.9.4h-.2c0-.5-.1-.9-.1-1.4l.5-.2h.4l.3.8Z" transform="translate(-172 -371.9)"/><path class="cls-9" d="M379.9,379.2l-.5.2c0,.5.1.9.1,1.4s-.3-1-.4-1.6Z" transform="translate(-172 -371.9)"/><path class="cls-9" d="M380.6,380l-.3-.8C381,379.3,380.6,379.7,380.6,380Z" transform="translate(-172 -371.9)"/><path class="cls-4" d="M181.4,394.6v1.1h-4.8v-1.1Z" transform="translate(-172 -371.9)"/><path class="cls-4" d="M179.7,387.8v1.1h-1.9v-.2l.2-1.2h1.8Z" transform="translate(-172 -371.9)"/><path class="cls-8" d="M177.9,384.9v-1.8c.7.1,1.3-.9,2,.1V385l-.2-.2c0-.1-.1-.2-.1-.4V384c0-.3.4-.7-.3-.8h-1.2l.4,1.6h1.1v.3h-1.1Z" transform="translate(-172 -371.9)"/><path class="cls-11" d="M179.6,387.5h0Z" transform="translate(-172 -371.9)"/><path class="cls-9" d="M179.6,384.4c0,.2.1.3.1.4h-1Z" transform="translate(-172 -371.9)"/><path class="cls-11" d="M180.8,386.1l-.2-.4h.3a.9.9,0,0,0,.1.5Z" transform="translate(-172 -371.9)"/><path class="cls-11" d="M176.8,387.5h0Z" transform="translate(-172 -371.9)"/><path class="cls-11" d="M177.6,388.7v.2l-.2.2h-.1Z" transform="translate(-172 -371.9)"/><path class="cls-11" d="M178.4,386h0Z" transform="translate(-172 -371.9)"/><path class="cls-11" d="M177.5,387.2V387h.1v.2Z" transform="translate(-172 -371.9)"/><path class="cls-11" d="M179.7,387.8v-.3l.3.2Z" transform="translate(-172 -371.9)"/><path class="cls-11" d="M177.9,381.1h-.1c.1,0,.1,0,.1-.1h.1A.1.1,0,0,0,177.9,381.1Z" transform="translate(-172 -371.9)"/><path class="cls-7" d="M179.6,384.4l-.9.4h-.2c0-.5-.1-.9-.1-1.4l.5-.2h.4l.3.8Z" transform="translate(-172 -371.9)"/><path class="cls-9" d="M178.9,383.2l-.5.2c0,.5.1.9.1,1.4s-.3-1-.4-1.6Z" transform="translate(-172 -371.9)"/><path class="cls-9" d="M179.6,384l-.3-.8C180,383.3,179.6,383.7,179.6,384Z" transform="translate(-172 -371.9)"/><path class="cls-7" d="M266.1,379.3v1.4h-.8v-1.4Z" transform="translate(-172 -371.9)"/><path class="cls-1" d="M399.4,386h-.3l-1.1-.2h0v-1.1h1.4Z" transform="translate(-172 -371.9)"/><path class="cls-1" d="M427.6,382h-1.2v-.7l.8-.4Z" transform="translate(-172 -371.9)"/><path class="cls-3" d="M270.2,391.3v0Z" transform="translate(-172 -371.9)"/><path class="cls-16" d="M188.2,397.7v.6l-.2,1.1-1.9.2v-1.9Z" transform="translate(-172 -371.9)"/><path class="cls-12" d="M218,396.4h0Z" transform="translate(-172 -371.9)"/><path class="cls-4" d="M215.2,391.7c.1.9-.1,1.2-1,1v-1Z" transform="translate(-172 -371.9)"/><path class="cls-3" d="M364.2,406c0-.1-.1-.2-.1-.3v-1.4l.3-1.7,1.3-.2h0v.2l.4.2-.3,1.3h1.6v1.3l-1.7.3Z" transform="translate(-172 -371.9)"/><path class="cls-14" d="M360.3,399.4h.7v2.5h-2.1v-1.4c.4.7.9.2,1.6.3Z" transform="translate(-172 -371.9)"/><path class="cls-3" d="M364.2,401.1h-1.6v-1.5h1.7c0,.6.1,1,.1,1.5h-.1Z" transform="translate(-172 -371.9)"/><path class="cls-4" d="M359,404.2v-1.3h1.7v1.3Z" transform="translate(-172 -371.9)"/><path class="cls-14" d="M359,404.2h1.8v1.3H359Z" transform="translate(-172 -371.9)"/><path class="cls-12" d="M364.2,406l1.6-.2c0,.5-.1.9-.1,1.4h-1.5Z" transform="translate(-172 -371.9)"/><path class="cls-4" d="M364.1,404.3v1.4h-1.5v-1.4Z" transform="translate(-172 -371.9)"/><path class="cls-4" d="M367.5,404.2h-1.6l.3-1.3h1.3Z" transform="translate(-172 -371.9)"/><path class="cls-4" d="M360.3,399.4l.2,1.4c-.7-.1-1.2.4-1.6-.3s-.3-.9.4-1h1Z" transform="translate(-172 -371.9)"/><path class="cls-4" d="M365.7,402.5h0l-1.4-.2v-1.1h1.6c-.1.5-.1.9-.2,1.4Z" transform="translate(-172 -371.9)"/><path class="cls-9" d="M364.3,402.2l1.4.2-1.3.2-.3,1.7h0A14.9,14.9,0,0,1,364.3,402.2Z" transform="translate(-172 -371.9)"/><path class="cls-3" d="M365.4,401h0Z" transform="translate(-172 -371.9)"/><path class="cls-9" d="M365.7,402.5h0v.2C365.8,402.6,365.8,402.5,365.7,402.5Z" transform="translate(-172 -371.9)"/><path class="cls-9" d="M364.3,401.1v0Z" transform="translate(-172 -371.9)"/><path class="cls-9" d="M364.9,407.2h0Z" transform="translate(-172 -371.9)"/><polygon class="cls-14" points="187.4 27.6 187.3 27.6 187.3 27.6 187.3 27.5 187.4 27.6"/><path class="cls-9" d="M365.6,407.2h0Z" transform="translate(-172 -371.9)"/><path class="cls-14" d="M360.8,403.6v0Z" transform="translate(-172 -371.9)"/><path class="cls-4" d="M363.7,389.6c0-.3.1-.6.1-.9h1.5v1.4h0v4.5h-1.1v-4.5h-.4Z" transform="translate(-172 -371.9)"/><path class="cls-4" d="M367.9,388.6h.8v5.9h-1v-5.9Z" transform="translate(-172 -371.9)"/><polygon class="cls-14" points="193.3 18.2 193.2 18.2 193.3 18.2 193.3 18.2"/><path class="cls-11" d="M368.7,391.5v0Z" transform="translate(-172 -371.9)"/><path class="cls-7" d="M363.7,389.6v0Z" transform="translate(-172 -371.9)"/><path class="cls-11" d="M369.5,395l.3-.5v1h-.2Z" transform="translate(-172 -371.9)"/><path class="cls-1" d="M369.5,395.9l-.6-.2h0l.7.2Z" transform="translate(-172 -371.9)"/><path class="cls-16" d="M398,385.8l1.1.2H398Z" transform="translate(-172 -371.9)"/><path class="cls-12" d="M444.5,393.1V395h2.2v3.8h-2.2v1.8h-3.6v-1.8h-2.4V395h2.3v-1.9Zm-1,6.5.2-1.6h2v-2.2h-2v-1.9h-2v1.9h-2V398h2.1v1.8Z" transform="translate(-172 -371.9)"/><path class="cls-12" d="M466,396.7h.4v4h-7.9v-4Zm-.4,3.1v-2.3h-2.5v2.3Zm-6.2-2.3v2.2h2.4v-2.2Z" transform="translate(-172 -371.9)"/><path class="cls-4" d="M448.4,400.9c0-.8-.1-1.5-.1-2.2V397h8.8l-.2,3.8Zm5.2-1.3H456v-1.4l.4.7.3-.2-.2-1.3a24.1,24.1,0,0,1-4.7-.1c-1.1-.2-2.1.3-3.1.1v1.1l.5-.3v1.3h2.5v-1.4h.5l.3.6.9-.6v1.2l-1-.3-.3,1.1h.8Zm-4.4.6-.3-.4-.2.4Z" transform="translate(-172 -371.9)"/><path class="cls-7" d="M452.7,394.2H457v1.9h-8.6l-.2-.2v-1.7Z" transform="translate(-172 -371.9)"/><path class="cls-7" d="M457.1,402.7h-8.8v-.9H457Z" transform="translate(-172 -371.9)"/><path class="cls-8" d="M457,396.1v-1.9h-1.4l.3-.6h-7l-.7-.4v-1.8a1.5,1.5,0,0,1,.7-.3c2.7-.1,5.3,0,8,0l.4.4v1.7l-1,.5v.2h1v1.8Zm0-4.5-.6-.2h-8.1v1.7H457Zm-1.7-.3h0Z" transform="translate(-172 -371.9)"/><path class="cls-1" d="M448,402.7H436.3l.3-.2h10.9C447.7,402.4,447.8,402.6,448,402.7Z" transform="translate(-172 -371.9)"/><path class="cls-1" d="M448.4,400.9h8.5a1,1,0,0,1-.1.4h-7.6Z" transform="translate(-172 -371.9)"/><path class="cls-1" d="M463.1,402.7h-5.6c0-.1.1-.3.2-.3h4.9A.9.9,0,0,1,463.1,402.7Z" transform="translate(-172 -371.9)"/><path class="cls-8" d="M452.7,394.2h-4.4v-.3h4Z" transform="translate(-172 -371.9)"/><path class="cls-8" d="M448.4,396.1H457l-.4.3h-8Z" transform="translate(-172 -371.9)"/><path class="cls-1" d="M466,396.7h-7.5l.5-.2h6.5Z" transform="translate(-172 -371.9)"/><path class="cls-1" d="M467.7,402.6h-3.5l.4-.3h2.8Z" transform="translate(-172 -371.9)"/><path class="cls-8" d="M455.3,394.2h-1.4A1,1,0,0,1,455.3,394.2Z" transform="translate(-172 -371.9)"/><path class="cls-7" d="M436.3,402.6h0Z" transform="translate(-172 -371.9)"/><path class="cls-7" d="M241.5,381.2h1.2l.3.4h-4.2v-.2Z" transform="translate(-172 -371.9)"/><path class="cls-5" d="M366.2,381.9l-.5-.4-1.4-.2h5l.8-.3v.4a5.6,5.6,0,0,0-3.4.6Z" transform="translate(-172 -371.9)"/><path class="cls-4" d="M370.1,380.9l-.8.3h-5v-1.5h5.5l.3.9Z" transform="translate(-172 -371.9)"/><path class="cls-7" d="M255.4,385.3l-.4-.4v5.9a.6.6,0,0,1-.7-.6c0-1.2.1-2.4.2-3.7s-.1-.5-.1-.7a7.7,7.7,0,0,1-.2-1.5l1,.4a3.9,3.9,0,0,0,.2.6h0Z" transform="translate(-172 -371.9)"/><path class="cls-8" d="M247.6,382.8h1.2V384h-1.2Z" transform="translate(-172 -371.9)"/><path class="cls-3" d="M443.5,399.6l-1.8.2V398h-2.1v-2.2h2v-1.9h2v1.9h2V398h-2A8.8,8.8,0,0,1,443.5,399.6Z" transform="translate(-172 -371.9)"/><path class="cls-10" d="M443.5,399.6a8.8,8.8,0,0,0,.2-1.6A8.8,8.8,0,0,1,443.5,399.6Z" transform="translate(-172 -371.9)"/><path class="cls-3" d="M465.6,399.8h-2.5v-2.3h2.5Z" transform="translate(-172 -371.9)"/><path class="cls-3" d="M459.4,397.5h2.4v2.2h-2.4Z" transform="translate(-172 -371.9)"/><path class="cls-12" d="M449.3,398.2l-.5.3v-1.1c1,.2,2-.3,3.1-.1a24.1,24.1,0,0,0,4.7.1l.2,1.3-.3.2-.4-.7-1-.2h-.4l-1.2.2-.9.6-.3-.6h-3Z" transform="translate(-172 -371.9)"/><path class="cls-11" d="M453.5,398.2l1.2-.2h.4l1,.2v1.4h-2.4v-1.4Z" transform="translate(-172 -371.9)"/><path class="cls-11" d="M449.3,398.2h2.5v1.4h-2.5Z" transform="translate(-172 -371.9)"/><path class="cls-12" d="M453.5,399.4v.2l-.6.6h-.8l.3-1.1Z" transform="translate(-172 -371.9)"/><path class="cls-12" d="M449.2,400.2h-.5l.2-.4Z" transform="translate(-172 -371.9)"/><path class="cls-7" d="M457,391.6v1.5h-8.3l-.4-1.5Z" transform="translate(-172 -371.9)"/><path class="cls-14" d="M457,391.6h-8.7l.4,1.5h-.4v-1.7h8.1Z" transform="translate(-172 -371.9)"/><path class="cls-1" d="M455.3,391.3h0Z" transform="translate(-172 -371.9)"/><path class="cls-4" d="M454.8,398h0Z" transform="translate(-172 -371.9)"/><path class="cls-12" d="M454.8,398h0Z" transform="translate(-172 -371.9)"/></g></svg>