<svg xmlns="http://www.w3.org/2000/svg" viewBox="0 0 129 19"><defs><style>.cls-1{fill:#110c2b;}.cls-2{fill:#f6f9e6;}.cls-3{fill:#46c4d7;}.cls-4{fill:#4cb8ca;}.cls-5{fill:#6e8f9c;}.cls-6{fill:#120f2d;}</style></defs><g id="Capa_3" data-name="Capa 3"><rect class="cls-1" width="129" height="19"/></g><g id="Capa_4" data-name="Capa 4"><path class="cls-2" d="M325.7,409.1v-3.4h-2.2v1.6h-2.6v-1.6h-2v3.4h-2.7c-.1-3.3-.1-6.6-.1-9.9V395h2.8v1.7h1.8v3.8h1v1.9h.9v-1.8h1.1v-3.7h1.9V395h2.8v14Z" transform="translate(-226 -392.9)"/><path class="cls-2" d="M251.7,408.1V394.5h8.6v1.9h2v10.3h-2V408l-2.3.2h-6.3Zm3.3-9.4v6.5h4.3v-6.6h-1.7v-1.2H255Z" transform="translate(-226 -392.9)"/><path class="cls-2" d="M278.6,408.2v-1.5h-2.2V396.5h2.2v-1.9h7v1.9h2v10.2h-2v1.4h-7Zm1.4-10.8-.4,1.7v6.1h4.9v-3.3h0v-2a15.5,15.5,0,0,0-.1-2.2c0-.1-.2-.2-.3-.3H280Z" transform="translate(-226 -392.9)"/><path class="cls-2" d="M231.9,394.5l.3.7v1.3h1.6v4.9H235v2.2h2.7v-2.2h1.2v-4.8h1.4v-2h3.5v2.7h-1.5v1.4c0,.2,0,.3-.1.4v2.7h-1.4v3.3h-.7v1.5h-1.8v1.5h-3.9v-1.5h-1.9v-1.5l-.6-.2v-3.2h-1.3v-2.9h0v-1.4H229v-2.8Z" transform="translate(-226 -392.9)"/><path class="cls-2" d="M310.5,409v-1.8h-5a12.1,12.1,0,0,0-.1,1.9h-2.9v-6.6H304v-4.2h1.4v-1.7h1.4V395h3v1.6H311v1.7h1.3v4.1h1.2V409Zm-3.5-9.6v2.3h-1.4v2.6h4.8v-2.6h-1.3v-2.2l.2-1.3h-2.4Z" transform="translate(-226 -392.9)"/><path class="cls-2" d="M291.7,409.1h0v-1.5h-1.1l-.7-.2v-.5h0V396.6h1.8V395h6.2v1.5h1.3c.2,0,.3.2.5.3v1.1H293v8H297v-.9h-1.9v-2.6h4.7v6.6Z" transform="translate(-226 -392.9)"/><path class="cls-2" d="M265,408.2V394.5h8.9v2.8h-5.8V400h4.5v3.1h-4.5v2.1h5.6l.3.2v2.1h0v.2l-.5.2H265Z" transform="translate(-226 -392.9)"/><path class="cls-2" d="M341.7,408.9v-2.8h6.1a4.3,4.3,0,0,1,.1-.5v-2h-3.8c-.2,0-.4-.2-.6-.3v-1.2h-1.8v-5.5h1.7V395h6v1.5h1.5V398h-6.1v2.5h4.7v2H351v5h-1.5v1.1h0v.3h-7Z" transform="translate(-226 -392.9)"/><path class="cls-2" d="M331,409.1V395h8.3v3h-5.2v2.6h4v3h-3.9V406h5.1v3.1H331Z" transform="translate(-226 -392.9)"/><path class="cls-2" d="M249.2,394.7v13.2l-3.3.2v-1.3c0-1.5.1-3,.1-4.5s-.1-3.4-.1-5.1v-2.6h3.3Z" transform="translate(-226 -392.9)"/><path class="cls-3" d="M291.7,409.1h8.2v1.5h-8.2Z" transform="translate(-226 -392.9)"/><path class="cls-3" d="M341.7,408.9l.7.2h7c0,.5.1,1,.1,1.5h-7.8Z" transform="translate(-226 -392.9)"/><path class="cls-4" d="M344.8,399.4V398h6.1v1.4Z" transform="translate(-226 -392.9)"/><path class="cls-4" d="M268.1,398.8v-1.5h5.8v1.4h-5.8Z" transform="translate(-226 -392.9)"/><path class="cls-3" d="M278.8,408.3h6.1l.7.6-.5.6h-6.5v-.3h.3l-.3-.2v-.4Z" transform="translate(-226 -392.9)"/><path class="cls-4" d="M334.1,399.4V398h5.2a6.1,6.1,0,0,1,.1,1.4Z" transform="translate(-226 -392.9)"/><path class="cls-4" d="M251.7,408.1H258l2.3-.2v1.6h-8.6Zm8.6.5h-8.1l-.4.7h8.1Z" transform="translate(-226 -392.9)"/><path class="cls-4" d="M265,408.2h9v1.4h-9.1Zm.1,1.2h8.6v-.8h-8.6Z" transform="translate(-226 -392.9)"/><path class="cls-4" d="M234.4,408.2h3.9v1.4h-3.9Z" transform="translate(-226 -392.9)"/><path class="cls-4" d="M310.5,409h3.1v1.6h-3.1Z" transform="translate(-226 -392.9)"/><path class="cls-4" d="M293.1,399.5V398h6.8v1.6Zm6.7-.8v-.3h-6.1v.9h5C299,399.3,299.4,398.9,299.8,398.7Z" transform="translate(-226 -392.9)"/><path class="cls-3" d="M302.5,409.1h2.9v1.5h-2.9Z" transform="translate(-226 -392.9)"/><path class="cls-3" d="M316.2,409.1h2.7v1.5h-2.7Z" transform="translate(-226 -392.9)"/><path class="cls-3" d="M325.7,409.1h2.8v1.6h-2.8Z" transform="translate(-226 -392.9)"/><path class="cls-4" d="M331.1,409.1h8.2a7.6,7.6,0,0,1,.1,1.5H331v-1.5Zm7.8.3h-7.6v1.1h7.6l.5-.6Z" transform="translate(-226 -392.9)"/><path class="cls-4" d="M343.5,403.3c.2.1.4.3.6.3h3.8V405l-.7-.2c-1.2-.1-2.4,0-3.7,0Zm4.3.8c-1.7-.4-3.6-.2-4.1.4h3.6Z" transform="translate(-226 -392.9)"/><path class="cls-4" d="M289.9,407.4l.7.2h1.1V409h-1.8Z" transform="translate(-226 -392.9)"/><path class="cls-5" d="M245.9,408.1l3.3-.2v1.7h-3.3Zm2.9.2h-2.4l-.4,1.1h3Z" transform="translate(-226 -392.9)"/><path class="cls-4" d="M278.6,409.4h6.5l.5-.6-.7-.6h.7a7.1,7.1,0,0,0,.1,1.4h-6.5Z" transform="translate(-226 -392.9)"/><path class="cls-4" d="M242.3,398.7v-1.4h1.5v1.4Z" transform="translate(-226 -392.9)"/><path class="cls-5" d="M245.9,397.2c0,1.7.1,3.4.1,5.1s-.1,3-.1,4.5v-9.6Z" transform="translate(-226 -392.9)"/><path class="cls-4" d="M229,397.3h.7c-.1.4-1,.6-.2,1.2h1.1v.2h-1.7Z" transform="translate(-226 -392.9)"/><path class="cls-5" d="M273.4,405.2h0Z" transform="translate(-226 -392.9)"/><path class="cls-5" d="M274,408.2h-.5l.5-.2Z" transform="translate(-226 -392.9)"/><path class="cls-4" d="M299.8,397.5v0Z" transform="translate(-226 -392.9)"/><path class="cls-4" d="M230.6,398.8v0Z" transform="translate(-226 -392.9)"/><path class="cls-5" d="M245.9,394.6v0Z" transform="translate(-226 -392.9)"/><path class="cls-4" d="M278.6,408.8l.3.2h-.3Z" transform="translate(-226 -392.9)"/><path class="cls-4" d="M242.2,399.5v0Z" transform="translate(-226 -392.9)"/><path class="cls-4" d="M347.9,405.4v0Z" transform="translate(-226 -392.9)"/><path class="cls-5" d="M274,405.4l-.3-.2Z" transform="translate(-226 -392.9)"/><path class="cls-3" d="M331.1,409.1v0Z" transform="translate(-226 -392.9)"/><polygon class="cls-4" points="5.9 1.6 5.9 1.6 5.9 1.6 5.9 1.6"/><polygon class="cls-3" points="92.9 12.8 93 12.8 93 12.8 92.9 12.8"/><path class="cls-4" d="M278.8,408.3h-.2v-.2Z" transform="translate(-226 -392.9)"/><path class="cls-5" d="M274,407.7h0Z" transform="translate(-226 -392.9)"/><polygon class="cls-3" points="123.5 15.9 123.4 15.9 123.5 15.8 123.5 15.9 123.5 15.9"/><path class="cls-5" d="M249.2,394.7h0Z" transform="translate(-226 -392.9)"/><polygon class="cls-4" points="63.9 14 63.9 14 63.9 14 63.9 14"/><path class="cls-6" d="M257.6,398.6h1.7v6.6H255v-6.5Z" transform="translate(-226 -392.9)"/><path class="cls-4" d="M257.6,398.6H255v-1.3h2.6Z" transform="translate(-226 -392.9)"/><path class="cls-1" d="M284.5,399.8v2h0v3.3h-4.9v-6.1a1,1,0,0,1,.5-.4h4.3Z" transform="translate(-226 -392.9)"/><path class="cls-3" d="M283.8,397.3h.3v1.1H280v-1l3.5.3Z" transform="translate(-226 -392.9)"/><path class="cls-5" d="M280,397.4v1h4.1v-1.1c.1.1.3.2.3.3a15.5,15.5,0,0,1,.1,2.2v-1.1h-4.3a1,1,0,0,0-.5.4c.1-.6.3-1.2.4-1.7Z" transform="translate(-226 -392.9)"/><path class="cls-4" d="M280,397.4h3.8l-.3.4Z" transform="translate(-226 -392.9)"/><path class="cls-5" d="M284.5,401.9h0Z" transform="translate(-226 -392.9)"/><path class="cls-3" d="M230.6,398.5h-1.1c-.8-.6.1-.8.2-1.2h.9Z" transform="translate(-226 -392.9)"/><path class="cls-1" d="M309.1,399.4v2.2h1.3v2.6h-4.8v-2.6H307v-2.3Z" transform="translate(-226 -392.9)"/><path class="cls-4" d="M309.1,399.4H307a5.3,5.3,0,0,1-.1-1.3h2.4Z" transform="translate(-226 -392.9)"/><path class="cls-3" d="M260.3,408.6l-.4.7h-8.1l.4-.7Z" transform="translate(-226 -392.9)"/><path class="cls-3" d="M265.1,409.4v-.8h8.6v.8Z" transform="translate(-226 -392.9)"/><path class="cls-3" d="M299.8,398.7c-.4.2-.8.6-1.2.6h-5v-.9h6.1Z" transform="translate(-226 -392.9)"/><path class="cls-3" d="M338.9,409.4l.5.5-.5.6h-7.6v-1.1Z" transform="translate(-226 -392.9)"/><path class="cls-3" d="M347.8,404.1l-.5.4h-3.6C344.2,403.9,346.1,403.7,347.8,404.1Z" transform="translate(-226 -392.9)"/><path class="cls-3" d="M248.8,408.3l.2,1h-3l.4-1.1Z" transform="translate(-226 -392.9)"/></g></svg>